<svg width="158" height="186" viewBox="0 0 158 186" fill="none" xmlns="http://www.w3.org/2000/svg">
<path d="M87.8402 183.489C88.0091 183.538 88.1575 183.641 88.2631 183.781C88.3687 183.922 88.4258 184.093 88.4258 184.268C88.4258 184.444 88.3687 184.615 88.2631 184.755C88.1575 184.896 88.0091 184.998 87.8402 185.047C87.4208 185.256 86.9586 185.365 86.49 185.365C86.0214 185.365 85.5592 185.256 85.1399 185.047C84.9857 184.983 84.854 184.875 84.7614 184.737C84.6688 184.598 84.6193 184.435 84.6193 184.268C84.6193 184.102 84.6688 183.939 84.7614 183.8C84.854 183.661 84.9857 183.553 85.1399 183.489C85.5592 183.28 86.0214 183.172 86.49 183.172C86.9586 183.172 87.4208 183.28 87.8402 183.489Z" fill="#16110D"/>
<path d="M94.8685 179.463C95.6168 179.885 95.6168 180.567 94.8685 180.989C94.4599 181.214 94.001 181.331 93.5346 181.331C93.0682 181.331 92.6093 181.214 92.2007 180.989C91.4524 180.567 91.4524 179.885 92.2007 179.463C92.6144 179.255 93.0712 179.146 93.5346 179.146C93.9979 179.146 94.4548 179.255 94.8685 179.463Z" fill="#16110D"/>
<path d="M100.558 177.321C99.5162 177.321 98.6714 176.827 98.6714 176.217C98.6714 175.607 99.5162 175.113 100.558 175.113C101.6 175.113 102.445 175.607 102.445 176.217C102.445 176.827 101.6 177.321 100.558 177.321Z" fill="#16110D"/>
<path d="M108.923 171.379C109.671 171.801 109.671 172.483 108.923 172.905C108.515 173.13 108.056 173.247 107.589 173.247C107.123 173.247 106.664 173.13 106.255 172.905C105.507 172.483 105.507 171.801 106.255 171.379C106.669 171.171 107.126 171.063 107.589 171.063C108.053 171.062 108.51 171.171 108.923 171.379Z" fill="#16110D"/>
<path d="M94.8685 171.379C95.6168 171.801 95.6168 172.483 94.8685 172.905C94.4599 173.129 94.001 173.247 93.5346 173.247C93.0682 173.247 92.6093 173.129 92.2007 172.905L94.8685 171.379Z" fill="#16110D"/>
<path d="M101.896 167.322C102.644 167.777 102.644 168.459 101.896 168.881C101.482 169.089 101.025 169.197 100.562 169.197C100.099 169.197 99.6417 169.089 99.2281 168.881L101.896 167.322Z" fill="#16110D"/>
<path d="M115.949 167.386C116.106 167.443 116.241 167.546 116.337 167.683C116.433 167.819 116.484 167.982 116.484 168.149C116.484 168.315 116.433 168.478 116.337 168.614C116.241 168.751 116.106 168.855 115.949 168.911C115.529 169.12 115.067 169.229 114.598 169.229C114.13 169.229 113.668 169.12 113.248 168.911C112.5 168.489 112.5 167.808 113.248 167.386C113.668 167.177 114.13 167.068 114.598 167.068C115.067 167.068 115.529 167.177 115.949 167.386Z" fill="#16110D"/>
<path d="M122.977 163.329C123.146 163.378 123.294 163.481 123.4 163.621C123.505 163.762 123.563 163.933 123.562 164.108C123.562 164.284 123.505 164.455 123.4 164.595C123.294 164.736 123.146 164.838 122.977 164.887C122.558 165.096 122.095 165.205 121.627 165.205C121.158 165.205 120.696 165.096 120.277 164.887C120.108 164.838 119.959 164.736 119.854 164.595C119.748 164.455 119.691 164.284 119.691 164.108C119.691 163.933 119.748 163.762 119.854 163.621C119.959 163.481 120.108 163.378 120.277 163.329C120.696 163.12 121.158 163.012 121.627 163.012C122.095 163.012 122.558 163.12 122.977 163.329Z" fill="#16110D"/>
<path d="M130.134 159.239C130.882 159.661 130.882 160.343 130.134 160.765C129.72 160.989 129.256 161.107 128.784 161.107C128.312 161.107 127.848 160.989 127.434 160.765C126.686 160.343 126.686 159.661 127.434 159.239C127.853 159.03 128.315 158.922 128.784 158.922C129.253 158.922 129.715 159.03 130.134 159.239Z" fill="#16110D"/>
<path d="M137.032 155.245C137.201 155.294 137.349 155.397 137.455 155.537C137.56 155.678 137.617 155.849 137.617 156.024C137.617 156.2 137.56 156.371 137.455 156.511C137.349 156.652 137.201 156.754 137.032 156.803C136.612 157.012 136.15 157.121 135.681 157.121C135.213 157.121 134.751 157.012 134.331 156.803C134.177 156.739 134.045 156.631 133.953 156.492C133.86 156.354 133.811 156.191 133.811 156.024C133.811 155.858 133.86 155.695 133.953 155.556C134.045 155.417 134.177 155.309 134.331 155.245C134.751 155.036 135.213 154.928 135.681 154.928C136.15 154.928 136.612 155.036 137.032 155.245Z" fill="#16110D"/>
<path d="M106.223 163.329C106.637 163.12 107.094 163.012 107.557 163.012C108.02 163.012 108.477 163.12 108.891 163.329C109.06 163.378 109.208 163.48 109.314 163.621C109.419 163.761 109.477 163.932 109.477 164.108C109.477 164.283 109.419 164.454 109.314 164.595C109.208 164.735 109.06 164.838 108.891 164.887C108.477 165.095 108.02 165.204 107.557 165.204C107.094 165.204 106.637 165.095 106.223 164.887V163.329Z" fill="#16110D"/>
<path d="M115.949 159.238C116.106 159.295 116.241 159.399 116.337 159.535C116.433 159.672 116.484 159.835 116.484 160.001C116.484 160.168 116.433 160.331 116.337 160.467C116.241 160.604 116.106 160.707 115.949 160.764C115.534 160.989 115.07 161.106 114.598 161.106C114.127 161.106 113.663 160.989 113.248 160.764L115.949 159.238Z" fill="#16110D"/>
<path d="M87.8402 183.489C88.0091 183.538 88.1575 183.641 88.2631 183.781C88.3687 183.922 88.4258 184.093 88.4258 184.268C88.4258 184.444 88.3687 184.615 88.2631 184.755C88.1575 184.896 88.0091 184.998 87.8402 185.047C87.4208 185.256 86.9586 185.365 86.49 185.365C86.0214 185.365 85.5592 185.256 85.1399 185.047C84.9857 184.983 84.854 184.875 84.7614 184.737C84.6688 184.598 84.6193 184.435 84.6193 184.268C84.6193 184.102 84.6688 183.939 84.7614 183.8C84.854 183.661 84.9857 183.553 85.1399 183.489C85.5592 183.28 86.0214 183.172 86.49 183.172C86.9586 183.172 87.4208 183.28 87.8402 183.489Z" fill="#16110D"/>
<path d="M94.8685 179.463C95.6168 179.885 95.6168 180.567 94.8685 180.989C94.4599 181.214 94.001 181.331 93.5346 181.331C93.0682 181.331 92.6093 181.214 92.2007 180.989C91.4524 180.567 91.4524 179.885 92.2007 179.463C92.6144 179.255 93.0712 179.146 93.5346 179.146C93.9979 179.146 94.4548 179.255 94.8685 179.463Z" fill="#16110D"/>
<path d="M100.558 177.321C99.5162 177.321 98.6714 176.827 98.6714 176.217C98.6714 175.607 99.5162 175.113 100.558 175.113C101.6 175.113 102.445 175.607 102.445 176.217C102.445 176.827 101.6 177.321 100.558 177.321Z" fill="#16110D"/>
<path d="M108.923 171.379C109.671 171.801 109.671 172.483 108.923 172.905C108.515 173.13 108.056 173.247 107.589 173.247C107.123 173.247 106.664 173.13 106.255 172.905C105.507 172.483 105.507 171.801 106.255 171.379C106.669 171.171 107.126 171.063 107.589 171.063C108.053 171.062 108.51 171.171 108.923 171.379Z" fill="#16110D"/>
<path d="M73.7855 183.489C73.9544 183.538 74.1028 183.641 74.2084 183.781C74.314 183.922 74.3711 184.093 74.3711 184.268C74.3711 184.444 74.314 184.615 74.2084 184.755C74.1028 184.896 73.9544 184.998 73.7855 185.047C73.3661 185.256 72.9039 185.365 72.4353 185.365C71.9667 185.365 71.5045 185.256 71.0852 185.047C70.9163 184.998 70.7679 184.896 70.6623 184.755C70.5567 184.615 70.4996 184.444 70.4996 184.268C70.4996 184.093 70.5567 183.922 70.6623 183.781C70.7679 183.641 70.9163 183.538 71.0852 183.489C71.5045 183.28 71.9667 183.172 72.4353 183.172C72.9039 183.172 73.3661 183.28 73.7855 183.489Z" fill="#16110D"/>
<path d="M80.8138 179.464C81.5621 179.886 81.5621 180.568 80.8138 180.99C80.3993 181.214 79.9352 181.332 79.4637 181.332C78.9921 181.332 78.528 181.214 78.1135 180.99C77.3652 180.568 77.3652 179.886 78.1135 179.464C78.5329 179.255 78.9951 179.146 79.4637 179.146C79.9323 179.146 80.3944 179.255 80.8138 179.464Z" fill="#16110D"/>
<path d="M87.8411 175.468C88.5894 175.922 88.5894 176.604 87.8411 177.026C87.4218 177.235 86.9596 177.343 86.491 177.343C86.0224 177.343 85.5602 177.235 85.1408 177.026C84.4251 176.604 84.4251 175.922 85.1408 175.468C85.5602 175.259 86.0224 175.15 86.491 175.15C86.9596 175.15 87.4218 175.259 87.8411 175.468Z" fill="#16110D"/>
<path d="M94.8685 171.379C95.6168 171.801 95.6168 172.483 94.8685 172.905C94.4599 173.13 94.001 173.247 93.5346 173.247C93.0682 173.247 92.6093 173.13 92.2007 172.905C91.4524 172.483 91.4524 171.801 92.2007 171.379C92.6144 171.171 93.0712 171.062 93.5346 171.062C93.9979 171.062 94.4548 171.171 94.8685 171.379Z" fill="#16110D"/>
<path d="M101.896 167.323C102.644 167.777 102.644 168.459 101.896 168.881C101.482 169.089 101.025 169.198 100.562 169.198C100.099 169.198 99.6417 169.089 99.2281 168.881C98.4798 168.459 98.4798 167.777 99.2281 167.323C99.6417 167.114 100.099 167.006 100.562 167.006C101.025 167.006 101.482 167.114 101.896 167.323Z" fill="#16110D"/>
<path d="M59.6995 183.489C59.8685 183.538 60.0169 183.64 60.1225 183.781C60.2281 183.921 60.2852 184.092 60.2852 184.268C60.2852 184.443 60.2281 184.614 60.1225 184.755C60.0169 184.895 59.8685 184.998 59.6995 185.047C59.2859 185.255 58.829 185.364 58.3657 185.364C57.9023 185.364 57.4454 185.255 57.0318 185.047C56.8628 184.998 56.7144 184.895 56.6088 184.755C56.5033 184.614 56.4462 184.443 56.4462 184.268C56.4462 184.092 56.5033 183.921 56.6088 183.781C56.7144 183.64 56.8628 183.538 57.0318 183.489C57.4454 183.28 57.9023 183.172 58.3657 183.172C58.829 183.172 59.2859 183.28 59.6995 183.489Z" fill="#16110D"/>
<path d="M66.761 179.464C66.918 179.521 67.0537 179.624 67.1496 179.761C67.2454 179.897 67.2969 180.06 67.2969 180.227C67.2969 180.393 67.2454 180.556 67.1496 180.692C67.0537 180.829 66.918 180.933 66.761 180.99C66.3465 181.214 65.8825 181.332 65.4109 181.332C64.9393 181.332 64.4752 181.214 64.0607 180.99C63.3125 180.568 63.3125 179.886 64.0607 179.464C64.4801 179.255 64.9423 179.146 65.4109 179.146C65.8795 179.146 66.3417 179.255 66.761 179.464Z" fill="#16110D"/>
<path d="M73.7864 175.468C74.5347 175.922 74.5347 176.604 73.7864 177.026C73.3671 177.235 72.9049 177.343 72.4363 177.343C71.9677 177.343 71.5055 177.235 71.0861 177.026C70.3379 176.604 70.3379 175.922 71.0861 175.468C71.5055 175.259 71.9677 175.15 72.4363 175.15C72.9049 175.15 73.3671 175.259 73.7864 175.468Z" fill="#16110D"/>
<path d="M80.8138 171.38C81.5621 171.802 81.5621 172.484 80.8138 172.906C80.3993 173.13 79.9352 173.248 79.4637 173.248C78.9921 173.248 78.528 173.13 78.1135 172.906C77.3652 172.484 77.3652 171.802 78.1135 171.38C78.5329 171.171 78.9951 171.062 79.4637 171.062C79.9323 171.062 80.3944 171.171 80.8138 171.38Z" fill="#16110D"/>
<path d="M86.5076 169.237C85.4654 169.237 84.6206 168.743 84.6206 168.133C84.6206 167.523 85.4654 167.029 86.5076 167.029C87.5497 167.029 88.3945 167.523 88.3945 168.133C88.3945 168.743 87.5497 169.237 86.5076 169.237Z" fill="#16110D"/>
<path d="M94.8685 163.295C95.6168 163.717 95.6168 164.399 94.8685 164.854C94.4548 165.062 93.9979 165.17 93.5346 165.17C93.0712 165.17 92.6144 165.062 92.2007 164.854C91.4524 164.399 91.4524 163.717 92.2007 163.295C92.6144 163.087 93.0712 162.979 93.5346 162.979C93.9979 162.979 94.4548 163.087 94.8685 163.295Z" fill="#16110D"/>
<path d="M45.5472 183.489C45.7161 183.538 45.8645 183.641 45.9701 183.781C46.0757 183.922 46.1328 184.093 46.1328 184.268C46.1328 184.444 46.0757 184.615 45.9701 184.755C45.8645 184.896 45.7161 184.998 45.5472 185.047C45.1278 185.256 44.6656 185.365 44.197 185.365C43.7284 185.365 43.2663 185.256 42.8469 185.047C42.6927 184.983 42.5611 184.875 42.4684 184.737C42.3758 184.598 42.3264 184.435 42.3264 184.268C42.3264 184.102 42.3758 183.939 42.4684 183.8C42.5611 183.661 42.6927 183.553 42.8469 183.489C43.2663 183.28 43.7284 183.172 44.197 183.172C44.6656 183.172 45.1278 183.28 45.5472 183.489Z" fill="#16110D"/>
<path d="M51.3396 181.344C50.2975 181.344 49.4527 180.85 49.4527 180.241C49.4527 179.631 50.2975 179.137 51.3396 179.137C52.3818 179.137 53.2266 179.631 53.2266 180.241C53.2266 180.85 52.3818 181.344 51.3396 181.344Z" fill="#16110D"/>
<path d="M59.6966 175.469C60.4449 175.924 60.4449 176.605 59.6966 177.027C59.283 177.236 58.8261 177.344 58.3627 177.344C57.8994 177.344 57.4425 177.236 57.0288 177.027C56.2806 176.605 56.2806 175.924 57.0288 175.469C57.4425 175.261 57.8994 175.152 58.3627 175.152C58.8261 175.152 59.283 175.261 59.6966 175.469Z" fill="#16110D"/>
<path d="M66.7601 171.38C67.4758 171.802 67.4758 172.484 66.7601 172.938C66.3407 173.147 65.8785 173.255 65.4099 173.255C64.9413 173.255 64.4791 173.147 64.0598 172.938C63.3115 172.484 63.3115 171.802 64.0598 171.38C64.4791 171.171 64.9413 171.062 65.4099 171.062C65.8785 171.062 66.3407 171.171 66.7601 171.38Z" fill="#16110D"/>
<path d="M73.7864 167.321C74.5347 167.776 74.5347 168.457 73.7864 168.879C73.3671 169.088 72.9049 169.197 72.4363 169.197C71.9677 169.197 71.5055 169.088 71.0861 168.879C70.3379 168.457 70.3379 167.776 71.0861 167.321C71.5055 167.113 71.9677 167.004 72.4363 167.004C72.9049 167.004 73.3671 167.113 73.7864 167.321Z" fill="#16110D"/>
<path d="M80.8138 163.296C81.5621 163.718 81.5621 164.4 80.8138 164.854C80.3944 165.063 79.9323 165.171 79.4637 165.171C78.9951 165.171 78.5329 165.063 78.1135 164.854C77.3652 164.4 77.3652 163.718 78.1135 163.296C78.5329 163.087 78.9951 162.979 79.4637 162.979C79.9323 162.979 80.3944 163.087 80.8138 163.296Z" fill="#16110D"/>
<path d="M87.8411 159.239C88.5894 159.694 88.5894 160.375 87.8411 160.797C87.4218 161.006 86.9596 161.115 86.491 161.115C86.0224 161.115 85.5602 161.006 85.1408 160.797C84.4251 160.375 84.4251 159.694 85.1408 159.239C85.5602 159.03 86.0224 158.922 86.491 158.922C86.9596 158.922 87.4218 159.03 87.8411 159.239Z" fill="#16110D"/>
<path d="M38.5521 179.43C39.3003 179.852 39.3003 180.534 38.5521 180.956C38.1327 181.164 37.6705 181.273 37.2019 181.273C36.7333 181.273 36.2711 181.164 35.8518 180.956C35.6948 180.899 35.5591 180.795 35.4632 180.659C35.3674 180.522 35.3159 180.36 35.3159 180.193C35.3159 180.026 35.3674 179.864 35.4632 179.727C35.5591 179.591 35.6948 179.487 35.8518 179.43C36.2662 179.205 36.7303 179.088 37.2019 179.088C37.6735 179.088 38.1376 179.205 38.5521 179.43Z" fill="#16110D"/>
<path d="M45.5472 175.469C45.7161 175.518 45.8645 175.621 45.9701 175.761C46.0757 175.902 46.1328 176.073 46.1328 176.248C46.1328 176.424 46.0757 176.595 45.9701 176.735C45.8645 176.876 45.7161 176.978 45.5472 177.027C45.1336 177.236 44.6767 177.344 44.2133 177.344C43.75 177.344 43.2931 177.236 42.8794 177.027C42.7105 176.978 42.5621 176.876 42.4565 176.735C42.3509 176.595 42.2938 176.424 42.2938 176.248C42.2938 176.073 42.3509 175.902 42.4565 175.761C42.5621 175.621 42.7105 175.518 42.8794 175.469C43.2931 175.261 43.75 175.152 44.2133 175.152C44.6767 175.152 45.1336 175.261 45.5472 175.469Z" fill="#16110D"/>
<path d="M52.6068 171.346C53.355 171.768 53.355 172.45 52.6068 172.872C52.1931 173.08 51.7362 173.189 51.2729 173.189C50.8095 173.189 50.3527 173.08 49.939 172.872C49.1907 172.45 49.1907 171.768 49.939 171.346C50.3476 171.122 50.8065 171.004 51.2729 171.004C51.7393 171.004 52.1982 171.122 52.6068 171.346Z" fill="#16110D"/>
<path d="M59.6669 167.29C59.8211 167.354 59.9528 167.462 60.0454 167.601C60.1381 167.74 60.1875 167.902 60.1875 168.069C60.1875 168.236 60.1381 168.399 60.0454 168.537C59.9528 168.676 59.8211 168.784 59.6669 168.848C59.2476 169.057 58.7854 169.166 58.3168 169.166C57.8482 169.166 57.386 169.057 56.9667 168.848C56.7977 168.799 56.6493 168.697 56.5437 168.556C56.4381 168.416 56.3811 168.245 56.3811 168.069C56.3811 167.893 56.4381 167.723 56.5437 167.582C56.6493 167.442 56.7977 167.339 56.9667 167.29C57.386 167.081 57.8482 166.973 58.3168 166.973C58.7854 166.973 59.2476 167.081 59.6669 167.29Z" fill="#16110D"/>
<path d="M66.6966 163.263C67.4449 163.685 67.4449 164.366 66.6966 164.788C66.2773 164.997 65.8151 165.106 65.3465 165.106C64.8779 165.106 64.4157 164.997 63.9963 164.788C63.248 164.366 63.248 163.685 63.9963 163.263C64.4157 163.054 64.8779 162.945 65.3465 162.945C65.8151 162.945 66.2773 163.054 66.6966 163.263Z" fill="#16110D"/>
<path d="M73.7191 159.239C73.888 159.288 74.0364 159.391 74.142 159.531C74.2476 159.672 74.3047 159.843 74.3047 160.018C74.3047 160.194 74.2476 160.365 74.142 160.505C74.0364 160.646 73.888 160.748 73.7191 160.797C73.2997 161.006 72.8376 161.115 72.369 161.115C71.9004 161.115 71.4382 161.006 71.0188 160.797C70.8499 160.748 70.7014 160.646 70.5958 160.505C70.4903 160.365 70.4332 160.194 70.4332 160.018C70.4332 159.843 70.4903 159.672 70.5958 159.531C70.7014 159.391 70.8499 159.288 71.0188 159.239C71.4382 159.03 71.9004 158.922 72.369 158.922C72.8376 158.922 73.2997 159.03 73.7191 159.239Z" fill="#16110D"/>
<path d="M80.7513 155.181C81.4996 155.603 81.4996 156.284 80.7513 156.706C80.3319 156.915 79.8697 157.024 79.4011 157.024C78.9325 157.024 78.4704 156.915 78.051 156.706C77.894 156.65 77.7583 156.546 77.6624 156.409C77.5666 156.273 77.5152 156.11 77.5152 155.943C77.5152 155.777 77.5666 155.614 77.6624 155.478C77.7583 155.341 77.894 155.237 78.051 155.181C78.4704 154.972 78.9325 154.863 79.4011 154.863C79.8697 154.863 80.3319 154.972 80.7513 155.181Z" fill="#16110D"/>
<path d="M31.5238 175.468C31.6927 175.517 31.8411 175.619 31.9467 175.76C32.0523 175.9 32.1094 176.071 32.1094 176.247C32.1094 176.422 32.0523 176.593 31.9467 176.734C31.8411 176.874 31.6927 176.977 31.5238 177.026C31.1044 177.235 30.6422 177.343 30.1736 177.343C29.705 177.343 29.2428 177.235 28.8235 177.026C28.6545 176.977 28.5061 176.874 28.4006 176.734C28.295 176.593 28.2379 176.422 28.2379 176.247C28.2379 176.071 28.295 175.9 28.4006 175.76C28.5061 175.619 28.6545 175.517 28.8235 175.468C29.2428 175.259 29.705 175.15 30.1736 175.15C30.6422 175.15 31.1044 175.259 31.5238 175.468Z" fill="#16110D"/>
<path d="M38.5521 171.346C39.3003 171.768 39.3003 172.45 38.5521 172.872C38.1327 173.08 37.6705 173.189 37.2019 173.189C36.7333 173.189 36.2711 173.08 35.8518 172.872C35.6948 172.815 35.5591 172.711 35.4632 172.575C35.3674 172.438 35.3159 172.276 35.3159 172.109C35.3159 171.942 35.3674 171.78 35.4632 171.643C35.5591 171.507 35.6948 171.403 35.8518 171.346C36.2662 171.121 36.7303 171.004 37.2019 171.004C37.6735 171.004 38.1376 171.121 38.5521 171.346Z" fill="#16110D"/>
<path d="M45.5472 167.29C45.7161 167.339 45.8645 167.441 45.9701 167.582C46.0757 167.722 46.1328 167.893 46.1328 168.069C46.1328 168.244 46.0757 168.415 45.9701 168.556C45.8645 168.696 45.7161 168.799 45.5472 168.848C45.1336 169.056 44.6767 169.165 44.2133 169.165C43.75 169.165 43.2931 169.056 42.8794 168.848C42.7105 168.799 42.5621 168.696 42.4565 168.556C42.3509 168.415 42.2938 168.244 42.2938 168.069C42.2938 167.893 42.3509 167.722 42.4565 167.582C42.5621 167.441 42.7105 167.339 42.8794 167.29C43.2931 167.081 43.75 166.973 44.2133 166.973C44.6767 166.973 45.1336 167.081 45.5472 167.29Z" fill="#16110D"/>
<path d="M52.6068 163.264C53.355 163.686 53.355 164.368 52.6068 164.79C52.1931 164.998 51.7362 165.107 51.2729 165.107C50.8095 165.107 50.3527 164.998 49.939 164.79C49.1907 164.368 49.1907 163.686 49.939 163.264C50.3527 163.056 50.8095 162.947 51.2729 162.947C51.7362 162.947 52.1931 163.056 52.6068 163.264Z" fill="#16110D"/>
<path d="M59.6669 159.239C59.8211 159.303 59.9528 159.411 60.0454 159.55C60.1381 159.689 60.1875 159.852 60.1875 160.018C60.1875 160.185 60.1381 160.348 60.0454 160.487C59.9528 160.625 59.8211 160.733 59.6669 160.797C59.2476 161.006 58.7854 161.115 58.3168 161.115C57.8482 161.115 57.386 161.006 56.9667 160.797C56.7977 160.748 56.6493 160.646 56.5437 160.505C56.4381 160.365 56.3811 160.194 56.3811 160.018C56.3811 159.843 56.4381 159.672 56.5437 159.531C56.6493 159.391 56.7977 159.288 56.9667 159.239C57.386 159.03 57.8482 158.922 58.3168 158.922C58.7854 158.922 59.2476 159.03 59.6669 159.239Z" fill="#16110D"/>
<path d="M66.6966 155.181C67.4449 155.603 67.4449 156.284 66.6966 156.706C66.2773 156.915 65.8151 157.024 65.3465 157.024C64.8779 157.024 64.4157 156.915 63.9963 156.706C63.248 156.284 63.248 155.603 63.9963 155.181C64.4157 154.972 64.8779 154.863 65.3465 154.863C65.8151 154.863 66.2773 154.972 66.6966 155.181Z" fill="#16110D"/>
<path d="M73.7191 151.118C73.888 151.167 74.0364 151.27 74.142 151.41C74.2476 151.551 74.3047 151.722 74.3047 151.897C74.3047 152.073 74.2476 152.244 74.142 152.384C74.0364 152.525 73.888 152.627 73.7191 152.676C73.2997 152.885 72.8376 152.994 72.369 152.994C71.9004 152.994 71.4382 152.885 71.0188 152.676C70.8499 152.627 70.7014 152.525 70.5958 152.384C70.4903 152.244 70.4332 152.073 70.4332 151.897C70.4332 151.722 70.4903 151.551 70.5958 151.41C70.7014 151.27 70.8499 151.167 71.0188 151.118C71.4382 150.909 71.9004 150.801 72.369 150.801C72.8376 150.801 73.2997 150.909 73.7191 151.118Z" fill="#16110D"/>
<path d="M24.4974 171.346C25.2457 171.768 25.2457 172.45 24.4974 172.872C24.078 173.08 23.6158 173.189 23.1472 173.189C22.6786 173.189 22.2164 173.08 21.7971 172.872C21.0488 172.45 21.0488 171.768 21.7971 171.346C22.2116 171.121 22.6757 171.004 23.1472 171.004C23.6188 171.004 24.0829 171.121 24.4974 171.346Z" fill="#16110D"/>
<path d="M31.5238 167.29C31.6927 167.339 31.8411 167.442 31.9467 167.582C32.0523 167.723 32.1094 167.893 32.1094 168.069C32.1094 168.245 32.0523 168.416 31.9467 168.556C31.8411 168.697 31.6927 168.799 31.5238 168.848C31.1044 169.057 30.6422 169.166 30.1736 169.166C29.705 169.166 29.2428 169.057 28.8235 168.848C28.6545 168.799 28.5061 168.697 28.4006 168.556C28.295 168.416 28.2379 168.245 28.2379 168.069C28.2379 167.893 28.295 167.723 28.4006 167.582C28.5061 167.442 28.6545 167.339 28.8235 167.29C29.2428 167.081 29.705 166.973 30.1736 166.973C30.6422 166.973 31.1044 167.081 31.5238 167.29Z" fill="#16110D"/>
<path d="M38.5521 163.263C39.3003 163.685 39.3003 164.366 38.5521 164.788C38.1327 164.997 37.6705 165.106 37.2019 165.106C36.7333 165.106 36.2711 164.997 35.8518 164.788C35.6948 164.732 35.5591 164.628 35.4632 164.491C35.3674 164.355 35.3159 164.192 35.3159 164.025C35.3159 163.859 35.3674 163.696 35.4632 163.56C35.5591 163.423 35.6948 163.319 35.8518 163.263C36.2711 163.054 36.7333 162.945 37.2019 162.945C37.6705 162.945 38.1327 163.054 38.5521 163.263Z" fill="#16110D"/>
<path d="M45.5472 159.239C45.7161 159.288 45.8645 159.39 45.9701 159.531C46.0757 159.671 46.1328 159.842 46.1328 160.018C46.1328 160.193 46.0757 160.364 45.9701 160.505C45.8645 160.645 45.7161 160.748 45.5472 160.797C45.1336 161.005 44.6767 161.114 44.2133 161.114C43.75 161.114 43.2931 161.005 42.8794 160.797C42.7105 160.748 42.5621 160.645 42.4565 160.505C42.3509 160.364 42.2938 160.193 42.2938 160.018C42.2938 159.842 42.3509 159.671 42.4565 159.531C42.5621 159.39 42.7105 159.288 42.8794 159.239C43.2931 159.03 43.75 158.922 44.2133 158.922C44.6767 158.922 45.1336 159.03 45.5472 159.239Z" fill="#16110D"/>
<path d="M52.6068 155.18C53.355 155.602 53.355 156.284 52.6068 156.706C52.1931 156.914 51.7362 157.023 51.2729 157.023C50.8095 157.023 50.3527 156.914 49.939 156.706C49.1907 156.284 49.1907 155.602 49.939 155.18C50.3527 154.972 50.8095 154.863 51.2729 154.863C51.7362 154.863 52.1931 154.972 52.6068 155.18Z" fill="#16110D"/>
<path d="M59.6669 151.118C59.8211 151.182 59.9528 151.29 60.0454 151.429C60.1381 151.568 60.1875 151.731 60.1875 151.897C60.1875 152.064 60.1381 152.227 60.0454 152.365C59.9528 152.504 59.8211 152.612 59.6669 152.676C59.2476 152.885 58.7854 152.994 58.3168 152.994C57.8482 152.994 57.386 152.885 56.9667 152.676C56.7977 152.627 56.6493 152.525 56.5437 152.384C56.4381 152.244 56.3811 152.073 56.3811 151.897C56.3811 151.722 56.4381 151.551 56.5437 151.41C56.6493 151.27 56.7977 151.167 56.9667 151.118C57.386 150.909 57.8482 150.801 58.3168 150.801C58.7854 150.801 59.2476 150.909 59.6669 151.118Z" fill="#16110D"/>
<path d="M66.6966 147.095C67.4449 147.517 67.4449 148.198 66.6966 148.62C66.2821 148.845 65.818 148.962 65.3465 148.962C64.8749 148.962 64.4108 148.845 63.9963 148.62C63.248 148.198 63.248 147.517 63.9963 147.095C64.4157 146.886 64.8779 146.777 65.3465 146.777C65.8151 146.777 66.2773 146.886 66.6966 147.095Z" fill="#16110D"/>
<path d="M17.4717 167.29C17.6258 167.354 17.7575 167.462 17.8501 167.601C17.9428 167.74 17.9922 167.902 17.9922 168.069C17.9922 168.236 17.9428 168.399 17.8501 168.537C17.7575 168.676 17.6258 168.784 17.4717 168.848C17.0523 169.057 16.5901 169.166 16.1215 169.166C15.6529 169.166 15.1907 169.057 14.7714 168.848C14.6024 168.799 14.454 168.697 14.3484 168.556C14.2428 168.416 14.1858 168.245 14.1858 168.069C14.1858 167.893 14.2428 167.723 14.3484 167.582C14.454 167.442 14.6024 167.339 14.7714 167.29C15.1907 167.081 15.6529 166.973 16.1215 166.973C16.5901 166.973 17.0523 167.081 17.4717 167.29Z" fill="#16110D"/>
<path d="M24.4974 163.263C25.2457 163.685 25.2457 164.366 24.4974 164.788C24.078 164.997 23.6158 165.106 23.1472 165.106C22.6786 165.106 22.2164 164.997 21.7971 164.788C21.0488 164.366 21.0488 163.685 21.7971 163.263C22.2164 163.054 22.6786 162.945 23.1472 162.945C23.6158 162.945 24.078 163.054 24.4974 163.263Z" fill="#16110D"/>
<path d="M31.5238 159.239C31.6927 159.288 31.8411 159.391 31.9467 159.531C32.0523 159.672 32.1094 159.843 32.1094 160.018C32.1094 160.194 32.0523 160.365 31.9467 160.505C31.8411 160.646 31.6927 160.748 31.5238 160.797C31.1044 161.006 30.6422 161.115 30.1736 161.115C29.705 161.115 29.2428 161.006 28.8235 160.797C28.6545 160.748 28.5061 160.646 28.4006 160.505C28.295 160.365 28.2379 160.194 28.2379 160.018C28.2379 159.843 28.295 159.672 28.4006 159.531C28.5061 159.391 28.6545 159.288 28.8235 159.239C29.2428 159.03 29.705 158.922 30.1736 158.922C30.6422 158.922 31.1044 159.03 31.5238 159.239Z" fill="#16110D"/>
<path d="M38.5521 155.181C39.3003 155.603 39.3003 156.284 38.5521 156.706C38.1327 156.915 37.6705 157.024 37.2019 157.024C36.7333 157.024 36.2711 156.915 35.8518 156.706C35.6948 156.65 35.5591 156.546 35.4632 156.409C35.3674 156.273 35.3159 156.11 35.3159 155.943C35.3159 155.777 35.3674 155.614 35.4632 155.478C35.5591 155.341 35.6948 155.237 35.8518 155.181C36.2711 154.972 36.7333 154.863 37.2019 154.863C37.6705 154.863 38.1327 154.972 38.5521 155.181Z" fill="#16110D"/>
<path d="M45.5472 151.122C45.7161 151.171 45.8645 151.273 45.9701 151.414C46.0757 151.554 46.1328 151.725 46.1328 151.901C46.1328 152.076 46.0757 152.247 45.9701 152.388C45.8645 152.528 45.7161 152.631 45.5472 152.68C45.1336 152.888 44.6767 152.997 44.2133 152.997C43.75 152.997 43.2931 152.888 42.8794 152.68C42.7105 152.631 42.5621 152.528 42.4565 152.388C42.3509 152.247 42.2938 152.076 42.2938 151.901C42.2938 151.725 42.3509 151.554 42.4565 151.414C42.5621 151.273 42.7105 151.171 42.8794 151.122C43.2931 150.913 43.75 150.805 44.2133 150.805C44.6767 150.805 45.1336 150.913 45.5472 151.122Z" fill="#16110D"/>
<path d="M52.6068 147.098C53.355 147.52 53.355 148.202 52.6068 148.624C52.1982 148.848 51.7393 148.966 51.2729 148.966C50.8065 148.966 50.3476 148.848 49.939 148.624C49.1907 148.202 49.1907 147.52 49.939 147.098C50.3527 146.89 50.8095 146.781 51.2729 146.781C51.7362 146.781 52.1931 146.89 52.6068 147.098Z" fill="#16110D"/>
<path d="M59.6669 143.005C59.8211 143.069 59.9528 143.177 60.0454 143.316C60.1381 143.454 60.1875 143.617 60.1875 143.784C60.1875 143.951 60.1381 144.113 60.0454 144.252C59.9528 144.391 59.8211 144.499 59.6669 144.563C59.2476 144.772 58.7854 144.88 58.3168 144.88C57.8482 144.88 57.386 144.772 56.9667 144.563C56.7977 144.514 56.6493 144.411 56.5437 144.271C56.4381 144.13 56.3811 143.96 56.3811 143.784C56.3811 143.608 56.4381 143.437 56.5437 143.297C56.6493 143.156 56.7977 143.054 56.9667 143.005C57.386 142.796 57.8482 142.688 58.3168 142.688C58.7854 142.688 59.2476 142.796 59.6669 143.005Z" fill="#16110D"/>
<path d="M10.4115 163.264C11.1597 163.686 11.1597 164.368 10.4115 164.79C9.9978 164.998 9.54094 165.107 9.07759 165.107C8.61425 165.107 8.15736 164.998 7.74371 164.79C6.99544 164.368 6.99544 163.686 7.74371 163.264C8.15736 163.056 8.61425 162.947 9.07759 162.947C9.54094 162.947 9.9978 163.056 10.4115 163.264Z" fill="#16110D"/>
<path d="M16.1052 161.086C15.0631 161.086 14.2183 160.592 14.2183 159.983C14.2183 159.373 15.0631 158.879 16.1052 158.879C17.1474 158.879 17.9922 159.373 17.9922 159.983C17.9922 160.592 17.1474 161.086 16.1052 161.086Z" fill="#16110D"/>
<path d="M24.4974 155.181C25.2457 155.603 25.2457 156.284 24.4974 156.706C24.078 156.915 23.6158 157.024 23.1472 157.024C22.6786 157.024 22.2164 156.915 21.7971 156.706C21.0488 156.284 21.0488 155.603 21.7971 155.181C22.2164 154.972 22.6786 154.863 23.1472 154.863C23.6158 154.863 24.078 154.972 24.4974 155.181Z" fill="#16110D"/>
<path d="M31.5238 151.118C31.6927 151.167 31.8411 151.27 31.9467 151.41C32.0523 151.551 32.1094 151.722 32.1094 151.897C32.1094 152.073 32.0523 152.244 31.9467 152.384C31.8411 152.525 31.6927 152.627 31.5238 152.676C31.1044 152.885 30.6422 152.994 30.1736 152.994C29.705 152.994 29.2428 152.885 28.8235 152.676C28.6545 152.627 28.5061 152.525 28.4006 152.384C28.295 152.244 28.2379 152.073 28.2379 151.897C28.2379 151.722 28.295 151.551 28.4006 151.41C28.5061 151.27 28.6545 151.167 28.8235 151.118C29.2428 150.909 29.705 150.801 30.1736 150.801C30.6422 150.801 31.1044 150.909 31.5238 151.118Z" fill="#16110D"/>
<path d="M38.5521 147.095C39.3003 147.517 39.3003 148.198 38.5521 148.62C38.1376 148.845 37.6735 148.962 37.2019 148.962C36.7303 148.962 36.2662 148.845 35.8518 148.62C35.6948 148.564 35.5591 148.46 35.4632 148.323C35.3674 148.187 35.3159 148.024 35.3159 147.858C35.3159 147.691 35.3674 147.528 35.4632 147.392C35.5591 147.255 35.6948 147.151 35.8518 147.095C36.2711 146.886 36.7333 146.777 37.2019 146.777C37.6705 146.777 38.1327 146.886 38.5521 147.095Z" fill="#16110D"/>
<path d="M45.5472 143.004C45.7161 143.054 45.8645 143.156 45.9701 143.297C46.0757 143.437 46.1328 143.608 46.1328 143.783C46.1328 143.959 46.0757 144.13 45.9701 144.27C45.8645 144.411 45.7161 144.513 45.5472 144.563C45.1336 144.771 44.6767 144.879 44.2133 144.879C43.75 144.879 43.2931 144.771 42.8794 144.563C42.7105 144.513 42.5621 144.411 42.4565 144.27C42.3509 144.13 42.2938 143.959 42.2938 143.783C42.2938 143.608 42.3509 143.437 42.4565 143.297C42.5621 143.156 42.7105 143.054 42.8794 143.004C43.2931 142.796 43.75 142.688 44.2133 142.688C44.6767 142.688 45.1336 142.796 45.5472 143.004Z" fill="#16110D"/>
<path d="M3.25424 159.239C3.42318 159.288 3.57158 159.39 3.67717 159.531C3.78276 159.671 3.83984 159.842 3.83984 160.018C3.83984 160.193 3.78276 160.364 3.67717 160.505C3.57158 160.645 3.42318 160.748 3.25424 160.797C2.84059 161.005 2.38371 161.114 1.92036 161.114C1.45702 161.114 1.00016 161.005 0.586512 160.797C0.41757 160.748 0.269176 160.645 0.163588 160.505C0.0579991 160.364 0.000910997 160.193 0.000910997 160.018C0.000910997 159.842 0.0579991 159.671 0.163588 159.531C0.269176 159.39 0.41757 159.288 0.586512 159.239C1.00016 159.03 1.45702 158.922 1.92036 158.922C2.38371 158.922 2.84059 159.03 3.25424 159.239Z" fill="#16110D"/>
<path d="M10.4115 155.18C11.1597 155.602 11.1597 156.284 10.4115 156.706C9.9978 156.914 9.54094 157.023 9.07759 157.023C8.61425 157.023 8.15736 156.914 7.74371 156.706C6.99544 156.284 6.99544 155.602 7.74371 155.18C8.15736 154.972 8.61425 154.863 9.07759 154.863C9.54094 154.863 9.9978 154.972 10.4115 155.18Z" fill="#16110D"/>
<path d="M17.4717 151.118C17.6258 151.182 17.7575 151.29 17.8501 151.429C17.9428 151.568 17.9922 151.731 17.9922 151.897C17.9922 152.064 17.9428 152.227 17.8501 152.365C17.7575 152.504 17.6258 152.612 17.4717 152.676C17.0523 152.885 16.5901 152.994 16.1215 152.994C15.6529 152.994 15.1907 152.885 14.7714 152.676C14.6024 152.627 14.454 152.525 14.3484 152.384C14.2428 152.244 14.1858 152.073 14.1858 151.897C14.1858 151.722 14.2428 151.551 14.3484 151.41C14.454 151.27 14.6024 151.167 14.7714 151.118C15.1907 150.909 15.6529 150.801 16.1215 150.801C16.5901 150.801 17.0523 150.909 17.4717 151.118Z" fill="#16110D"/>
<path d="M24.4974 147.095C25.2457 147.517 25.2457 148.198 24.4974 148.62C24.0829 148.845 23.6188 148.962 23.1472 148.962C22.6757 148.962 22.2116 148.845 21.7971 148.62C21.0488 148.198 21.0488 147.517 21.7971 147.095C22.2164 146.886 22.6786 146.777 23.1472 146.777C23.6158 146.777 24.078 146.886 24.4974 147.095Z" fill="#16110D"/>
<path d="M31.5238 143.005C31.6927 143.054 31.8411 143.156 31.9467 143.297C32.0523 143.437 32.1094 143.608 32.1094 143.784C32.1094 143.96 32.0523 144.13 31.9467 144.271C31.8411 144.411 31.6927 144.514 31.5238 144.563C31.1044 144.772 30.6422 144.88 30.1736 144.88C29.705 144.88 29.2428 144.772 28.8235 144.563C28.6545 144.514 28.5061 144.411 28.4006 144.271C28.295 144.13 28.2379 143.96 28.2379 143.784C28.2379 143.608 28.295 143.437 28.4006 143.297C28.5061 143.156 28.6545 143.054 28.8235 143.005C29.2428 142.796 29.705 142.688 30.1736 142.688C30.6422 142.688 31.1044 142.796 31.5238 143.005Z" fill="#16110D"/>
<path d="M38.5521 139.013C39.3003 139.435 39.3003 140.116 38.5521 140.538C38.1376 140.763 37.6735 140.88 37.2019 140.88C36.7303 140.88 36.2662 140.763 35.8518 140.538C35.6948 140.482 35.5591 140.378 35.4632 140.241C35.3674 140.105 35.3159 139.942 35.3159 139.775C35.3159 139.609 35.3674 139.446 35.4632 139.31C35.5591 139.173 35.6948 139.069 35.8518 139.013C36.2711 138.804 36.7333 138.695 37.2019 138.695C37.6705 138.695 38.1327 138.804 38.5521 139.013Z" fill="#16110D"/>
<path d="M3.25424 151.122C3.42318 151.171 3.57158 151.273 3.67717 151.414C3.78276 151.554 3.83984 151.725 3.83984 151.901C3.83984 152.076 3.78276 152.247 3.67717 152.388C3.57158 152.528 3.42318 152.631 3.25424 152.68C2.84059 152.888 2.38371 152.997 1.92036 152.997C1.45702 152.997 1.00016 152.888 0.586512 152.68C0.41757 152.631 0.269176 152.528 0.163588 152.388C0.0579991 152.247 0.000910997 152.076 0.000910997 151.901C0.000910997 151.725 0.0579991 151.554 0.163588 151.414C0.269176 151.273 0.41757 151.171 0.586512 151.122C1.00016 150.913 1.45702 150.805 1.92036 150.805C2.38371 150.805 2.84059 150.913 3.25424 151.122Z" fill="#16110D"/>
<path d="M10.4115 147.098C11.1597 147.52 11.1597 148.202 10.4115 148.624C10.0029 148.848 9.54403 148.966 9.07759 148.966C8.61116 148.966 8.15229 148.848 7.74371 148.624C6.99544 148.202 6.99544 147.52 7.74371 147.098C8.15736 146.89 8.61425 146.781 9.07759 146.781C9.54094 146.781 9.9978 146.89 10.4115 147.098Z" fill="#16110D"/>
<path d="M17.4717 143.005C17.6258 143.069 17.7575 143.177 17.8501 143.316C17.9428 143.454 17.9922 143.617 17.9922 143.784C17.9922 143.951 17.9428 144.113 17.8501 144.252C17.7575 144.391 17.6258 144.499 17.4717 144.563C17.0523 144.772 16.5901 144.88 16.1215 144.88C15.6529 144.88 15.1907 144.772 14.7714 144.563C14.6024 144.514 14.454 144.411 14.3484 144.271C14.2428 144.13 14.1858 143.96 14.1858 143.784C14.1858 143.608 14.2428 143.437 14.3484 143.297C14.454 143.156 14.6024 143.054 14.7714 143.005C15.1907 142.796 15.6529 142.688 16.1215 142.688C16.5901 142.688 17.0523 142.796 17.4717 143.005Z" fill="#16110D"/>
<path d="M24.4974 139.013C25.2457 139.435 25.2457 140.116 24.4974 140.538C24.0829 140.763 23.6188 140.88 23.1472 140.88C22.6757 140.88 22.2116 140.763 21.7971 140.538C21.0488 140.116 21.0488 139.435 21.7971 139.013C22.2164 138.804 22.6786 138.695 23.1472 138.695C23.6158 138.695 24.078 138.804 24.4974 139.013Z" fill="#16110D"/>
<path d="M31.5247 134.954C32.273 135.408 32.273 136.09 31.5247 136.512C31.1054 136.721 30.6432 136.83 30.1746 136.83C29.706 136.83 29.2438 136.721 28.8244 136.512C28.0761 136.09 28.0761 135.408 28.8244 134.954C29.2438 134.745 29.706 134.637 30.1746 134.637C30.6432 134.637 31.1054 134.745 31.5247 134.954Z" fill="#16110D"/>
<path d="M3.25424 143.004C3.42318 143.054 3.57158 143.156 3.67717 143.297C3.78276 143.437 3.83984 143.608 3.83984 143.783C3.83984 143.959 3.78276 144.13 3.67717 144.27C3.57158 144.411 3.42318 144.513 3.25424 144.563C2.84059 144.771 2.38371 144.879 1.92036 144.879C1.45702 144.879 1.00016 144.771 0.586512 144.563C0.41757 144.513 0.269176 144.411 0.163588 144.27C0.0579991 144.13 0.000910997 143.959 0.000910997 143.783C0.000910997 143.608 0.0579991 143.437 0.163588 143.297C0.269176 143.156 0.41757 143.054 0.586512 143.004C1.00016 142.796 1.45702 142.688 1.92036 142.688C2.38371 142.688 2.84059 142.796 3.25424 143.004Z" fill="#16110D"/>
<path d="M9.07789 140.895C8.03575 140.895 7.19093 140.401 7.19093 139.791C7.19093 139.182 8.03575 138.688 9.07789 138.688C10.12 138.688 10.9648 139.182 10.9648 139.791C10.9648 140.401 10.12 140.895 9.07789 140.895Z" fill="#16110D"/>
<path d="M17.471 134.954C18.1867 135.408 18.1867 136.09 17.471 136.512C17.0517 136.721 16.5895 136.83 16.1209 136.83C15.6523 136.83 15.1901 136.721 14.7707 136.512C14.0224 136.09 14.0224 135.408 14.7707 134.954C15.1901 134.745 15.6523 134.637 16.1209 134.637C16.5895 134.637 17.0517 134.745 17.471 134.954Z" fill="#16110D"/>
<path d="M24.4974 130.927C25.2457 131.349 25.2457 132.03 24.4974 132.485C24.078 132.694 23.6158 132.802 23.1472 132.802C22.6786 132.802 22.2164 132.694 21.7971 132.485C21.0488 132.03 21.0488 131.349 21.7971 130.927C22.2164 130.718 22.6786 130.609 23.1472 130.609C23.6158 130.609 24.078 130.718 24.4974 130.927Z" fill="#16110D"/>
<path d="M115.949 167.386C116.106 167.443 116.241 167.546 116.337 167.683C116.433 167.819 116.484 167.982 116.484 168.149C116.484 168.315 116.433 168.478 116.337 168.614C116.241 168.751 116.106 168.855 115.949 168.911C115.529 169.12 115.067 169.229 114.598 169.229C114.13 169.229 113.668 169.12 113.248 168.911C112.5 168.489 112.5 167.808 113.248 167.386C113.668 167.177 114.13 167.068 114.598 167.068C115.067 167.068 115.529 167.177 115.949 167.386Z" fill="#16110D"/>
<path d="M122.977 163.329C123.146 163.378 123.294 163.481 123.4 163.621C123.505 163.762 123.563 163.933 123.562 164.108C123.562 164.284 123.505 164.455 123.4 164.595C123.294 164.736 123.146 164.838 122.977 164.887C122.558 165.096 122.095 165.205 121.627 165.205C121.158 165.205 120.696 165.096 120.277 164.887C120.108 164.838 119.959 164.736 119.854 164.595C119.748 164.455 119.691 164.284 119.691 164.108C119.691 163.933 119.748 163.762 119.854 163.621C119.959 163.481 120.108 163.378 120.277 163.329C120.696 163.12 121.158 163.012 121.627 163.012C122.095 163.012 122.558 163.12 122.977 163.329Z" fill="#16110D"/>
<path d="M130.134 159.239C130.882 159.661 130.882 160.343 130.134 160.765C129.72 160.989 129.256 161.107 128.784 161.107C128.312 161.107 127.848 160.989 127.434 160.765C126.686 160.343 126.686 159.661 127.434 159.239C127.853 159.03 128.315 158.922 128.784 158.922C129.253 158.922 129.715 159.03 130.134 159.239Z" fill="#16110D"/>
<path d="M137.032 155.245C137.201 155.294 137.349 155.397 137.455 155.537C137.56 155.678 137.617 155.849 137.617 156.024C137.617 156.2 137.56 156.371 137.455 156.511C137.349 156.652 137.201 156.754 137.032 156.803C136.612 157.012 136.15 157.121 135.681 157.121C135.213 157.121 134.751 157.012 134.331 156.803C134.177 156.739 134.045 156.631 133.953 156.492C133.86 156.354 133.811 156.191 133.811 156.024C133.811 155.858 133.86 155.695 133.953 155.556C134.045 155.417 134.177 155.309 134.331 155.245C134.751 155.036 135.213 154.928 135.681 154.928C136.15 154.928 136.612 155.036 137.032 155.245Z" fill="#16110D"/>
<path d="M108.891 163.329C109.06 163.378 109.208 163.48 109.314 163.621C109.419 163.761 109.477 163.932 109.477 164.108C109.477 164.283 109.419 164.454 109.314 164.595C109.208 164.735 109.06 164.838 108.891 164.887C108.477 165.095 108.02 165.204 107.557 165.204C107.094 165.204 106.637 165.095 106.223 164.887C106.054 164.838 105.906 164.735 105.8 164.595C105.695 164.454 105.638 164.283 105.638 164.108C105.638 163.932 105.695 163.761 105.8 163.621C105.906 163.48 106.054 163.378 106.223 163.329C106.637 163.12 107.094 163.012 107.557 163.012C108.02 163.012 108.477 163.12 108.891 163.329Z" fill="#16110D"/>
<path d="M115.949 159.239C116.106 159.296 116.241 159.4 116.337 159.536C116.433 159.673 116.484 159.835 116.484 160.002C116.484 160.169 116.433 160.331 116.337 160.468C116.241 160.604 116.106 160.708 115.949 160.765C115.534 160.989 115.07 161.107 114.598 161.107C114.127 161.107 113.663 160.989 113.248 160.765C112.5 160.343 112.5 159.661 113.248 159.239C113.668 159.03 114.13 158.922 114.598 158.922C115.067 158.922 115.529 159.03 115.949 159.239Z" fill="#16110D"/>
<path d="M122.977 155.245C123.146 155.294 123.294 155.397 123.4 155.537C123.505 155.678 123.563 155.849 123.562 156.024C123.562 156.2 123.505 156.371 123.4 156.511C123.294 156.652 123.146 156.754 122.977 156.803C122.558 157.012 122.095 157.121 121.627 157.121C121.158 157.121 120.696 157.012 120.277 156.803C120.108 156.754 119.959 156.652 119.854 156.511C119.748 156.371 119.691 156.2 119.691 156.024C119.691 155.849 119.748 155.678 119.854 155.537C119.959 155.397 120.108 155.294 120.277 155.245C120.696 155.036 121.158 154.928 121.627 154.928C122.095 154.928 122.558 155.036 122.977 155.245Z" fill="#16110D"/>
<path d="M130.134 151.22C130.882 151.642 130.882 152.323 130.134 152.745C129.72 152.97 129.256 153.088 128.784 153.088C128.312 153.088 127.848 152.97 127.434 152.745C126.686 152.323 126.686 151.642 127.434 151.22C127.853 151.011 128.315 150.902 128.784 150.902C129.253 150.902 129.715 151.011 130.134 151.22Z" fill="#16110D"/>
<path d="M137.033 147.161C137.781 147.616 137.781 148.297 137.033 148.719C136.613 148.928 136.151 149.037 135.682 149.037C135.214 149.037 134.752 148.928 134.332 148.719C133.617 148.297 133.617 147.616 134.332 147.161C134.752 146.952 135.214 146.844 135.682 146.844C136.151 146.844 136.613 146.952 137.033 147.161Z" fill="#16110D"/>
<path d="M101.861 159.239C102.609 159.661 102.609 160.343 101.861 160.765C101.452 160.989 100.993 161.107 100.527 161.107C100.06 161.107 99.6015 160.989 99.1929 160.765C98.4446 160.343 98.4446 159.661 99.1929 159.239C99.6066 159.03 100.063 158.922 100.527 158.922C100.99 158.922 101.447 159.03 101.861 159.239Z" fill="#16110D"/>
<path d="M108.891 155.245C109.06 155.294 109.208 155.396 109.314 155.537C109.419 155.677 109.477 155.848 109.477 156.024C109.477 156.199 109.419 156.37 109.314 156.511C109.208 156.651 109.06 156.754 108.891 156.803C108.477 157.011 108.02 157.12 107.557 157.12C107.094 157.12 106.637 157.011 106.223 156.803C106.054 156.754 105.906 156.651 105.8 156.511C105.695 156.37 105.638 156.199 105.638 156.024C105.638 155.848 105.695 155.677 105.8 155.537C105.906 155.396 106.054 155.294 106.223 155.245C106.637 155.036 107.094 154.928 107.557 154.928C108.02 154.928 108.477 155.036 108.891 155.245Z" fill="#16110D"/>
<path d="M115.949 151.22C116.106 151.276 116.241 151.38 116.337 151.517C116.433 151.653 116.484 151.816 116.484 151.983C116.484 152.149 116.433 152.312 116.337 152.448C116.241 152.585 116.106 152.689 115.949 152.745C115.534 152.97 115.07 153.088 114.598 153.088C114.127 153.088 113.663 152.97 113.248 152.745C112.5 152.323 112.5 151.642 113.248 151.22C113.668 151.011 114.13 150.902 114.598 150.902C115.067 150.902 115.529 151.011 115.949 151.22Z" fill="#16110D"/>
<path d="M122.978 147.161C123.726 147.616 123.726 148.297 122.978 148.719C122.558 148.928 122.096 149.037 121.628 149.037C121.159 149.037 120.697 148.928 120.278 148.719C119.529 148.297 119.529 147.616 120.278 147.161C120.697 146.952 121.159 146.844 121.628 146.844C122.096 146.844 122.558 146.952 122.978 147.161Z" fill="#16110D"/>
<path d="M130.134 143.005C130.882 143.427 130.882 144.109 130.134 144.563C129.715 144.772 129.253 144.88 128.784 144.88C128.315 144.88 127.853 144.772 127.434 144.563C126.686 144.109 126.686 143.427 127.434 143.005C127.853 142.796 128.315 142.688 128.784 142.688C129.253 142.688 129.715 142.796 130.134 143.005Z" fill="#16110D"/>
<path d="M137.033 139.079C137.781 139.533 137.781 140.215 137.033 140.637C136.613 140.846 136.151 140.955 135.682 140.955C135.214 140.955 134.752 140.846 134.332 140.637C133.617 140.215 133.617 139.533 134.332 139.079C134.752 138.87 135.214 138.762 135.682 138.762C136.151 138.762 136.613 138.87 137.033 139.079Z" fill="#16110D"/>
<path d="M94.8363 155.245C95.0052 155.294 95.1536 155.397 95.2592 155.537C95.3648 155.678 95.4219 155.849 95.4219 156.024C95.4219 156.2 95.3648 156.371 95.2592 156.511C95.1536 156.652 95.0052 156.754 94.8363 156.803C94.4169 157.012 93.9547 157.121 93.4861 157.121C93.0175 157.121 92.5553 157.012 92.136 156.803C91.9818 156.739 91.8501 156.631 91.7575 156.492C91.6649 156.354 91.6154 156.191 91.6154 156.024C91.6154 155.858 91.6649 155.695 91.7575 155.556C91.8501 155.417 91.9818 155.309 92.136 155.245C92.5553 155.036 93.0175 154.928 93.4861 154.928C93.9547 154.928 94.4169 155.036 94.8363 155.245Z" fill="#16110D"/>
<path d="M101.861 151.219C102.609 151.641 102.609 152.323 101.861 152.745C101.452 152.97 100.993 153.087 100.527 153.087C100.06 153.087 99.6015 152.97 99.1929 152.745C98.4446 152.323 98.4446 151.641 99.1929 151.219C99.6066 151.011 100.063 150.902 100.527 150.902C100.99 150.902 101.447 151.011 101.861 151.219Z" fill="#16110D"/>
<path d="M107.558 149.077C106.516 149.077 105.671 148.583 105.671 147.973C105.671 147.363 106.516 146.869 107.558 146.869C108.6 146.869 109.445 147.363 109.445 147.973C109.445 148.583 108.6 149.077 107.558 149.077Z" fill="#16110D"/>
<path d="M115.948 143.005C116.663 143.427 116.663 144.109 115.948 144.563C115.528 144.772 115.066 144.88 114.597 144.88C114.129 144.88 113.667 144.772 113.247 144.563C112.499 144.109 112.499 143.427 113.247 143.005C113.667 142.796 114.129 142.688 114.597 142.688C115.066 142.688 115.528 142.796 115.948 143.005Z" fill="#16110D"/>
<path d="M122.978 139.079C123.726 139.533 123.726 140.215 122.978 140.637C122.558 140.846 122.096 140.955 121.628 140.955C121.159 140.955 120.697 140.846 120.278 140.637C119.529 140.215 119.529 139.533 120.278 139.079C120.697 138.87 121.159 138.762 121.628 138.762C122.096 138.762 122.558 138.87 122.978 139.079Z" fill="#16110D"/>
<path d="M130.134 135.052C130.882 135.474 130.882 136.155 130.134 136.61C129.715 136.819 129.253 136.927 128.784 136.927C128.315 136.927 127.853 136.819 127.434 136.61C126.686 136.155 126.686 135.474 127.434 135.052C127.853 134.843 128.315 134.734 128.784 134.734C129.253 134.734 129.715 134.843 130.134 135.052Z" fill="#16110D"/>
<path d="M87.8411 151.186C88.5894 151.608 88.5894 152.29 87.8411 152.712C87.4218 152.92 86.9596 153.029 86.491 153.029C86.0224 153.029 85.5602 152.92 85.1408 152.712C84.9838 152.655 84.8482 152.551 84.7523 152.415C84.6564 152.278 84.605 152.115 84.605 151.949C84.605 151.782 84.6564 151.619 84.7523 151.483C84.8482 151.346 84.9838 151.243 85.1408 151.186C85.5553 150.961 86.0194 150.844 86.491 150.844C86.9626 150.844 87.4267 150.961 87.8411 151.186Z" fill="#16110D"/>
<path d="M94.7699 147.129C94.9388 147.179 95.0872 147.281 95.1928 147.422C95.2984 147.562 95.3555 147.733 95.3555 147.908C95.3555 148.084 95.2984 148.255 95.1928 148.395C95.0872 148.536 94.9388 148.638 94.7699 148.688C94.3562 148.896 93.8993 149.004 93.436 149.004C92.9726 149.004 92.5157 148.896 92.1021 148.688C91.9331 148.638 91.7848 148.536 91.6792 148.395C91.5736 148.255 91.5165 148.084 91.5165 147.908C91.5165 147.733 91.5736 147.562 91.6792 147.422C91.7848 147.281 91.9331 147.179 92.1021 147.129C92.5157 146.921 92.9726 146.812 93.436 146.812C93.8993 146.812 94.3562 146.921 94.7699 147.129Z" fill="#16110D"/>
<path d="M101.798 143.006C102.546 143.428 102.546 144.11 101.798 144.532C101.385 144.74 100.928 144.849 100.464 144.849C100.001 144.849 99.5441 144.74 99.1304 144.532C98.3821 144.11 98.3821 143.428 99.1304 143.006C99.539 142.782 99.9978 142.664 100.464 142.664C100.931 142.664 101.39 142.782 101.798 143.006Z" fill="#16110D"/>
<path d="M108.854 139.044C109.009 139.108 109.14 139.216 109.233 139.355C109.326 139.493 109.375 139.656 109.375 139.823C109.375 139.99 109.326 140.153 109.233 140.291C109.14 140.43 109.009 140.538 108.854 140.602C108.435 140.811 107.973 140.919 107.504 140.919C107.036 140.919 106.574 140.811 106.154 140.602C105.985 140.553 105.837 140.45 105.731 140.31C105.626 140.169 105.569 139.999 105.569 139.823C105.569 139.647 105.626 139.477 105.731 139.336C105.837 139.196 105.985 139.093 106.154 139.044C106.574 138.835 107.036 138.727 107.504 138.727C107.973 138.727 108.435 138.835 108.854 139.044Z" fill="#16110D"/>
<path d="M113.184 135.02C113.603 134.812 114.065 134.703 114.534 134.703C115.003 134.703 115.465 134.812 115.884 135.02C116.632 135.442 116.632 136.124 115.884 136.546C115.465 136.755 115.003 136.863 114.534 136.863C114.065 136.863 113.603 136.755 113.184 136.546C112.436 136.124 112.436 135.442 113.184 135.02Z" fill="#16110D"/>
<path d="M122.91 130.962C123.079 131.012 123.228 131.114 123.333 131.255C123.439 131.395 123.496 131.566 123.496 131.742C123.496 131.917 123.439 132.088 123.333 132.229C123.228 132.369 123.079 132.472 122.91 132.521C122.491 132.729 122.029 132.838 121.56 132.838C121.092 132.838 120.63 132.729 120.21 132.521C119.462 132.099 122.162 130.54 122.91 130.962Z" fill="#16110D"/>
<path d="M80.7152 147.126C80.8841 147.175 81.0325 147.278 81.1381 147.418C81.2437 147.559 81.3008 147.729 81.3008 147.905C81.3008 148.081 81.2437 148.251 81.1381 148.392C81.0325 148.532 80.8841 148.635 80.7152 148.684C80.2958 148.893 79.8336 149.001 79.365 149.001C78.8964 149.001 78.4343 148.893 78.0149 148.684C77.846 148.635 77.6975 148.532 77.5919 148.392C77.4864 148.251 77.4293 148.081 77.4293 147.905C77.4293 147.729 77.4864 147.559 77.5919 147.418C77.6975 147.278 77.846 147.175 78.0149 147.126C78.4343 146.917 78.8964 146.809 79.365 146.809C79.8336 146.809 80.2958 146.917 80.7152 147.126Z" fill="#16110D"/>
<path d="M87.8411 143.006C88.5894 143.428 88.5894 144.11 87.8411 144.532C87.4218 144.741 86.9596 144.849 86.491 144.849C86.0224 144.849 85.5602 144.741 85.1408 144.532C84.9838 144.475 84.8482 144.371 84.7523 144.235C84.6564 144.098 84.605 143.936 84.605 143.769C84.605 143.602 84.6564 143.44 84.7523 143.303C84.8482 143.167 84.9838 143.063 85.1408 143.006C85.5553 142.782 86.0194 142.664 86.491 142.664C86.9626 142.664 87.4267 142.782 87.8411 143.006Z" fill="#16110D"/>
<path d="M73.6888 143.006C74.4371 143.428 74.4371 144.11 73.6888 144.532C73.2694 144.741 72.8072 144.849 72.3386 144.849C71.87 144.849 71.4078 144.741 70.9885 144.532C70.2402 144.11 70.2402 143.428 70.9885 143.006C71.403 142.782 71.8671 142.664 72.3386 142.664C72.8102 142.664 73.2743 142.782 73.6888 143.006Z" fill="#16110D"/>
<path d="M9.75943 130.02V129.695V113.56L17.4374 113.787C20.2423 110.944 23.4153 108.488 26.8721 106.483C49.906 92.9129 87.4498 92.5883 110.711 105.704C114.242 107.637 117.492 110.039 120.374 112.846H128.247V128.559C128.898 137.681 123.172 146.966 111.134 154.076C88.1005 167.613 50.5567 167.97 27.2951 154.822C15.16 147.907 9.33649 139.045 9.75943 130.02Z" fill="#FFBE2E"/>
<path d="M16.8196 112.262C19.5785 109.527 22.6719 107.149 26.0267 105.185C49.516 91.3877 87.8407 91.0631 111.46 104.373C114.887 106.281 118.058 108.616 120.895 111.321H129.646V128.494C130.33 138.493 123.823 148.298 111.785 155.407C88.3612 169.172 49.9715 169.529 26.4171 156.186C20.9827 153.298 16.2513 149.253 12.5577 144.337C9.56123 140.18 8.05946 135.135 8.29581 130.02V112.003L16.8196 112.262ZM126.881 128.494V114.308H119.919L119.463 113.853C116.709 111.153 113.601 108.838 110.224 106.971C87.4502 93.9849 50.492 94.4393 27.9136 107.717L26.352 108.691L63.9935 132.585L66.1082 162.809C72.514 162.976 78.9209 162.52 85.238 161.446L83.839 146.285L96.0391 143.525L97.4056 158.426C101.941 156.992 106.305 155.065 110.419 152.68C121.415 146.252 127.369 137.422 126.881 128.494Z" fill="#16110D"/>
<path d="M26.7138 89.5689C3.71252 103.107 3.94025 124.728 27.1693 137.843C50.3983 150.959 87.8446 150.634 111.009 137.064C134.173 123.494 133.782 101.905 110.553 88.7898C87.3241 75.6742 49.7477 75.9989 26.7138 89.5689Z" fill="#FFBE2E"/>
<path d="M12.6237 127.326C16.2891 132.243 20.9999 136.29 26.418 139.176C50.07 152.518 88.232 152.161 111.786 138.396C123.401 131.546 129.745 122.456 129.647 112.75C129.55 103.043 123.141 94.0827 111.298 87.46C87.6464 74.1171 49.4844 74.4742 25.9625 88.2391C14.3155 95.0891 7.9714 104.179 8.069 113.886C8.15722 118.728 9.74856 123.424 12.6237 127.326ZM122.62 101.063C125.124 104.469 126.521 108.559 126.622 112.782C126.622 121.353 120.863 129.501 110.355 135.767C87.7765 149.045 50.8833 149.402 28.0447 136.514C17.3086 130.475 11.3223 122.392 11.2573 113.789C11.1922 105.185 16.9832 97.0694 27.5241 90.8038C50.1025 77.5259 87.0282 77.1688 109.834 90.0246C114.857 92.7217 119.223 96.4904 122.62 101.063Z" fill="#16110D"/>
<path d="M34.1938 97.1981C17.9269 106.937 17.9269 122.261 34.5191 131.643C51.1113 141.025 77.8865 140.733 94.3485 131.091C110.811 121.449 110.615 105.996 94.0557 96.6462C77.4961 87.2965 50.6233 87.5238 34.1938 97.1981Z" fill="#FFEECC"/>
<path d="M28.174 120.899C30.823 124.47 34.2346 127.409 38.1618 129.502C55.1444 139.242 82.6354 138.82 99.4553 128.918C107.882 123.951 112.469 117.328 112.469 110.251C112.469 103.174 107.686 96.6486 99.1625 91.8438C82.1799 82.2669 54.6889 82.5266 37.869 92.4282C29.4428 97.3952 24.8556 104.018 24.8556 111.063C24.9206 114.604 26.0795 118.04 28.174 120.899ZM106.58 102.167C108.326 104.522 109.303 107.356 109.378 110.284C109.378 116.225 105.344 121.906 97.8937 126.288C81.9196 135.703 55.7951 136.028 39.6584 126.84C32.1106 122.588 27.9463 117.101 27.8812 111.03C27.8161 104.959 31.9154 99.4405 39.3656 95.0253C55.3071 85.6432 81.334 85.4159 97.6009 94.5059C101.124 96.3671 104.19 98.9836 106.58 102.167Z" fill="#16110D"/>
<path d="M50.7823 98.9187C41.0222 104.6 41.2174 113.657 50.7823 119.144C56.2476 121.846 62.2741 123.225 68.3731 123.168C74.4722 123.112 80.472 121.622 85.8862 118.819C95.6463 113.138 95.4511 104.113 85.691 98.594C80.2504 95.9264 74.2597 94.5664 68.198 94.6228C62.1364 94.6791 56.1721 96.1503 50.7823 98.9187Z" fill="#FFBE2E"/>
<path d="M44.1504 115.249C45.7567 117.415 47.8232 119.199 50.2017 120.475C55.8937 123.317 62.1768 124.781 68.5415 124.747C74.9062 124.713 81.1733 123.183 86.8346 120.281C89.1414 119.388 91.1205 117.814 92.508 115.77C93.8956 113.726 94.6257 111.308 94.601 108.839C94.5762 106.371 93.7978 103.968 92.3695 101.952C90.9413 99.9359 88.9311 98.4022 86.6069 97.5555C80.9111 94.7314 74.6276 93.2889 68.2677 93.3453C61.9078 93.4018 55.6511 94.9555 50.0065 97.8801C47.7727 98.91 45.8572 100.52 44.4607 102.542C43.0642 104.564 42.2379 106.923 42.0683 109.373C42.1749 111.492 42.8985 113.534 44.1504 115.249ZM90.1856 104.243C91.1249 105.53 91.6574 107.067 91.7147 108.658C91.5 110.574 90.7864 112.4 89.6449 113.955C88.5033 115.51 86.9736 116.739 85.208 117.521C80.0282 120.199 74.2889 121.621 68.4556 121.672C62.6222 121.722 56.8589 120.4 51.6332 117.813C49.7509 117.236 48.1038 116.071 46.9337 114.491C45.7637 112.91 45.1323 110.997 45.1323 109.032C45.1323 107.067 45.7637 105.153 46.9337 103.573C48.1038 101.992 49.7509 100.828 51.6332 100.25C56.8127 97.5747 62.5498 96.1514 68.3818 96.095C74.2138 96.0386 79.9775 97.3507 85.208 99.9254C87.1652 100.982 88.8648 102.456 90.1856 104.243Z" fill="#16110D"/>
<path d="M57.128 108.007C56.3662 108.269 55.7054 108.762 55.2376 109.416C54.7699 110.071 54.5185 110.855 54.5185 111.659C54.5185 112.463 54.7699 113.247 55.2376 113.902C55.7054 114.556 56.3662 115.049 57.128 115.311C59.0947 116.304 61.2679 116.821 63.472 116.821C65.6761 116.821 67.8493 116.304 69.8161 115.311C70.5742 115.041 71.23 114.543 71.6937 113.887C72.1574 113.23 72.4062 112.446 72.4062 111.643C72.4062 110.839 72.1574 110.056 71.6937 109.399C71.23 108.742 70.5742 108.245 69.8161 107.974C67.8468 106.987 65.6722 106.475 63.4681 106.481C61.2641 106.486 59.0922 107.009 57.128 108.007Z" fill="#FFEECC"/>
<path d="M58.3009 110.995C58.977 111.897 59.8433 112.639 60.8385 113.17C63.0352 114.306 65.4731 114.899 67.9471 114.899C70.4211 114.899 72.859 114.306 75.0557 113.17C76.0478 112.771 76.8976 112.084 77.496 111.199C78.0944 110.314 78.4141 109.271 78.4141 108.203C78.4141 107.136 78.0944 106.092 77.496 105.207C76.8976 104.322 76.0478 103.636 75.0557 103.236C72.859 102.101 70.4211 101.508 67.9471 101.508C65.4731 101.508 63.0352 102.101 60.8385 103.236C59.8965 103.701 59.0973 104.411 58.5249 105.291C57.9525 106.17 57.6278 107.188 57.5851 108.236C57.5405 109.206 57.7899 110.168 58.3009 110.995ZM74.828 107.002C75.0699 107.308 75.2067 107.684 75.2184 108.073C75.1189 108.582 74.8986 109.06 74.576 109.467C74.2533 109.874 73.8377 110.197 73.364 110.411C71.6291 111.267 69.7198 111.712 67.7844 111.712C65.8491 111.712 63.9398 111.267 62.2049 110.411C61.0012 109.729 60.318 108.885 60.318 108.073C60.318 107.262 60.9686 106.418 62.1398 105.703C63.8804 104.847 65.795 104.402 67.7356 104.402C69.6762 104.402 71.5908 104.847 73.3314 105.703C73.913 106.031 74.4221 106.473 74.828 107.002Z" fill="#16110D"/>
<path d="M140.208 21.3372L98.8672 87.6641L94.889 85.1951L136.23 18.8682L140.208 21.3372Z" fill="#FFEECC"/>
<path d="M92.7858 85.7068L99.2925 89.7649L142.27 20.8432L135.763 16.7852L92.7858 85.7068ZM98.8696 85.7068L96.5597 84.7329L136.283 20.8107L138.593 21.8171L98.8696 85.7068Z" fill="black"/>
<path d="M85.4673 102.035L90.1522 77.0371L96.9192 86.4518L108.273 88.3022L87.8423 103.56C87.5911 103.717 87.3006 103.799 87.0045 103.797C86.7085 103.795 86.4191 103.709 86.1702 103.549C85.9212 103.389 85.723 103.161 85.5986 102.893C85.4741 102.625 85.4286 102.327 85.4673 102.035Z" fill="#FFBE2E"/>
<path d="M91.0937 90.8348L102.48 92.6528L87.1246 104.21C86.5715 103.886 85.3027 103.236 85.4653 102.522L87.8403 86.582L91.0937 90.8348Z" fill="#FFEECC"/>
<path d="M83.9378 102.618C84.031 103.143 84.2524 103.637 84.5822 104.056C84.912 104.475 85.3402 104.807 85.8289 105.022C86.3177 105.237 86.8519 105.329 87.3845 105.289C87.9172 105.249 88.4318 105.079 88.8829 104.794L112.047 87.3602L97.6019 85.0553L89.1432 73.2383L83.8076 101.742C83.818 102.038 83.8617 102.332 83.9378 102.618ZM104.499 89.2107L87.061 102.196L91.0952 80.8024L96.0403 87.8147L104.499 89.2107Z" fill="black"/>
<path d="M153.789 15.2573L143.769 31.4894L126.103 42.0079C125.87 42.1477 125.603 42.2202 125.332 42.2173C125.06 42.2144 124.795 42.1361 124.565 41.9912C124.335 41.8464 124.151 41.6406 124.032 41.3971C123.913 41.1535 123.864 40.8816 123.891 40.6119L125.615 20.2243L135.635 3.99219L138.889 19.2179L153.789 15.2573Z" fill="#FFBE2E"/>
<path d="M125.093 21.3291L131.112 11.5898L133.227 22.0758L147.086 18.4398L137.066 34.6719L123.824 42.9179C123.662 42.7706 123.534 42.5896 123.45 42.3877C123.366 42.1857 123.327 41.9677 123.336 41.7492L125.093 21.3291Z" fill="#FFEECC"/>
<path d="M139.895 17.3359L157.105 12.8234L144.873 32.6266L126.882 43.1775C126.4 43.4985 125.834 43.6699 125.255 43.6699C124.676 43.6699 124.11 43.4985 123.628 43.1775C123.237 42.9379 122.907 42.6108 122.664 42.222C122.421 41.8333 122.273 41.3935 122.229 40.9375C122.197 40.7549 122.197 40.5681 122.229 40.3856L124.116 19.6409L136.382 0L139.895 17.3359ZM127.077 20.5824L125.288 40.5803L142.628 30.2567L144.515 27.2375L134.397 29.997L133.584 27.0427L146.857 23.4392L150.436 17.7255L137.423 20.9719L134.755 7.98621L127.077 20.5824Z" fill="black"/>
</svg>
