<svg width="375" height="380" viewBox="0 0 375 380" fill="none" xmlns="http://www.w3.org/2000/svg">
<path d="M300.164 274.637C281.27 293.517 252.643 310.219 224.846 306.342C182.844 300.493 164.85 328.24 99.8958 295.256C90.3913 290.482 81.4325 284.691 73.1768 277.986C69.1476 274.694 65.3336 271.147 61.7581 267.368C30.2231 234.04 25.7555 190.39 40.5112 153.604C59.9289 105.194 103.344 97.7169 130.896 94.3131C158.448 90.9093 207.774 51.4867 271.881 83.4135C281.687 88.2587 290.902 94.2178 299.343 101.172C318.56 117.099 334.854 140.344 339.052 165.424C339.365 167.307 339.624 169.199 339.828 171.099C343.763 208.341 325.927 248.896 300.164 274.637Z" fill="#DDF5FF"/>
<g clip-path="url(#clip0_522_44171)">
<path d="M143.097 259.283C142.647 259.055 142.15 258.937 141.645 258.937C141.141 258.937 140.643 259.055 140.193 259.283C139.378 259.779 139.378 260.524 140.193 260.985C140.643 261.212 141.141 261.331 141.645 261.331C142.15 261.331 142.647 261.212 143.097 260.985C143.912 260.524 143.912 259.779 143.097 259.283Z" fill="#16110D"/>
<path d="M132.543 254.886C131.728 255.347 131.728 256.091 132.543 256.588C132.993 256.815 133.49 256.934 133.995 256.934C134.499 256.934 134.997 256.815 135.447 256.588C136.262 256.091 136.262 255.347 135.447 254.886C134.997 254.658 134.499 254.54 133.995 254.54C133.49 254.54 132.993 254.658 132.543 254.886Z" fill="#16110D"/>
<path d="M124.857 250.488C124.686 250.55 124.538 250.664 124.434 250.813C124.329 250.962 124.273 251.14 124.273 251.322C124.273 251.504 124.329 251.681 124.434 251.831C124.538 251.98 124.686 252.093 124.857 252.155C125.313 252.383 125.817 252.502 126.327 252.502C126.837 252.502 127.34 252.383 127.797 252.155C128.611 251.694 128.611 250.949 127.797 250.488C127.346 250.243 126.84 250.115 126.327 250.115C125.813 250.115 125.308 250.243 124.857 250.488Z" fill="#16110D"/>
<path d="M117.206 246.055C117.022 246.109 116.86 246.221 116.745 246.374C116.63 246.528 116.568 246.714 116.568 246.906C116.568 247.098 116.63 247.285 116.745 247.438C116.86 247.592 117.022 247.704 117.206 247.757C117.662 247.985 118.166 248.104 118.676 248.104C119.186 248.104 119.689 247.985 120.146 247.757C120.33 247.704 120.491 247.592 120.606 247.438C120.721 247.285 120.783 247.098 120.783 246.906C120.783 246.714 120.721 246.528 120.606 246.374C120.491 246.221 120.33 246.109 120.146 246.055H117.206Z" fill="#16110D"/>
<path d="M109.554 241.658C108.74 242.119 108.74 242.863 109.554 243.324C110.011 243.552 110.514 243.671 111.024 243.671C111.535 243.671 112.038 243.552 112.494 243.324L109.554 241.658Z" fill="#16110D"/>
<path d="M186.134 276.943C185.32 277.44 185.32 278.184 186.134 278.645C186.585 278.873 187.082 278.992 187.587 278.992C188.091 278.992 188.588 278.873 189.039 278.645C189.854 278.184 189.854 277.44 189.039 276.943C188.588 276.716 188.091 276.597 187.587 276.597C187.082 276.597 186.585 276.716 186.134 276.943Z" fill="#16110D"/>
<path d="M201.435 276.943C200.621 277.44 200.621 278.184 201.435 278.645C201.892 278.873 202.395 278.992 202.905 278.992C203.415 278.992 203.919 278.873 204.375 278.645C205.154 278.184 205.154 277.44 204.375 276.943C203.919 276.715 203.415 276.597 202.905 276.597C202.395 276.597 201.892 276.715 201.435 276.943Z" fill="#16110D"/>
<path d="M195.273 274.603C196.408 274.603 197.328 274.063 197.328 273.397C197.328 272.731 196.408 272.191 195.273 272.191C194.139 272.191 193.219 272.731 193.219 273.397C193.219 274.063 194.139 274.603 195.273 274.603Z" fill="#16110D"/>
<path d="M209.158 272.51C208.343 272.971 208.343 273.716 209.158 274.177C209.614 274.405 210.118 274.524 210.628 274.524C211.138 274.524 211.641 274.405 212.098 274.177C212.269 274.115 212.416 274.002 212.521 273.853C212.625 273.703 212.681 273.526 212.681 273.344C212.681 273.162 212.625 272.984 212.521 272.835C212.416 272.686 212.269 272.572 212.098 272.51C211.646 272.265 211.141 272.137 210.628 272.137C210.114 272.137 209.609 272.265 209.158 272.51Z" fill="#16110D"/>
<path d="M201.507 268.078C201.323 268.131 201.161 268.243 201.046 268.397C200.931 268.55 200.869 268.737 200.869 268.929C200.869 269.12 200.931 269.307 201.046 269.461C201.161 269.614 201.323 269.726 201.507 269.78C201.963 270.008 202.466 270.126 202.977 270.126C203.487 270.126 203.99 270.008 204.447 269.78C204.614 269.71 204.758 269.592 204.859 269.44C204.96 269.289 205.013 269.111 205.013 268.929C205.013 268.747 204.96 268.569 204.859 268.417C204.758 268.266 204.614 268.148 204.447 268.078C203.99 267.85 203.487 267.731 202.977 267.731C202.466 267.731 201.963 267.85 201.507 268.078Z" fill="#16110D"/>
<path d="M216.807 268.078C216.624 268.131 216.462 268.243 216.347 268.397C216.232 268.55 216.17 268.737 216.17 268.929C216.17 269.12 216.232 269.307 216.347 269.461C216.462 269.614 216.624 269.726 216.807 269.78C217.264 270.008 217.767 270.126 218.277 270.126C218.788 270.126 219.291 270.008 219.747 269.78C219.931 269.726 220.093 269.614 220.208 269.461C220.323 269.307 220.385 269.12 220.385 268.929C220.385 268.737 220.323 268.55 220.208 268.397C220.093 268.243 219.931 268.131 219.747 268.078C219.291 267.85 218.788 267.731 218.277 267.731C217.767 267.731 217.264 267.85 216.807 268.078Z" fill="#16110D"/>
<path d="M209.158 263.68C208.343 264.141 208.343 264.886 209.158 265.347C209.614 265.575 210.118 265.694 210.628 265.694C211.138 265.694 211.641 265.575 212.098 265.347C212.269 265.285 212.416 265.172 212.521 265.022C212.625 264.873 212.681 264.696 212.681 264.514C212.681 264.332 212.625 264.154 212.521 264.005C212.416 263.856 212.269 263.742 212.098 263.68C211.646 263.435 211.141 263.307 210.628 263.307C210.114 263.307 209.609 263.435 209.158 263.68Z" fill="#16110D"/>
<path d="M201.507 259.247C201.323 259.301 201.161 259.413 201.046 259.567C200.931 259.72 200.869 259.907 200.869 260.099C200.869 260.29 200.931 260.477 201.046 260.631C201.161 260.784 201.323 260.896 201.507 260.95C201.957 261.177 202.455 261.296 202.959 261.296C203.464 261.296 203.961 261.177 204.411 260.95C204.595 260.896 204.757 260.784 204.872 260.631C204.987 260.477 205.049 260.29 205.049 260.099C205.049 259.907 204.987 259.72 204.872 259.567C204.757 259.413 204.595 259.301 204.411 259.247C203.961 259.02 203.464 258.901 202.959 258.901C202.455 258.901 201.957 259.02 201.507 259.247Z" fill="#16110D"/>
<path d="M193.855 254.85C193.04 255.311 193.04 256.056 193.855 256.517C194.306 256.744 194.803 256.863 195.307 256.863C195.812 256.863 196.309 256.744 196.76 256.517C197.574 256.056 197.574 255.311 196.76 254.85C196.309 254.622 195.812 254.504 195.307 254.504C194.803 254.504 194.306 254.622 193.855 254.85Z" fill="#16110D"/>
<path d="M186.204 252.12C186.654 252.347 187.152 252.466 187.656 252.466C188.161 252.466 188.658 252.347 189.108 252.12C189.292 252.066 189.454 251.954 189.569 251.8C189.684 251.647 189.746 251.46 189.746 251.268C189.746 251.077 189.684 250.89 189.569 250.737C189.454 250.583 189.292 250.471 189.108 250.417C188.658 250.19 188.161 250.071 187.656 250.071C187.152 250.071 186.654 250.19 186.204 250.417C186.02 250.471 185.858 250.583 185.743 250.737C185.629 250.89 185.566 251.077 185.566 251.268C185.566 251.46 185.629 251.647 185.743 251.8C185.858 251.954 186.02 252.066 186.204 252.12Z" fill="#16110D"/>
<path d="M224.388 263.68C223.574 264.141 223.574 264.886 224.388 265.347C224.845 265.575 225.348 265.694 225.858 265.694C226.369 265.694 226.872 265.575 227.328 265.347C228.143 264.886 228.143 264.141 227.328 263.68C226.877 263.435 226.372 263.307 225.858 263.307C225.345 263.307 224.84 263.435 224.388 263.68Z" fill="#16110D"/>
<path d="M216.807 259.247C216.624 259.301 216.462 259.413 216.347 259.567C216.232 259.72 216.17 259.907 216.17 260.099C216.17 260.29 216.232 260.477 216.347 260.63C216.462 260.784 216.624 260.896 216.807 260.95C217.264 261.178 217.767 261.296 218.277 261.296C218.788 261.296 219.291 261.178 219.747 260.95C219.931 260.896 220.093 260.784 220.208 260.63C220.323 260.477 220.385 260.29 220.385 260.099C220.385 259.907 220.323 259.72 220.208 259.567C220.093 259.413 219.931 259.301 219.747 259.247C219.291 259.02 218.788 258.901 218.277 258.901C217.767 258.901 217.264 259.02 216.807 259.247Z" fill="#16110D"/>
<path d="M209.158 254.85C208.343 255.311 208.343 256.056 209.158 256.517C209.614 256.745 210.118 256.863 210.628 256.863C211.138 256.863 211.641 256.745 212.098 256.517C212.269 256.455 212.416 256.341 212.521 256.192C212.625 256.043 212.681 255.865 212.681 255.683C212.681 255.501 212.625 255.324 212.521 255.175C212.416 255.025 212.269 254.912 212.098 254.85C211.641 254.622 211.138 254.503 210.628 254.503C210.118 254.503 209.614 254.622 209.158 254.85Z" fill="#16110D"/>
<path d="M201.507 250.417C201.323 250.471 201.161 250.583 201.046 250.737C200.931 250.89 200.869 251.077 200.869 251.268C200.869 251.46 200.931 251.647 201.046 251.8C201.161 251.954 201.323 252.066 201.507 252.12C201.957 252.347 202.455 252.466 202.959 252.466C203.464 252.466 203.961 252.347 204.411 252.12C204.595 252.066 204.757 251.954 204.872 251.8C204.987 251.647 205.049 251.46 205.049 251.268C205.049 251.077 204.987 250.89 204.872 250.737C204.757 250.583 204.595 250.471 204.411 250.417C203.961 250.19 203.464 250.071 202.959 250.071C202.455 250.071 201.957 250.19 201.507 250.417Z" fill="#16110D"/>
<path d="M193.855 246.02C193.04 246.481 193.04 247.226 193.855 247.687C194.3 247.932 194.8 248.06 195.307 248.06C195.815 248.06 196.315 247.932 196.76 247.687C197.574 247.226 197.574 246.481 196.76 246.02C196.309 245.792 195.812 245.674 195.307 245.674C194.803 245.674 194.306 245.792 193.855 246.02Z" fill="#16110D"/>
<path d="M232.11 259.247C231.942 259.317 231.799 259.436 231.698 259.587C231.597 259.739 231.543 259.917 231.543 260.099C231.543 260.281 231.597 260.459 231.698 260.61C231.799 260.761 231.942 260.88 232.11 260.95C232.566 261.178 233.07 261.296 233.58 261.296C234.09 261.296 234.593 261.178 235.05 260.95C235.234 260.896 235.395 260.784 235.51 260.63C235.625 260.477 235.687 260.29 235.687 260.099C235.687 259.907 235.625 259.72 235.51 259.567C235.395 259.413 235.234 259.301 235.05 259.247C234.593 259.02 234.09 258.901 233.58 258.901C233.07 258.901 232.566 259.02 232.11 259.247Z" fill="#16110D"/>
<path d="M224.388 254.85C223.574 255.311 223.574 256.056 224.388 256.517C224.845 256.745 225.348 256.863 225.858 256.863C226.369 256.863 226.872 256.745 227.328 256.517C228.143 256.056 228.143 255.311 227.328 254.85C226.872 254.622 226.369 254.503 225.858 254.503C225.348 254.503 224.845 254.622 224.388 254.85Z" fill="#16110D"/>
<path d="M216.807 250.417C216.624 250.471 216.462 250.583 216.347 250.737C216.232 250.89 216.17 251.077 216.17 251.268C216.17 251.46 216.232 251.647 216.347 251.8C216.462 251.954 216.624 252.066 216.807 252.12C217.264 252.347 217.767 252.466 218.277 252.466C218.788 252.466 219.291 252.347 219.747 252.12C219.931 252.066 220.093 251.954 220.208 251.8C220.323 251.647 220.385 251.46 220.385 251.268C220.385 251.077 220.323 250.89 220.208 250.737C220.093 250.583 219.931 250.471 219.747 250.417C219.291 250.189 218.788 250.071 218.277 250.071C217.767 250.071 217.264 250.189 216.807 250.417Z" fill="#16110D"/>
<path d="M209.158 246.02C208.343 246.481 208.343 247.226 209.158 247.687C209.609 247.932 210.114 248.06 210.628 248.06C211.141 248.06 211.646 247.932 212.098 247.687C212.269 247.625 212.416 247.511 212.521 247.362C212.625 247.213 212.681 247.035 212.681 246.853C212.681 246.671 212.625 246.494 212.521 246.344C212.416 246.195 212.269 246.082 212.098 246.02C211.641 245.792 211.138 245.673 210.628 245.673C210.118 245.673 209.614 245.792 209.158 246.02Z" fill="#16110D"/>
<path d="M201.507 241.587C201.323 241.641 201.161 241.753 201.046 241.906C200.931 242.059 200.869 242.246 200.869 242.438C200.869 242.63 200.931 242.816 201.046 242.97C201.161 243.123 201.323 243.235 201.507 243.289C201.957 243.517 202.455 243.635 202.959 243.635C203.464 243.635 203.961 243.517 204.411 243.289C204.595 243.235 204.757 243.123 204.872 242.97C204.987 242.816 205.049 242.63 205.049 242.438C205.049 242.246 204.987 242.059 204.872 241.906C204.757 241.753 204.595 241.641 204.411 241.587C203.961 241.359 203.464 241.241 202.959 241.241C202.455 241.241 201.957 241.359 201.507 241.587Z" fill="#16110D"/>
<path d="M239.797 254.85C238.982 255.311 238.982 256.056 239.797 256.517C240.247 256.744 240.744 256.863 241.249 256.863C241.753 256.863 242.251 256.744 242.701 256.517C243.516 256.056 243.516 255.311 242.701 254.85C242.251 254.622 241.753 254.504 241.249 254.504C240.744 254.504 240.247 254.622 239.797 254.85Z" fill="#16110D"/>
<path d="M232.11 250.417C231.942 250.487 231.799 250.606 231.698 250.757C231.597 250.908 231.543 251.086 231.543 251.268C231.543 251.45 231.597 251.628 231.698 251.78C231.799 251.931 231.942 252.05 232.11 252.12C232.566 252.347 233.07 252.466 233.58 252.466C234.09 252.466 234.593 252.347 235.05 252.12C235.234 252.066 235.395 251.954 235.51 251.8C235.625 251.647 235.687 251.46 235.687 251.268C235.687 251.077 235.625 250.89 235.51 250.737C235.395 250.583 235.234 250.471 235.05 250.417C234.593 250.189 234.09 250.071 233.58 250.071C233.07 250.071 232.566 250.189 232.11 250.417Z" fill="#16110D"/>
<path d="M224.388 246.02C223.574 246.481 223.574 247.226 224.388 247.687C224.84 247.932 225.345 248.06 225.858 248.06C226.372 248.06 226.877 247.932 227.328 247.687C228.143 247.226 228.143 246.481 227.328 246.02C226.872 245.792 226.369 245.673 225.858 245.673C225.348 245.673 224.845 245.792 224.388 246.02Z" fill="#16110D"/>
<path d="M216.807 241.587C216.624 241.641 216.462 241.753 216.347 241.906C216.232 242.059 216.17 242.246 216.17 242.438C216.17 242.63 216.232 242.816 216.347 242.97C216.462 243.123 216.624 243.235 216.807 243.289C217.264 243.517 217.767 243.636 218.277 243.636C218.788 243.636 219.291 243.517 219.747 243.289C219.931 243.235 220.093 243.123 220.208 242.97C220.323 242.816 220.385 242.63 220.385 242.438C220.385 242.246 220.323 242.059 220.208 241.906C220.093 241.753 219.931 241.641 219.747 241.587C219.291 241.359 218.788 241.24 218.277 241.24C217.767 241.24 217.264 241.359 216.807 241.587Z" fill="#16110D"/>
<path d="M247.446 250.417C247.262 250.471 247.101 250.583 246.986 250.737C246.871 250.89 246.809 251.077 246.809 251.268C246.809 251.46 246.871 251.647 246.986 251.8C247.101 251.954 247.262 252.066 247.446 252.12C247.897 252.347 248.394 252.466 248.898 252.466C249.403 252.466 249.9 252.347 250.351 252.12C250.535 252.066 250.696 251.954 250.811 251.8C250.926 251.647 250.988 251.46 250.988 251.268C250.988 251.077 250.926 250.89 250.811 250.737C250.696 250.583 250.535 250.471 250.351 250.417C249.9 250.19 249.403 250.071 248.898 250.071C248.394 250.071 247.897 250.19 247.446 250.417Z" fill="#16110D"/>
<path d="M241.248 248.076C242.382 248.076 243.302 247.537 243.302 246.871C243.302 246.205 242.382 245.665 241.248 245.665C240.113 245.665 239.193 246.205 239.193 246.871C239.193 247.537 240.113 248.076 241.248 248.076Z" fill="#16110D"/>
<path d="M232.11 241.587C231.942 241.657 231.799 241.775 231.698 241.926C231.597 242.078 231.543 242.256 231.543 242.438C231.543 242.62 231.597 242.798 231.698 242.949C231.799 243.101 231.942 243.219 232.11 243.289C232.566 243.517 233.07 243.636 233.58 243.636C234.09 243.636 234.593 243.517 235.05 243.289C235.234 243.235 235.395 243.123 235.51 242.97C235.625 242.816 235.687 242.63 235.687 242.438C235.687 242.246 235.625 242.059 235.51 241.906C235.395 241.753 235.234 241.641 235.05 241.587C234.593 241.359 234.09 241.24 233.58 241.24C233.07 241.24 232.566 241.359 232.11 241.587Z" fill="#16110D"/>
<path d="M224.388 237.19C223.574 237.651 223.574 238.396 224.388 238.857C224.84 239.102 225.345 239.23 225.858 239.23C226.372 239.23 226.877 239.102 227.328 238.857C228.143 238.396 228.143 237.651 227.328 237.19C226.872 236.962 226.369 236.843 225.858 236.843C225.348 236.843 224.845 236.962 224.388 237.19Z" fill="#16110D"/>
<path d="M255.097 246.02C254.283 246.481 254.283 247.226 255.097 247.687C255.549 247.932 256.054 248.06 256.567 248.06C257.081 248.06 257.586 247.932 258.037 247.687C258.208 247.625 258.356 247.511 258.46 247.362C258.565 247.213 258.621 247.035 258.621 246.853C258.621 246.671 258.565 246.494 258.46 246.344C258.356 246.195 258.208 246.082 258.037 246.02C257.581 245.792 257.077 245.673 256.567 245.673C256.057 245.673 255.554 245.792 255.097 246.02Z" fill="#16110D"/>
<path d="M248.935 243.68C250.07 243.68 250.99 243.14 250.99 242.474C250.99 241.808 250.07 241.268 248.935 241.268C247.801 241.268 246.881 241.808 246.881 242.474C246.881 243.14 247.801 243.68 248.935 243.68Z" fill="#16110D"/>
<path d="M241.248 239.246C242.382 239.246 243.302 238.707 243.302 238.041C243.302 237.375 242.382 236.835 241.248 236.835C240.113 236.835 239.193 237.375 239.193 238.041C239.193 238.707 240.113 239.246 241.248 239.246Z" fill="#16110D"/>
<path d="M232.11 232.757C231.942 232.827 231.799 232.945 231.698 233.096C231.597 233.248 231.543 233.426 231.543 233.608C231.543 233.79 231.597 233.968 231.698 234.119C231.799 234.271 231.942 234.389 232.11 234.459C232.566 234.687 233.07 234.806 233.58 234.806C234.09 234.806 234.593 234.687 235.05 234.459C235.234 234.405 235.395 234.293 235.51 234.14C235.625 233.986 235.687 233.8 235.687 233.608C235.687 233.416 235.625 233.229 235.51 233.076C235.395 232.922 235.234 232.81 235.05 232.757C234.593 232.529 234.09 232.41 233.58 232.41C233.07 232.41 232.566 232.529 232.11 232.757Z" fill="#16110D"/>
<path d="M262.749 241.587C262.565 241.641 262.403 241.753 262.288 241.906C262.174 242.059 262.111 242.246 262.111 242.438C262.111 242.63 262.174 242.816 262.288 242.97C262.403 243.123 262.565 243.235 262.749 243.289C263.205 243.517 263.709 243.636 264.219 243.636C264.729 243.636 265.232 243.517 265.689 243.289C265.873 243.235 266.034 243.123 266.149 242.97C266.264 242.816 266.326 242.63 266.326 242.438C266.326 242.246 266.264 242.059 266.149 241.906C266.034 241.753 265.873 241.641 265.689 241.587C265.232 241.359 264.729 241.24 264.219 241.24C263.709 241.24 263.205 241.359 262.749 241.587Z" fill="#16110D"/>
<path d="M255.097 237.19C254.283 237.651 254.283 238.396 255.097 238.857C255.549 239.102 256.054 239.23 256.567 239.23C257.081 239.23 257.586 239.102 258.037 238.857C258.208 238.794 258.356 238.681 258.46 238.532C258.565 238.383 258.621 238.205 258.621 238.023C258.621 237.841 258.565 237.663 258.46 237.514C258.356 237.365 258.208 237.252 258.037 237.19C257.581 236.962 257.077 236.843 256.567 236.843C256.057 236.843 255.554 236.962 255.097 237.19Z" fill="#16110D"/>
<path d="M248.935 234.849C250.07 234.849 250.99 234.309 250.99 233.643C250.99 232.977 250.07 232.438 248.935 232.438C247.801 232.438 246.881 232.977 246.881 233.643C246.881 234.309 247.801 234.849 248.935 234.849Z" fill="#16110D"/>
<path d="M239.797 228.359C238.982 228.82 238.982 229.565 239.797 230.026C240.241 230.271 240.741 230.4 241.249 230.4C241.757 230.4 242.256 230.271 242.701 230.026C243.516 229.565 243.516 228.82 242.701 228.359C242.251 228.132 241.753 228.013 241.249 228.013C240.744 228.013 240.247 228.132 239.797 228.359Z" fill="#16110D"/>
<path d="M270.435 237.154C269.621 237.615 269.621 238.36 270.435 238.821C270.892 239.049 271.395 239.168 271.905 239.168C272.415 239.168 272.919 239.049 273.375 238.821C274.19 238.36 274.19 237.615 273.375 237.154C272.924 236.909 272.419 236.781 271.905 236.781C271.392 236.781 270.886 236.909 270.435 237.154Z" fill="#16110D"/>
<path d="M262.82 232.722C262.005 233.183 262.005 233.927 262.82 234.424C263.277 234.652 263.78 234.77 264.29 234.77C264.8 234.77 265.303 234.652 265.76 234.424C266.539 233.927 266.539 233.183 265.76 232.722C265.303 232.494 264.8 232.375 264.29 232.375C263.78 232.375 263.277 232.494 262.82 232.722Z" fill="#16110D"/>
<path d="M255.17 228.324C254.355 228.785 254.355 229.53 255.17 229.991C255.62 230.218 256.117 230.337 256.622 230.337C257.126 230.337 257.624 230.218 258.074 229.991C258.889 229.53 258.889 228.785 258.074 228.324C257.629 228.079 257.13 227.95 256.622 227.95C256.114 227.95 255.614 228.079 255.17 228.324Z" fill="#16110D"/>
<path d="M247.518 223.891C247.334 223.945 247.173 224.057 247.058 224.21C246.943 224.364 246.881 224.55 246.881 224.742C246.881 224.934 246.943 225.121 247.058 225.274C247.173 225.428 247.334 225.54 247.518 225.593C247.969 225.821 248.466 225.939 248.971 225.939C249.475 225.939 249.973 225.821 250.423 225.593C250.607 225.54 250.768 225.428 250.883 225.274C250.998 225.121 251.06 224.934 251.06 224.742C251.06 224.55 250.998 224.364 250.883 224.21C250.768 224.057 250.607 223.945 250.423 223.891C249.973 223.663 249.475 223.545 248.971 223.545C248.466 223.545 247.969 223.663 247.518 223.891Z" fill="#16110D"/>
<path d="M278.121 232.722C277.306 233.183 277.306 233.927 278.121 234.424C278.577 234.652 279.08 234.77 279.591 234.77C280.101 234.77 280.604 234.652 281.061 234.424C281.875 233.927 281.875 233.183 281.061 232.722C280.604 232.494 280.101 232.375 279.591 232.375C279.08 232.375 278.577 232.494 278.121 232.722Z" fill="#16110D"/>
<path d="M270.435 228.324C269.621 228.785 269.621 229.53 270.435 229.991C270.892 230.218 271.395 230.337 271.905 230.337C272.415 230.337 272.919 230.218 273.375 229.991C274.19 229.53 274.19 228.785 273.375 228.324C272.924 228.079 272.419 227.95 271.905 227.95C271.392 227.95 270.886 228.079 270.435 228.324Z" fill="#16110D"/>
<path d="M262.819 223.891C262.635 223.945 262.474 224.057 262.359 224.21C262.244 224.364 262.182 224.55 262.182 224.742C262.182 224.934 262.244 225.121 262.359 225.274C262.474 225.428 262.635 225.539 262.819 225.593C263.276 225.821 263.779 225.94 264.289 225.94C264.799 225.94 265.302 225.821 265.759 225.593C265.927 225.523 266.07 225.405 266.171 225.254C266.272 225.102 266.326 224.924 266.326 224.742C266.326 224.56 266.272 224.382 266.171 224.231C266.07 224.079 265.927 223.961 265.759 223.891C265.302 223.663 264.799 223.544 264.289 223.544C263.779 223.544 263.276 223.663 262.819 223.891Z" fill="#16110D"/>
<path d="M255.17 219.494C254.355 219.955 254.355 220.7 255.17 221.161C255.62 221.388 256.117 221.507 256.622 221.507C257.126 221.507 257.624 221.388 258.074 221.161C258.889 220.7 258.889 219.955 258.074 219.494C257.629 219.249 257.13 219.12 256.622 219.12C256.114 219.12 255.614 219.249 255.17 219.494Z" fill="#16110D"/>
<path d="M285.771 228.324C285.6 228.386 285.452 228.499 285.348 228.648C285.244 228.797 285.188 228.975 285.188 229.157C285.188 229.339 285.244 229.517 285.348 229.666C285.452 229.815 285.6 229.928 285.771 229.991C286.227 230.218 286.731 230.337 287.241 230.337C287.751 230.337 288.254 230.218 288.711 229.991C289.526 229.53 289.526 228.785 288.711 228.324C288.26 228.079 287.754 227.95 287.241 227.95C286.727 227.95 286.222 228.079 285.771 228.324Z" fill="#16110D"/>
<path d="M278.122 223.891C277.938 223.945 277.777 224.057 277.662 224.21C277.547 224.364 277.484 224.55 277.484 224.742C277.484 224.934 277.547 225.121 277.662 225.274C277.777 225.428 277.938 225.539 278.122 225.593C278.579 225.821 279.082 225.94 279.592 225.94C280.102 225.94 280.605 225.821 281.062 225.593C281.246 225.539 281.407 225.428 281.522 225.274C281.637 225.121 281.699 224.934 281.699 224.742C281.699 224.55 281.637 224.364 281.522 224.21C281.407 224.057 281.246 223.945 281.062 223.891C280.605 223.663 280.102 223.544 279.592 223.544C279.082 223.544 278.579 223.663 278.122 223.891Z" fill="#16110D"/>
<path d="M270.435 219.494C269.621 219.955 269.621 220.699 270.435 221.16C270.892 221.388 271.395 221.507 271.905 221.507C272.415 221.507 272.919 221.388 273.375 221.16C274.19 220.699 274.19 219.955 273.375 219.494C272.924 219.249 272.419 219.12 271.905 219.12C271.392 219.12 270.886 219.249 270.435 219.494Z" fill="#16110D"/>
<path d="M262.819 215.061C262.635 215.115 262.474 215.227 262.359 215.38C262.244 215.534 262.182 215.72 262.182 215.912C262.182 216.104 262.244 216.29 262.359 216.444C262.474 216.597 262.635 216.709 262.819 216.763C263.276 216.991 263.779 217.11 264.289 217.11C264.799 217.11 265.302 216.991 265.759 216.763C265.927 216.693 266.07 216.575 266.171 216.423C266.272 216.272 266.326 216.094 266.326 215.912C266.326 215.73 266.272 215.552 266.171 215.401C266.07 215.249 265.927 215.131 265.759 215.061C265.302 214.833 264.799 214.714 264.289 214.714C263.779 214.714 263.276 214.833 262.819 215.061Z" fill="#16110D"/>
<path d="M293.458 223.891C293.274 223.945 293.112 224.057 292.997 224.21C292.882 224.364 292.82 224.55 292.82 224.742C292.82 224.934 292.882 225.121 292.997 225.274C293.112 225.428 293.274 225.54 293.458 225.593C293.908 225.821 294.406 225.939 294.91 225.939C295.415 225.939 295.912 225.821 296.362 225.593C296.546 225.54 296.708 225.428 296.823 225.274C296.938 225.121 297 224.934 297 224.742C297 224.55 296.938 224.364 296.823 224.21C296.708 224.057 296.546 223.945 296.362 223.891C295.912 223.663 295.415 223.545 294.91 223.545C294.406 223.545 293.908 223.663 293.458 223.891Z" fill="#16110D"/>
<path d="M285.771 219.494C285.6 219.556 285.452 219.669 285.348 219.818C285.244 219.967 285.188 220.145 285.188 220.327C285.188 220.509 285.244 220.687 285.348 220.836C285.452 220.985 285.6 221.098 285.771 221.16C286.227 221.388 286.731 221.507 287.241 221.507C287.751 221.507 288.254 221.388 288.711 221.16C289.526 220.699 289.526 219.955 288.711 219.494C288.26 219.249 287.754 219.12 287.241 219.12C286.727 219.12 286.222 219.249 285.771 219.494Z" fill="#16110D"/>
<path d="M278.122 215.061C277.938 215.115 277.777 215.227 277.662 215.38C277.547 215.534 277.484 215.72 277.484 215.912C277.484 216.104 277.547 216.29 277.662 216.444C277.777 216.597 277.938 216.709 278.122 216.763C278.579 216.991 279.082 217.11 279.592 217.11C280.102 217.11 280.605 216.991 281.062 216.763C281.246 216.709 281.407 216.597 281.522 216.444C281.637 216.29 281.699 216.104 281.699 215.912C281.699 215.72 281.637 215.534 281.522 215.38C281.407 215.227 281.246 215.115 281.062 215.061C280.605 214.833 280.102 214.714 279.592 214.714C279.082 214.714 278.579 214.833 278.122 215.061Z" fill="#16110D"/>
<path d="M270.435 210.663C269.621 211.124 269.621 211.869 270.435 212.33C270.892 212.558 271.395 212.677 271.905 212.677C272.415 212.677 272.919 212.558 273.375 212.33C274.19 211.869 274.19 211.124 273.375 210.663C272.919 210.436 272.415 210.317 271.905 210.317C271.395 210.317 270.892 210.436 270.435 210.663Z" fill="#16110D"/>
<path d="M170.797 276.943C170.018 277.44 170.018 278.184 170.797 278.645C171.254 278.873 171.757 278.992 172.267 278.992C172.777 278.992 173.281 278.873 173.737 278.645C174.552 278.184 174.552 277.44 173.737 276.943C173.281 276.715 172.777 276.597 172.267 276.597C171.757 276.597 171.254 276.715 170.797 276.943Z" fill="#16110D"/>
<path d="M163.146 272.546C162.331 273.007 162.331 273.752 163.146 274.213C163.597 274.458 164.103 274.586 164.616 274.586C165.13 274.586 165.635 274.458 166.086 274.213C166.901 273.752 166.901 273.007 166.086 272.546C165.63 272.318 165.126 272.199 164.616 272.199C164.106 272.199 163.603 272.318 163.146 272.546Z" fill="#16110D"/>
<path d="M155.496 268.113C154.681 268.61 154.681 269.354 155.496 269.815C155.952 270.043 156.456 270.162 156.966 270.162C157.476 270.162 157.979 270.043 158.436 269.815C159.25 269.354 159.25 268.61 158.436 268.113C157.979 267.885 157.476 267.767 156.966 267.767C156.456 267.767 155.952 267.885 155.496 268.113Z" fill="#16110D"/>
<path d="M147.845 263.716C147.031 264.177 147.031 264.921 147.845 265.418C148.302 265.646 148.805 265.764 149.315 265.764C149.825 265.764 150.329 265.646 150.785 265.418C151.564 264.921 151.564 264.177 150.785 263.716C150.329 263.488 149.825 263.369 149.315 263.369C148.805 263.369 148.302 263.488 147.845 263.716Z" fill="#16110D"/>
<path d="M140.193 259.283C139.378 259.779 139.378 260.524 140.193 260.985C140.643 261.212 141.141 261.331 141.645 261.331C142.15 261.331 142.647 261.212 143.097 260.985C143.912 260.524 143.912 259.779 143.097 259.283C142.647 259.055 142.15 258.937 141.645 258.937C141.141 258.937 140.643 259.055 140.193 259.283Z" fill="#16110D"/>
<path d="M132.543 254.886C131.728 255.347 131.728 256.091 132.543 256.588C132.993 256.815 133.49 256.934 133.995 256.934C134.499 256.934 134.997 256.815 135.447 256.588C136.262 256.091 136.262 255.347 135.447 254.886C134.997 254.658 134.499 254.54 133.995 254.54C133.49 254.54 132.993 254.658 132.543 254.886Z" fill="#16110D"/>
<path d="M124.857 250.488C124.686 250.55 124.538 250.664 124.434 250.813C124.329 250.962 124.273 251.14 124.273 251.322C124.273 251.504 124.329 251.681 124.434 251.831C124.538 251.98 124.686 252.093 124.857 252.155C125.313 252.383 125.817 252.502 126.327 252.502C126.837 252.502 127.34 252.383 127.797 252.155C128.611 251.694 128.611 250.949 127.797 250.488C127.346 250.243 126.84 250.115 126.327 250.115C125.813 250.115 125.308 250.243 124.857 250.488Z" fill="#16110D"/>
<path d="M117.206 246.056C117.022 246.109 116.86 246.221 116.745 246.375C116.63 246.528 116.568 246.715 116.568 246.907C116.568 247.098 116.63 247.285 116.745 247.439C116.86 247.592 117.022 247.704 117.206 247.758C117.662 247.986 118.166 248.104 118.676 248.104C119.186 248.104 119.689 247.986 120.146 247.758C120.33 247.704 120.491 247.592 120.606 247.439C120.721 247.285 120.783 247.098 120.783 246.907C120.783 246.715 120.721 246.528 120.606 246.375C120.491 246.221 120.33 246.109 120.146 246.056C119.689 245.828 119.186 245.709 118.676 245.709C118.166 245.709 117.662 245.828 117.206 246.056Z" fill="#16110D"/>
<path d="M109.554 241.658C108.74 242.119 108.74 242.864 109.554 243.325C110.011 243.552 110.514 243.671 111.024 243.671C111.535 243.671 112.038 243.552 112.494 243.325C113.309 242.864 113.309 242.119 112.494 241.658C112.043 241.413 111.538 241.284 111.024 241.284C110.511 241.284 110.006 241.413 109.554 241.658Z" fill="#16110D"/>
<path d="M101.903 237.225C101.719 237.279 101.558 237.391 101.443 237.544C101.328 237.698 101.266 237.884 101.266 238.076C101.266 238.268 101.328 238.455 101.443 238.608C101.558 238.761 101.719 238.873 101.903 238.927C102.36 239.155 102.863 239.274 103.373 239.274C103.883 239.274 104.387 239.155 104.843 238.927C105.011 238.857 105.154 238.739 105.255 238.588C105.356 238.436 105.41 238.258 105.41 238.076C105.41 237.894 105.356 237.716 105.255 237.565C105.154 237.413 105.011 237.295 104.843 237.225C104.387 236.997 103.883 236.878 103.373 236.878C102.863 236.878 102.36 236.997 101.903 237.225Z" fill="#16110D"/>
<path d="M94.2536 232.828C93.4389 233.289 93.4389 234.034 94.2536 234.495C94.7039 234.722 95.2014 234.841 95.7058 234.841C96.2103 234.841 96.7076 234.722 97.158 234.495C97.9727 234.034 97.9727 233.289 97.158 232.828C96.7076 232.6 96.2103 232.482 95.7058 232.482C95.2014 232.482 94.7039 232.6 94.2536 232.828Z" fill="#16110D"/>
<path d="M86.6024 228.395C86.4185 228.449 86.2569 228.561 86.1419 228.714C86.0269 228.868 85.9648 229.054 85.9648 229.246C85.9648 229.438 86.0269 229.625 86.1419 229.778C86.2569 229.931 86.4185 230.043 86.6024 230.097C87.0527 230.325 87.5502 230.443 88.0546 230.443C88.5591 230.443 89.0565 230.325 89.5069 230.097C89.6908 230.043 89.8523 229.931 89.9673 229.778C90.0822 229.625 90.1444 229.438 90.1444 229.246C90.1444 229.054 90.0822 228.868 89.9673 228.714C89.8523 228.561 89.6908 228.449 89.5069 228.395C89.0565 228.167 88.5591 228.049 88.0546 228.049C87.5502 228.049 87.0527 228.167 86.6024 228.395Z" fill="#16110D"/>
<path d="M186.134 276.943C185.32 277.44 185.32 278.184 186.134 278.645C186.585 278.873 187.082 278.992 187.587 278.992C188.091 278.992 188.588 278.873 189.039 278.645C189.854 278.184 189.854 277.44 189.039 276.943C188.588 276.716 188.091 276.597 187.587 276.597C187.082 276.597 186.585 276.716 186.134 276.943Z" fill="#16110D"/>
<path d="M178.341 272.546C178.17 272.608 178.023 272.721 177.918 272.87C177.814 273.019 177.758 273.197 177.758 273.379C177.758 273.561 177.814 273.739 177.918 273.888C178.023 274.037 178.17 274.15 178.341 274.213C178.792 274.458 179.298 274.586 179.811 274.586C180.325 274.586 180.83 274.458 181.281 274.213C182.096 273.752 182.096 273.007 181.281 272.546C180.824 272.318 180.321 272.199 179.811 272.199C179.301 272.199 178.798 272.318 178.341 272.546Z" fill="#16110D"/>
<path d="M170.797 268.113C170.018 268.61 170.018 269.354 170.797 269.815C171.254 270.043 171.757 270.162 172.267 270.162C172.777 270.162 173.281 270.043 173.737 269.815C174.552 269.354 174.552 268.61 173.737 268.113C173.281 267.885 172.777 267.767 172.267 267.767C171.757 267.767 171.254 267.885 170.797 268.113Z" fill="#16110D"/>
<path d="M163.146 263.716C162.331 264.177 162.331 264.921 163.146 265.418C163.603 265.646 164.106 265.764 164.616 265.764C165.126 265.764 165.63 265.646 166.086 265.418C166.901 264.921 166.901 264.177 166.086 263.716C165.63 263.488 165.126 263.369 164.616 263.369C164.106 263.369 163.603 263.488 163.146 263.716Z" fill="#16110D"/>
<path d="M155.496 259.283C154.681 259.78 154.681 260.524 155.496 260.985C155.952 261.213 156.456 261.332 156.966 261.332C157.476 261.332 157.979 261.213 158.436 260.985C159.25 260.524 159.25 259.78 158.436 259.283C157.979 259.055 157.476 258.937 156.966 258.937C156.456 258.937 155.952 259.055 155.496 259.283Z" fill="#16110D"/>
<path d="M147.845 254.886C147.031 255.347 147.031 256.091 147.845 256.588C148.302 256.816 148.805 256.934 149.315 256.934C149.825 256.934 150.329 256.816 150.785 256.588C151.564 256.091 151.564 255.347 150.785 254.886C150.329 254.658 149.825 254.539 149.315 254.539C148.805 254.539 148.302 254.658 147.845 254.886Z" fill="#16110D"/>
<path d="M141.681 252.545C142.816 252.545 143.736 252.005 143.736 251.339C143.736 250.673 142.816 250.133 141.681 250.133C140.547 250.133 139.627 250.673 139.627 251.339C139.627 252.005 140.547 252.545 141.681 252.545Z" fill="#16110D"/>
<path d="M132.542 246.055C132.358 246.109 132.196 246.221 132.081 246.374C131.966 246.528 131.904 246.714 131.904 246.906C131.904 247.098 131.966 247.285 132.081 247.438C132.196 247.592 132.358 247.704 132.542 247.757C132.992 247.985 133.49 248.103 133.994 248.103C134.499 248.103 134.996 247.985 135.446 247.757C135.63 247.704 135.792 247.592 135.907 247.438C136.022 247.285 136.084 247.098 136.084 246.906C136.084 246.714 136.022 246.528 135.907 246.374C135.792 246.221 135.63 246.109 135.446 246.055C134.996 245.828 134.499 245.709 133.994 245.709C133.49 245.709 132.992 245.828 132.542 246.055Z" fill="#16110D"/>
<path d="M124.857 241.658C124.686 241.72 124.538 241.833 124.434 241.982C124.329 242.131 124.273 242.309 124.273 242.491C124.273 242.673 124.329 242.851 124.434 243C124.538 243.149 124.686 243.262 124.857 243.325C125.313 243.552 125.817 243.671 126.327 243.671C126.837 243.671 127.34 243.552 127.797 243.325C128.611 242.864 128.611 242.119 127.797 241.658C127.346 241.413 126.84 241.284 126.327 241.284C125.813 241.284 125.308 241.413 124.857 241.658Z" fill="#16110D"/>
<path d="M117.206 237.225C117.022 237.279 116.86 237.391 116.745 237.544C116.63 237.698 116.568 237.884 116.568 238.076C116.568 238.268 116.63 238.455 116.745 238.608C116.86 238.761 117.022 238.873 117.206 238.927C117.662 239.155 118.166 239.274 118.676 239.274C119.186 239.274 119.689 239.155 120.146 238.927C120.33 238.873 120.491 238.761 120.606 238.608C120.721 238.455 120.783 238.268 120.783 238.076C120.783 237.884 120.721 237.698 120.606 237.544C120.491 237.391 120.33 237.279 120.146 237.225C119.689 236.997 119.186 236.878 118.676 236.878C118.166 236.878 117.662 236.997 117.206 237.225Z" fill="#16110D"/>
<path d="M109.554 232.828C108.74 233.289 108.74 234.033 109.554 234.494C110.011 234.722 110.514 234.841 111.024 234.841C111.535 234.841 112.038 234.722 112.494 234.494C113.309 234.033 113.309 233.289 112.494 232.828C112.038 232.6 111.535 232.481 111.024 232.481C110.514 232.481 110.011 232.6 109.554 232.828Z" fill="#16110D"/>
<path d="M101.903 228.395C101.719 228.449 101.558 228.561 101.443 228.714C101.328 228.868 101.266 229.054 101.266 229.246C101.266 229.438 101.328 229.624 101.443 229.778C101.558 229.931 101.719 230.043 101.903 230.097C102.36 230.325 102.863 230.444 103.373 230.444C103.883 230.444 104.387 230.325 104.843 230.097C105.011 230.027 105.154 229.909 105.255 229.757C105.356 229.606 105.41 229.428 105.41 229.246C105.41 229.064 105.356 228.886 105.255 228.735C105.154 228.583 105.011 228.465 104.843 228.395C104.387 228.167 103.883 228.048 103.373 228.048C102.863 228.048 102.36 228.167 101.903 228.395Z" fill="#16110D"/>
<path d="M94.2536 223.997C93.4389 224.458 93.4389 225.203 94.2536 225.664C94.7039 225.892 95.2014 226.01 95.7058 226.01C96.2103 226.01 96.7076 225.892 97.158 225.664C97.9727 225.203 97.9727 224.458 97.158 223.997C96.7076 223.77 96.2103 223.651 95.7058 223.651C95.2014 223.651 94.7039 223.77 94.2536 223.997Z" fill="#16110D"/>
<path d="M86.6024 219.565C86.4185 219.619 86.2569 219.731 86.1419 219.884C86.0269 220.037 85.9648 220.224 85.9648 220.416C85.9648 220.608 86.0269 220.794 86.1419 220.948C86.2569 221.101 86.4185 221.213 86.6024 221.267C87.0527 221.495 87.5502 221.613 88.0546 221.613C88.5591 221.613 89.0565 221.495 89.5069 221.267C89.6908 221.213 89.8523 221.101 89.9673 220.948C90.0822 220.794 90.1444 220.608 90.1444 220.416C90.1444 220.224 90.0822 220.037 89.9673 219.884C89.8523 219.731 89.6908 219.619 89.5069 219.565C89.0565 219.337 88.5591 219.219 88.0546 219.219C87.5502 219.219 87.0527 219.337 86.6024 219.565Z" fill="#16110D"/>
<path d="M201.435 276.943C200.621 277.44 200.621 278.184 201.435 278.645C201.892 278.873 202.395 278.992 202.905 278.992C203.415 278.992 203.919 278.873 204.375 278.645C205.154 278.184 205.154 277.44 204.375 276.943C203.919 276.715 203.415 276.597 202.905 276.597C202.395 276.597 201.892 276.715 201.435 276.943Z" fill="#16110D"/>
<path d="M195.273 274.603C196.408 274.603 197.328 274.063 197.328 273.397C197.328 272.731 196.408 272.191 195.273 272.191C194.139 272.191 193.219 272.731 193.219 273.397C193.219 274.063 194.139 274.603 195.273 274.603Z" fill="#16110D"/>
<path d="M186.134 268.113C185.32 268.61 185.32 269.354 186.134 269.815C186.585 270.043 187.082 270.162 187.587 270.162C188.091 270.162 188.588 270.043 189.039 269.815C189.854 269.354 189.854 268.61 189.039 268.113C188.588 267.886 188.091 267.767 187.587 267.767C187.082 267.767 186.585 267.886 186.134 268.113Z" fill="#16110D"/>
<path d="M178.342 263.716C177.563 264.177 177.563 264.921 178.342 265.418C178.799 265.646 179.302 265.764 179.812 265.764C180.322 265.764 180.826 265.646 181.282 265.418C182.097 264.921 182.097 264.177 181.282 263.716C180.826 263.488 180.322 263.369 179.812 263.369C179.302 263.369 178.799 263.488 178.342 263.716Z" fill="#16110D"/>
<path d="M172.285 261.375C173.419 261.375 174.339 260.836 174.339 260.17C174.339 259.504 173.419 258.964 172.285 258.964C171.15 258.964 170.23 259.504 170.23 260.17C170.23 260.836 171.15 261.375 172.285 261.375Z" fill="#16110D"/>
<path d="M163.146 254.886C162.331 255.347 162.331 256.091 163.146 256.588C163.603 256.816 164.106 256.934 164.616 256.934C165.126 256.934 165.63 256.816 166.086 256.588C166.901 256.091 166.901 255.347 166.086 254.886C165.63 254.658 165.126 254.539 164.616 254.539C164.106 254.539 163.603 254.658 163.146 254.886Z" fill="#16110D"/>
<path d="M155.496 250.488C154.681 250.949 154.681 251.694 155.496 252.155C155.952 252.383 156.456 252.502 156.966 252.502C157.476 252.502 157.979 252.383 158.436 252.155C159.25 251.694 159.25 250.949 158.436 250.488C157.984 250.243 157.479 250.115 156.966 250.115C156.452 250.115 155.947 250.243 155.496 250.488Z" fill="#16110D"/>
<path d="M147.845 246.056C147.661 246.109 147.499 246.221 147.384 246.375C147.269 246.528 147.207 246.715 147.207 246.907C147.207 247.098 147.269 247.285 147.384 247.439C147.499 247.592 147.661 247.704 147.845 247.758C148.301 247.986 148.804 248.104 149.315 248.104C149.825 248.104 150.328 247.986 150.785 247.758C150.952 247.688 151.096 247.57 151.197 247.418C151.297 247.267 151.351 247.089 151.351 246.907C151.351 246.725 151.297 246.547 151.197 246.395C151.096 246.244 150.952 246.126 150.785 246.056C150.328 245.828 149.825 245.709 149.315 245.709C148.804 245.709 148.301 245.828 147.845 246.056Z" fill="#16110D"/>
<path d="M140.193 241.658C139.378 242.119 139.378 242.864 140.193 243.325C140.643 243.552 141.141 243.671 141.645 243.671C142.15 243.671 142.647 243.552 143.097 243.325C143.912 242.864 143.912 242.119 143.097 241.658C142.653 241.413 142.153 241.284 141.645 241.284C141.137 241.284 140.638 241.413 140.193 241.658Z" fill="#16110D"/>
<path d="M132.542 237.225C132.358 237.279 132.196 237.391 132.081 237.544C131.966 237.698 131.904 237.884 131.904 238.076C131.904 238.268 131.966 238.455 132.081 238.608C132.196 238.762 132.358 238.874 132.542 238.927C132.992 239.155 133.49 239.273 133.994 239.273C134.499 239.273 134.996 239.155 135.446 238.927C135.63 238.874 135.792 238.762 135.907 238.608C136.022 238.455 136.084 238.268 136.084 238.076C136.084 237.884 136.022 237.698 135.907 237.544C135.792 237.391 135.63 237.279 135.446 237.225C134.996 236.997 134.499 236.879 133.994 236.879C133.49 236.879 132.992 236.997 132.542 237.225Z" fill="#16110D"/>
<path d="M124.857 232.828C124.686 232.89 124.538 233.003 124.434 233.152C124.329 233.301 124.273 233.479 124.273 233.661C124.273 233.843 124.329 234.021 124.434 234.17C124.538 234.319 124.686 234.432 124.857 234.494C125.313 234.722 125.817 234.841 126.327 234.841C126.837 234.841 127.34 234.722 127.797 234.494C128.611 234.033 128.611 233.289 127.797 232.828C127.34 232.6 126.837 232.481 126.327 232.481C125.817 232.481 125.313 232.6 124.857 232.828Z" fill="#16110D"/>
<path d="M117.206 228.395C117.022 228.449 116.86 228.561 116.745 228.714C116.63 228.868 116.568 229.054 116.568 229.246C116.568 229.438 116.63 229.624 116.745 229.778C116.86 229.931 117.022 230.043 117.206 230.097C117.662 230.325 118.166 230.444 118.676 230.444C119.186 230.444 119.689 230.325 120.146 230.097C120.33 230.043 120.491 229.931 120.606 229.778C120.721 229.624 120.783 229.438 120.783 229.246C120.783 229.054 120.721 228.868 120.606 228.714C120.491 228.561 120.33 228.449 120.146 228.395C119.689 228.167 119.186 228.048 118.676 228.048C118.166 228.048 117.662 228.167 117.206 228.395Z" fill="#16110D"/>
<path d="M109.554 223.997C108.74 224.458 108.74 225.203 109.554 225.664C110.011 225.892 110.514 226.011 111.024 226.011C111.535 226.011 112.038 225.892 112.494 225.664C113.309 225.203 113.309 224.458 112.494 223.997C112.038 223.77 111.535 223.651 111.024 223.651C110.514 223.651 110.011 223.77 109.554 223.997Z" fill="#16110D"/>
<path d="M101.903 219.565C101.719 219.619 101.558 219.731 101.443 219.884C101.328 220.037 101.266 220.224 101.266 220.416C101.266 220.608 101.328 220.794 101.443 220.948C101.558 221.101 101.719 221.213 101.903 221.267C102.36 221.495 102.863 221.614 103.373 221.614C103.883 221.614 104.387 221.495 104.843 221.267C105.011 221.197 105.154 221.079 105.255 220.927C105.356 220.776 105.41 220.598 105.41 220.416C105.41 220.234 105.356 220.056 105.255 219.904C105.154 219.753 105.011 219.635 104.843 219.565C104.387 219.337 103.883 219.218 103.373 219.218C102.863 219.218 102.36 219.337 101.903 219.565Z" fill="#16110D"/>
<path d="M94.2536 215.167C93.4389 215.628 93.4389 216.373 94.2536 216.834C94.6984 217.079 95.198 217.208 95.7058 217.208C96.2137 217.208 96.7131 217.079 97.158 216.834C97.9727 216.373 97.9727 215.628 97.158 215.167C96.7076 214.94 96.2103 214.821 95.7058 214.821C95.2014 214.821 94.7039 214.94 94.2536 215.167Z" fill="#16110D"/>
<path d="M86.6024 210.735C86.4185 210.788 86.2569 210.9 86.1419 211.054C86.0269 211.207 85.9648 211.394 85.9648 211.586C85.9648 211.778 86.0269 211.964 86.1419 212.118C86.2569 212.271 86.4185 212.383 86.6024 212.437C87.0527 212.665 87.5502 212.783 88.0546 212.783C88.5591 212.783 89.0565 212.665 89.5069 212.437C89.6908 212.383 89.8523 212.271 89.9673 212.118C90.0822 211.964 90.1444 211.778 90.1444 211.586C90.1444 211.394 90.0822 211.207 89.9673 211.054C89.8523 210.9 89.6908 210.788 89.5069 210.735C89.0565 210.507 88.5591 210.389 88.0546 210.389C87.5502 210.389 87.0527 210.507 86.6024 210.735Z" fill="#16110D"/>
<path d="M209.158 272.51C208.343 272.971 208.343 273.716 209.158 274.177C209.614 274.405 210.118 274.524 210.628 274.524C211.138 274.524 211.641 274.405 212.098 274.177C212.269 274.115 212.416 274.002 212.521 273.853C212.625 273.703 212.681 273.526 212.681 273.344C212.681 273.162 212.625 272.984 212.521 272.835C212.416 272.686 212.269 272.572 212.098 272.51C211.646 272.265 211.141 272.137 210.628 272.137C210.114 272.137 209.609 272.265 209.158 272.51Z" fill="#16110D"/>
<path d="M201.507 268.078C201.323 268.131 201.161 268.243 201.046 268.397C200.931 268.55 200.869 268.737 200.869 268.929C200.869 269.12 200.931 269.307 201.046 269.461C201.161 269.614 201.323 269.726 201.507 269.78C201.963 270.008 202.466 270.126 202.977 270.126C203.487 270.126 203.99 270.008 204.447 269.78C204.614 269.71 204.758 269.592 204.859 269.44C204.96 269.289 205.013 269.111 205.013 268.929C205.013 268.747 204.96 268.569 204.859 268.417C204.758 268.266 204.614 268.148 204.447 268.078C203.99 267.85 203.487 267.731 202.977 267.731C202.466 267.731 201.963 267.85 201.507 268.078Z" fill="#16110D"/>
<path d="M193.855 263.68C193.04 264.141 193.04 264.886 193.855 265.347C194.306 265.574 194.803 265.693 195.307 265.693C195.812 265.693 196.309 265.574 196.76 265.347C197.574 264.886 197.574 264.141 196.76 263.68C196.315 263.435 195.815 263.306 195.307 263.306C194.8 263.306 194.3 263.435 193.855 263.68Z" fill="#16110D"/>
<path d="M186.204 259.247C186.02 259.301 185.858 259.413 185.743 259.567C185.629 259.72 185.566 259.907 185.566 260.099C185.566 260.29 185.629 260.477 185.743 260.631C185.858 260.784 186.02 260.896 186.204 260.95C186.654 261.177 187.152 261.296 187.656 261.296C188.161 261.296 188.658 261.177 189.108 260.95C189.292 260.896 189.454 260.784 189.569 260.631C189.684 260.477 189.746 260.29 189.746 260.099C189.746 259.907 189.684 259.72 189.569 259.567C189.454 259.413 189.292 259.301 189.108 259.247C188.658 259.02 188.161 258.901 187.656 258.901C187.152 258.901 186.654 259.02 186.204 259.247Z" fill="#16110D"/>
<path d="M178.519 254.85C178.348 254.912 178.2 255.025 178.096 255.175C177.992 255.324 177.936 255.501 177.936 255.683C177.936 255.865 177.992 256.043 178.096 256.192C178.2 256.341 178.348 256.455 178.519 256.517C178.976 256.745 179.479 256.863 179.989 256.863C180.499 256.863 181.002 256.745 181.459 256.517C182.274 256.056 182.274 255.311 181.459 254.85C181.002 254.622 180.499 254.503 179.989 254.503C179.479 254.503 178.976 254.622 178.519 254.85Z" fill="#16110D"/>
<path d="M170.868 250.417C170.684 250.471 170.523 250.583 170.408 250.737C170.293 250.89 170.23 251.077 170.23 251.268C170.23 251.46 170.293 251.647 170.408 251.8C170.523 251.954 170.684 252.066 170.868 252.12C171.325 252.347 171.828 252.466 172.338 252.466C172.848 252.466 173.351 252.347 173.808 252.12C173.992 252.066 174.154 251.954 174.268 251.8C174.383 251.647 174.446 251.46 174.446 251.268C174.446 251.077 174.383 250.89 174.268 250.737C174.154 250.583 173.992 250.471 173.808 250.417C173.351 250.189 172.848 250.071 172.338 250.071C171.828 250.071 171.325 250.189 170.868 250.417Z" fill="#16110D"/>
<path d="M163.216 246.02C162.402 246.481 162.402 247.226 163.216 247.687C163.668 247.932 164.173 248.06 164.686 248.06C165.2 248.06 165.705 247.932 166.156 247.687C166.971 247.226 166.971 246.481 166.156 246.02C165.7 245.792 165.197 245.673 164.686 245.673C164.176 245.673 163.673 245.792 163.216 246.02Z" fill="#16110D"/>
<path d="M155.565 241.587C155.381 241.641 155.22 241.753 155.105 241.906C154.99 242.059 154.928 242.246 154.928 242.438C154.928 242.63 154.99 242.816 155.105 242.97C155.22 243.123 155.381 243.235 155.565 243.289C156.022 243.517 156.525 243.636 157.035 243.636C157.545 243.636 158.049 243.517 158.505 243.289C158.673 243.219 158.816 243.101 158.917 242.949C159.018 242.798 159.072 242.62 159.072 242.438C159.072 242.256 159.018 242.078 158.917 241.926C158.816 241.775 158.673 241.657 158.505 241.587C158.049 241.359 157.545 241.24 157.035 241.24C156.525 241.24 156.022 241.359 155.565 241.587Z" fill="#16110D"/>
<path d="M147.916 237.19C147.101 237.651 147.101 238.396 147.916 238.857C148.361 239.102 148.86 239.23 149.368 239.23C149.876 239.23 150.375 239.102 150.82 238.857C151.635 238.396 151.635 237.651 150.82 237.19C150.37 236.962 149.872 236.844 149.368 236.844C148.863 236.844 148.366 236.962 147.916 237.19Z" fill="#16110D"/>
<path d="M140.264 232.757C140.081 232.81 139.919 232.922 139.804 233.076C139.689 233.229 139.627 233.416 139.627 233.608C139.627 233.8 139.689 233.986 139.804 234.14C139.919 234.293 140.081 234.405 140.264 234.459C140.715 234.687 141.212 234.805 141.717 234.805C142.221 234.805 142.719 234.687 143.169 234.459C143.353 234.405 143.515 234.293 143.629 234.14C143.744 233.986 143.807 233.8 143.807 233.608C143.807 233.416 143.744 233.229 143.629 233.076C143.515 232.922 143.353 232.81 143.169 232.757C142.719 232.529 142.221 232.411 141.717 232.411C141.212 232.411 140.715 232.529 140.264 232.757Z" fill="#16110D"/>
<path d="M132.578 228.36C132.407 228.422 132.259 228.535 132.155 228.684C132.05 228.833 131.994 229.011 131.994 229.193C131.994 229.375 132.05 229.553 132.155 229.702C132.259 229.851 132.407 229.964 132.578 230.026C133.029 230.272 133.534 230.4 134.048 230.4C134.561 230.4 135.066 230.272 135.517 230.026C136.332 229.565 136.332 228.821 135.517 228.36C135.061 228.132 134.558 228.013 134.048 228.013C133.537 228.013 133.034 228.132 132.578 228.36Z" fill="#16110D"/>
<path d="M124.927 223.927C124.113 224.423 124.113 225.168 124.927 225.629C125.384 225.857 125.887 225.975 126.397 225.975C126.907 225.975 127.411 225.857 127.867 225.629C128.682 225.168 128.682 224.423 127.867 223.927C127.411 223.699 126.907 223.58 126.397 223.58C125.887 223.58 125.384 223.699 124.927 223.927Z" fill="#16110D"/>
<path d="M117.277 219.529C116.462 219.99 116.462 220.735 117.277 221.231C117.734 221.459 118.237 221.578 118.747 221.578C119.257 221.578 119.76 221.459 120.217 221.231C121.032 220.735 121.032 219.99 120.217 219.529C119.76 219.301 119.257 219.183 118.747 219.183C118.237 219.183 117.734 219.301 117.277 219.529Z" fill="#16110D"/>
<path d="M112.566 215.097C112.11 214.869 111.607 214.75 111.097 214.75C110.586 214.75 110.083 214.869 109.627 215.097C108.812 215.593 108.812 216.338 109.627 216.799C110.083 217.027 110.586 217.145 111.097 217.145C111.607 217.145 112.11 217.027 112.566 216.799C113.346 216.338 113.346 215.593 112.566 215.097C111.787 214.6 113.346 215.593 112.566 215.097Z" fill="#16110D"/>
<path d="M101.974 210.699C101.16 211.16 101.16 211.905 101.974 212.402C102.425 212.629 102.922 212.748 103.427 212.748C103.931 212.748 104.428 212.629 104.879 212.402C105.693 211.905 102.789 210.238 101.974 210.699Z" fill="#16110D"/>
<path d="M94.3239 206.266C93.5092 206.763 93.5092 207.507 94.3239 207.968C94.7743 208.196 95.2717 208.314 95.7761 208.314C96.2806 208.314 96.778 208.196 97.2284 207.968C98.0431 207.614 95.1031 205.805 94.3239 206.266Z" fill="#16110D"/>
<path d="M216.807 268.078C216.624 268.131 216.462 268.243 216.347 268.397C216.232 268.55 216.17 268.737 216.17 268.929C216.17 269.12 216.232 269.307 216.347 269.461C216.462 269.614 216.624 269.726 216.807 269.78C217.264 270.008 217.767 270.126 218.277 270.126C218.788 270.126 219.291 270.008 219.747 269.78C219.931 269.726 220.093 269.614 220.208 269.461C220.323 269.307 220.385 269.12 220.385 268.929C220.385 268.737 220.323 268.55 220.208 268.397C220.093 268.243 219.931 268.131 219.747 268.078C219.291 267.85 218.788 267.731 218.277 267.731C217.767 267.731 217.264 267.85 216.807 268.078Z" fill="#16110D"/>
<path d="M209.158 263.68C208.343 264.141 208.343 264.886 209.158 265.347C209.614 265.575 210.118 265.694 210.628 265.694C211.138 265.694 211.641 265.575 212.098 265.347C212.269 265.285 212.416 265.172 212.521 265.022C212.625 264.873 212.681 264.696 212.681 264.514C212.681 264.332 212.625 264.154 212.521 264.005C212.416 263.856 212.269 263.742 212.098 263.68C211.646 263.435 211.141 263.307 210.628 263.307C210.114 263.307 209.609 263.435 209.158 263.68Z" fill="#16110D"/>
<path d="M201.507 259.247C201.323 259.301 201.161 259.413 201.046 259.567C200.931 259.72 200.869 259.907 200.869 260.099C200.869 260.29 200.931 260.477 201.046 260.631C201.161 260.784 201.323 260.896 201.507 260.95C201.957 261.177 202.455 261.296 202.959 261.296C203.464 261.296 203.961 261.177 204.411 260.95C204.595 260.896 204.757 260.784 204.872 260.631C204.987 260.477 205.049 260.29 205.049 260.099C205.049 259.907 204.987 259.72 204.872 259.567C204.757 259.413 204.595 259.301 204.411 259.247C203.961 259.02 203.464 258.901 202.959 258.901C202.455 258.901 201.957 259.02 201.507 259.247Z" fill="#16110D"/>
<path d="M193.855 254.85C193.04 255.311 193.04 256.056 193.855 256.517C194.306 256.744 194.803 256.863 195.307 256.863C195.812 256.863 196.309 256.744 196.76 256.517C197.574 256.056 197.574 255.311 196.76 254.85C196.309 254.622 195.812 254.504 195.307 254.504C194.803 254.504 194.306 254.622 193.855 254.85Z" fill="#16110D"/>
<path d="M186.204 250.417C186.02 250.471 185.858 250.583 185.743 250.737C185.629 250.89 185.566 251.077 185.566 251.268C185.566 251.46 185.629 251.647 185.743 251.8C185.858 251.954 186.02 252.066 186.204 252.12C186.654 252.347 187.152 252.466 187.656 252.466C188.161 252.466 188.658 252.347 189.108 252.12C189.292 252.066 189.454 251.954 189.569 251.8C189.684 251.647 189.746 251.46 189.746 251.268C189.746 251.077 189.684 250.89 189.569 250.737C189.454 250.583 189.292 250.471 189.108 250.417C188.658 250.19 188.161 250.071 187.656 250.071C187.152 250.071 186.654 250.19 186.204 250.417Z" fill="#16110D"/>
<path d="M178.519 246.02C178.348 246.082 178.2 246.195 178.096 246.344C177.992 246.494 177.936 246.671 177.936 246.853C177.936 247.035 177.992 247.213 178.096 247.362C178.2 247.511 178.348 247.625 178.519 247.687C178.97 247.932 179.475 248.06 179.989 248.06C180.502 248.06 181.008 247.932 181.459 247.687C182.274 247.226 182.274 246.481 181.459 246.02C181.002 245.792 180.499 245.673 179.989 245.673C179.479 245.673 178.976 245.792 178.519 246.02Z" fill="#16110D"/>
<path d="M173.808 241.587C173.351 241.359 172.848 241.24 172.338 241.24C171.828 241.24 171.325 241.359 170.868 241.587C170.684 241.641 170.523 241.753 170.408 241.906C170.293 242.059 170.23 242.246 170.23 242.438C170.23 242.63 170.293 242.816 170.408 242.97C170.523 243.123 170.684 243.235 170.868 243.289C171.325 243.517 171.828 243.636 172.338 243.636C172.848 243.636 173.351 243.517 173.808 243.289C173.992 243.235 174.154 243.123 174.268 242.97C174.383 242.816 174.446 242.63 174.446 242.438C174.446 242.246 174.383 242.059 174.268 241.906C174.154 241.753 173.992 241.641 173.808 241.587Z" fill="#16110D"/>
<path d="M166.156 237.19C165.7 236.962 165.197 236.843 164.686 236.843C164.176 236.843 163.673 236.962 163.216 237.19C162.402 237.651 162.402 238.396 163.216 238.857C163.668 239.102 164.173 239.23 164.686 239.23C165.2 239.23 165.705 239.102 166.156 238.857C166.971 238.396 166.971 237.651 166.156 237.19Z" fill="#16110D"/>
<path d="M158.505 232.757C158.049 232.529 157.545 232.41 157.035 232.41C156.525 232.41 156.022 232.529 155.565 232.757C155.381 232.81 155.22 232.922 155.105 233.076C154.99 233.229 154.928 233.416 154.928 233.608C154.928 233.8 154.99 233.986 155.105 234.14C155.22 234.293 155.381 234.405 155.565 234.459C156.022 234.687 156.525 234.806 157.035 234.806C157.545 234.806 158.049 234.687 158.505 234.459C158.673 234.389 158.816 234.271 158.917 234.119C159.018 233.968 159.072 233.79 159.072 233.608C159.072 233.426 159.018 233.248 158.917 233.096C158.816 232.945 158.673 232.827 158.505 232.757Z" fill="#16110D"/>
<path d="M147.916 228.359C147.101 228.82 147.101 229.565 147.916 230.026C148.361 230.271 148.86 230.4 149.368 230.4C149.876 230.4 150.375 230.271 150.82 230.026C151.635 229.565 151.635 228.82 150.82 228.359C150.37 228.132 149.872 228.013 149.368 228.013C148.863 228.013 148.366 228.132 147.916 228.359Z" fill="#16110D"/>
<path d="M140.265 223.926C139.451 224.423 139.451 225.168 140.265 225.629C140.716 225.856 141.213 225.975 141.718 225.975C142.222 225.975 142.719 225.856 143.17 225.629C143.984 225.345 141.045 223.465 140.265 223.926Z" fill="#16110D"/>
<path d="M224.388 263.68C223.574 264.141 223.574 264.886 224.388 265.347C224.845 265.575 225.348 265.694 225.858 265.694C226.369 265.694 226.872 265.575 227.328 265.347C228.143 264.886 228.143 264.141 227.328 263.68C226.877 263.435 226.372 263.307 225.858 263.307C225.345 263.307 224.84 263.435 224.388 263.68Z" fill="#16110D"/>
<path d="M216.807 259.247C216.624 259.301 216.462 259.413 216.347 259.567C216.232 259.72 216.17 259.907 216.17 260.099C216.17 260.29 216.232 260.477 216.347 260.63C216.462 260.784 216.624 260.896 216.807 260.95C217.264 261.178 217.767 261.296 218.277 261.296C218.788 261.296 219.291 261.178 219.747 260.95C219.931 260.896 220.093 260.784 220.208 260.63C220.323 260.477 220.385 260.29 220.385 260.099C220.385 259.907 220.323 259.72 220.208 259.567C220.093 259.413 219.931 259.301 219.747 259.247C219.291 259.02 218.788 258.901 218.277 258.901C217.767 258.901 217.264 259.02 216.807 259.247Z" fill="#16110D"/>
<path d="M209.158 254.85C208.343 255.311 208.343 256.056 209.158 256.517C209.614 256.745 210.118 256.863 210.628 256.863C211.138 256.863 211.641 256.745 212.098 256.517C212.269 256.455 212.416 256.341 212.521 256.192C212.625 256.043 212.681 255.865 212.681 255.683C212.681 255.501 212.625 255.324 212.521 255.175C212.416 255.025 212.269 254.912 212.098 254.85C211.641 254.622 211.138 254.503 210.628 254.503C210.118 254.503 209.614 254.622 209.158 254.85Z" fill="#16110D"/>
<path d="M201.507 250.417C201.323 250.471 201.161 250.583 201.046 250.737C200.931 250.89 200.869 251.077 200.869 251.268C200.869 251.46 200.931 251.647 201.046 251.8C201.161 251.954 201.323 252.066 201.507 252.12C201.957 252.347 202.455 252.466 202.959 252.466C203.464 252.466 203.961 252.347 204.411 252.12C204.595 252.066 204.757 251.954 204.872 251.8C204.987 251.647 205.049 251.46 205.049 251.268C205.049 251.077 204.987 250.89 204.872 250.737C204.757 250.583 204.595 250.471 204.411 250.417C203.961 250.19 203.464 250.071 202.959 250.071C202.455 250.071 201.957 250.19 201.507 250.417Z" fill="#16110D"/>
<path d="M193.855 246.02C193.04 246.481 193.04 247.226 193.855 247.687C194.3 247.932 194.8 248.06 195.307 248.06C195.815 248.06 196.315 247.932 196.76 247.687C197.574 247.226 197.574 246.481 196.76 246.02C196.309 245.792 195.812 245.674 195.307 245.674C194.803 245.674 194.306 245.792 193.855 246.02Z" fill="#16110D"/>
<path d="M232.11 259.247C231.942 259.317 231.799 259.436 231.698 259.587C231.597 259.739 231.543 259.917 231.543 260.099C231.543 260.281 231.597 260.459 231.698 260.61C231.799 260.761 231.942 260.88 232.11 260.95C232.566 261.178 233.07 261.296 233.58 261.296C234.09 261.296 234.593 261.178 235.05 260.95C235.234 260.896 235.395 260.784 235.51 260.63C235.625 260.477 235.687 260.29 235.687 260.099C235.687 259.907 235.625 259.72 235.51 259.567C235.395 259.413 235.234 259.301 235.05 259.247C234.593 259.02 234.09 258.901 233.58 258.901C233.07 258.901 232.566 259.02 232.11 259.247Z" fill="#16110D"/>
<path d="M224.388 254.85C223.574 255.311 223.574 256.056 224.388 256.517C224.845 256.745 225.348 256.863 225.858 256.863C226.369 256.863 226.872 256.745 227.328 256.517C228.143 256.056 228.143 255.311 227.328 254.85C226.872 254.622 226.369 254.503 225.858 254.503C225.348 254.503 224.845 254.622 224.388 254.85Z" fill="#16110D"/>
<path d="M216.807 250.417C216.624 250.471 216.462 250.583 216.347 250.737C216.232 250.89 216.17 251.077 216.17 251.268C216.17 251.46 216.232 251.647 216.347 251.8C216.462 251.954 216.624 252.066 216.807 252.12C217.264 252.347 217.767 252.466 218.277 252.466C218.788 252.466 219.291 252.347 219.747 252.12C219.931 252.066 220.093 251.954 220.208 251.8C220.323 251.647 220.385 251.46 220.385 251.268C220.385 251.077 220.323 250.89 220.208 250.737C220.093 250.583 219.931 250.471 219.747 250.417C219.291 250.189 218.788 250.071 218.277 250.071C217.767 250.071 217.264 250.189 216.807 250.417Z" fill="#16110D"/>
<path d="M209.158 246.02C208.343 246.481 208.343 247.226 209.158 247.687C209.609 247.932 210.114 248.06 210.628 248.06C211.141 248.06 211.646 247.932 212.098 247.687C212.269 247.625 212.416 247.511 212.521 247.362C212.625 247.213 212.681 247.035 212.681 246.853C212.681 246.671 212.625 246.494 212.521 246.344C212.416 246.195 212.269 246.082 212.098 246.02C211.641 245.792 211.138 245.673 210.628 245.673C210.118 245.673 209.614 245.792 209.158 246.02Z" fill="#16110D"/>
<path d="M201.507 241.587C201.323 241.641 201.161 241.753 201.046 241.906C200.931 242.059 200.869 242.246 200.869 242.438C200.869 242.63 200.931 242.816 201.046 242.97C201.161 243.123 201.323 243.235 201.507 243.289C201.957 243.517 202.455 243.635 202.959 243.635C203.464 243.635 203.961 243.517 204.411 243.289C204.595 243.235 204.757 243.123 204.872 242.97C204.987 242.816 205.049 242.63 205.049 242.438C205.049 242.246 204.987 242.059 204.872 241.906C204.757 241.753 204.595 241.641 204.411 241.587C203.961 241.359 203.464 241.241 202.959 241.241C202.455 241.241 201.957 241.359 201.507 241.587Z" fill="#16110D"/>
<path d="M239.797 254.85C238.982 255.311 238.982 256.056 239.797 256.517C240.247 256.744 240.744 256.863 241.249 256.863C241.753 256.863 242.251 256.744 242.701 256.517C243.516 256.056 243.516 255.311 242.701 254.85C242.251 254.622 241.753 254.504 241.249 254.504C240.744 254.504 240.247 254.622 239.797 254.85Z" fill="#16110D"/>
<path d="M232.11 250.417C231.942 250.487 231.799 250.606 231.698 250.757C231.597 250.908 231.543 251.086 231.543 251.268C231.543 251.45 231.597 251.628 231.698 251.78C231.799 251.931 231.942 252.05 232.11 252.12C232.566 252.347 233.07 252.466 233.58 252.466C234.09 252.466 234.593 252.347 235.05 252.12C235.234 252.066 235.395 251.954 235.51 251.8C235.625 251.647 235.687 251.46 235.687 251.268C235.687 251.077 235.625 250.89 235.51 250.737C235.395 250.583 235.234 250.471 235.05 250.417C234.593 250.189 234.09 250.071 233.58 250.071C233.07 250.071 232.566 250.189 232.11 250.417Z" fill="#16110D"/>
<path d="M224.388 246.02C223.574 246.481 223.574 247.226 224.388 247.687C224.84 247.932 225.345 248.06 225.858 248.06C226.372 248.06 226.877 247.932 227.328 247.687C228.143 247.226 228.143 246.481 227.328 246.02C226.872 245.792 226.369 245.673 225.858 245.673C225.348 245.673 224.845 245.792 224.388 246.02Z" fill="#16110D"/>
<path d="M216.807 241.587C216.624 241.641 216.462 241.753 216.347 241.906C216.232 242.059 216.17 242.246 216.17 242.438C216.17 242.63 216.232 242.816 216.347 242.97C216.462 243.123 216.624 243.235 216.807 243.289C217.264 243.517 217.767 243.636 218.277 243.636C218.788 243.636 219.291 243.517 219.747 243.289C219.931 243.235 220.093 243.123 220.208 242.97C220.323 242.816 220.385 242.63 220.385 242.438C220.385 242.246 220.323 242.059 220.208 241.906C220.093 241.753 219.931 241.641 219.747 241.587C219.291 241.359 218.788 241.24 218.277 241.24C217.767 241.24 217.264 241.359 216.807 241.587Z" fill="#16110D"/>
<path d="M247.446 250.417C247.262 250.471 247.101 250.583 246.986 250.737C246.871 250.89 246.809 251.077 246.809 251.268C246.809 251.46 246.871 251.647 246.986 251.8C247.101 251.954 247.262 252.066 247.446 252.12C247.897 252.347 248.394 252.466 248.898 252.466C249.403 252.466 249.9 252.347 250.351 252.12C250.535 252.066 250.696 251.954 250.811 251.8C250.926 251.647 250.988 251.46 250.988 251.268C250.988 251.077 250.926 250.89 250.811 250.737C250.696 250.583 250.535 250.471 250.351 250.417C249.9 250.19 249.403 250.071 248.898 250.071C248.394 250.071 247.897 250.19 247.446 250.417Z" fill="#16110D"/>
<path d="M241.248 248.076C242.382 248.076 243.302 247.537 243.302 246.871C243.302 246.205 242.382 245.665 241.248 245.665C240.113 245.665 239.193 246.205 239.193 246.871C239.193 247.537 240.113 248.076 241.248 248.076Z" fill="#16110D"/>
<path d="M232.11 241.587C231.942 241.657 231.799 241.775 231.698 241.926C231.597 242.078 231.543 242.256 231.543 242.438C231.543 242.62 231.597 242.798 231.698 242.949C231.799 243.101 231.942 243.219 232.11 243.289C232.566 243.517 233.07 243.636 233.58 243.636C234.09 243.636 234.593 243.517 235.05 243.289C235.234 243.235 235.395 243.123 235.51 242.97C235.625 242.816 235.687 242.63 235.687 242.438C235.687 242.246 235.625 242.059 235.51 241.906C235.395 241.753 235.234 241.641 235.05 241.587C234.593 241.359 234.09 241.24 233.58 241.24C233.07 241.24 232.566 241.359 232.11 241.587Z" fill="#16110D"/>
<path d="M224.388 237.19C223.574 237.651 223.574 238.396 224.388 238.857C224.84 239.102 225.345 239.23 225.858 239.23C226.372 239.23 226.877 239.102 227.328 238.857C228.143 238.396 228.143 237.651 227.328 237.19C226.872 236.962 226.369 236.843 225.858 236.843C225.348 236.843 224.845 236.962 224.388 237.19Z" fill="#16110D"/>
<path d="M255.097 246.02C254.283 246.481 254.283 247.226 255.097 247.687C255.549 247.932 256.054 248.06 256.567 248.06C257.081 248.06 257.586 247.932 258.037 247.687C258.208 247.625 258.356 247.511 258.46 247.362C258.565 247.213 258.621 247.035 258.621 246.853C258.621 246.671 258.565 246.494 258.46 246.344C258.356 246.195 258.208 246.082 258.037 246.02C257.581 245.792 257.077 245.673 256.567 245.673C256.057 245.673 255.554 245.792 255.097 246.02Z" fill="#16110D"/>
<path d="M248.935 243.68C250.07 243.68 250.99 243.14 250.99 242.474C250.99 241.808 250.07 241.268 248.935 241.268C247.801 241.268 246.881 241.808 246.881 242.474C246.881 243.14 247.801 243.68 248.935 243.68Z" fill="#16110D"/>
<path d="M241.248 239.246C242.382 239.246 243.302 238.707 243.302 238.041C243.302 237.375 242.382 236.835 241.248 236.835C240.113 236.835 239.193 237.375 239.193 238.041C239.193 238.707 240.113 239.246 241.248 239.246Z" fill="#16110D"/>
<path d="M232.11 232.757C231.942 232.827 231.799 232.945 231.698 233.096C231.597 233.248 231.543 233.426 231.543 233.608C231.543 233.79 231.597 233.968 231.698 234.119C231.799 234.271 231.942 234.389 232.11 234.459C232.566 234.687 233.07 234.806 233.58 234.806C234.09 234.806 234.593 234.687 235.05 234.459C235.234 234.405 235.395 234.293 235.51 234.14C235.625 233.986 235.687 233.8 235.687 233.608C235.687 233.416 235.625 233.229 235.51 233.076C235.395 232.922 235.234 232.81 235.05 232.757C234.593 232.529 234.09 232.41 233.58 232.41C233.07 232.41 232.566 232.529 232.11 232.757Z" fill="#16110D"/>
<path d="M262.749 241.587C262.565 241.641 262.403 241.753 262.288 241.906C262.174 242.059 262.111 242.246 262.111 242.438C262.111 242.63 262.174 242.816 262.288 242.97C262.403 243.123 262.565 243.235 262.749 243.289C263.205 243.517 263.709 243.636 264.219 243.636C264.729 243.636 265.232 243.517 265.689 243.289C265.873 243.235 266.034 243.123 266.149 242.97C266.264 242.816 266.326 242.63 266.326 242.438C266.326 242.246 266.264 242.059 266.149 241.906C266.034 241.753 265.873 241.641 265.689 241.587C265.232 241.359 264.729 241.24 264.219 241.24C263.709 241.24 263.205 241.359 262.749 241.587Z" fill="#16110D"/>
<path d="M255.097 237.19C254.283 237.651 254.283 238.396 255.097 238.857C255.549 239.102 256.054 239.23 256.567 239.23C257.081 239.23 257.586 239.102 258.037 238.857C258.208 238.794 258.356 238.681 258.46 238.532C258.565 238.383 258.621 238.205 258.621 238.023C258.621 237.841 258.565 237.663 258.46 237.514C258.356 237.365 258.208 237.252 258.037 237.19C257.581 236.962 257.077 236.843 256.567 236.843C256.057 236.843 255.554 236.962 255.097 237.19Z" fill="#16110D"/>
<path d="M248.935 234.849C250.07 234.849 250.99 234.309 250.99 233.643C250.99 232.977 250.07 232.438 248.935 232.438C247.801 232.438 246.881 232.977 246.881 233.643C246.881 234.309 247.801 234.849 248.935 234.849Z" fill="#16110D"/>
<path d="M239.797 228.359C238.982 228.82 238.982 229.565 239.797 230.026C240.241 230.271 240.741 230.4 241.249 230.4C241.757 230.4 242.256 230.271 242.701 230.026C243.516 229.565 243.516 228.82 242.701 228.359C242.251 228.132 241.753 228.013 241.249 228.013C240.744 228.013 240.247 228.132 239.797 228.359Z" fill="#16110D"/>
<path d="M270.435 237.154C269.621 237.615 269.621 238.36 270.435 238.821C270.892 239.049 271.395 239.168 271.905 239.168C272.415 239.168 272.919 239.049 273.375 238.821C274.19 238.36 274.19 237.615 273.375 237.154C272.924 236.909 272.419 236.781 271.905 236.781C271.392 236.781 270.886 236.909 270.435 237.154Z" fill="#16110D"/>
<path d="M262.82 232.722C262.005 233.183 262.005 233.927 262.82 234.424C263.277 234.652 263.78 234.77 264.29 234.77C264.8 234.77 265.303 234.652 265.76 234.424C266.539 233.927 266.539 233.183 265.76 232.722C265.303 232.494 264.8 232.375 264.29 232.375C263.78 232.375 263.277 232.494 262.82 232.722Z" fill="#16110D"/>
<path d="M255.17 228.324C254.355 228.785 254.355 229.53 255.17 229.991C255.62 230.218 256.117 230.337 256.622 230.337C257.126 230.337 257.624 230.218 258.074 229.991C258.889 229.53 258.889 228.785 258.074 228.324C257.629 228.079 257.13 227.95 256.622 227.95C256.114 227.95 255.614 228.079 255.17 228.324Z" fill="#16110D"/>
<path d="M247.518 223.891C247.334 223.945 247.173 224.057 247.058 224.21C246.943 224.364 246.881 224.55 246.881 224.742C246.881 224.934 246.943 225.121 247.058 225.274C247.173 225.428 247.334 225.54 247.518 225.593C247.969 225.821 248.466 225.939 248.971 225.939C249.475 225.939 249.973 225.821 250.423 225.593C250.607 225.54 250.768 225.428 250.883 225.274C250.998 225.121 251.06 224.934 251.06 224.742C251.06 224.55 250.998 224.364 250.883 224.21C250.768 224.057 250.607 223.945 250.423 223.891C249.973 223.663 249.475 223.545 248.971 223.545C248.466 223.545 247.969 223.663 247.518 223.891Z" fill="#16110D"/>
<path d="M278.121 232.722C277.306 233.183 277.306 233.927 278.121 234.424C278.577 234.652 279.08 234.77 279.591 234.77C280.101 234.77 280.604 234.652 281.061 234.424C281.875 233.927 281.875 233.183 281.061 232.722C280.604 232.494 280.101 232.375 279.591 232.375C279.08 232.375 278.577 232.494 278.121 232.722Z" fill="#16110D"/>
<path d="M270.435 228.324C269.621 228.785 269.621 229.53 270.435 229.991C270.892 230.218 271.395 230.337 271.905 230.337C272.415 230.337 272.919 230.218 273.375 229.991C274.19 229.53 274.19 228.785 273.375 228.324C272.924 228.079 272.419 227.95 271.905 227.95C271.392 227.95 270.886 228.079 270.435 228.324Z" fill="#16110D"/>
<path d="M262.819 223.891C262.635 223.945 262.474 224.057 262.359 224.21C262.244 224.364 262.182 224.55 262.182 224.742C262.182 224.934 262.244 225.121 262.359 225.274C262.474 225.428 262.635 225.539 262.819 225.593C263.276 225.821 263.779 225.94 264.289 225.94C264.799 225.94 265.302 225.821 265.759 225.593C265.927 225.523 266.07 225.405 266.171 225.254C266.272 225.102 266.326 224.924 266.326 224.742C266.326 224.56 266.272 224.382 266.171 224.231C266.07 224.079 265.927 223.961 265.759 223.891C265.302 223.663 264.799 223.544 264.289 223.544C263.779 223.544 263.276 223.663 262.819 223.891Z" fill="#16110D"/>
<path d="M255.17 219.494C254.355 219.955 254.355 220.7 255.17 221.161C255.62 221.388 256.117 221.507 256.622 221.507C257.126 221.507 257.624 221.388 258.074 221.161C258.889 220.7 258.889 219.955 258.074 219.494C257.629 219.249 257.13 219.12 256.622 219.12C256.114 219.12 255.614 219.249 255.17 219.494Z" fill="#16110D"/>
<path d="M285.771 228.324C285.6 228.386 285.452 228.499 285.348 228.648C285.244 228.797 285.188 228.975 285.188 229.157C285.188 229.339 285.244 229.517 285.348 229.666C285.452 229.815 285.6 229.928 285.771 229.991C286.227 230.218 286.731 230.337 287.241 230.337C287.751 230.337 288.254 230.218 288.711 229.991C289.526 229.53 289.526 228.785 288.711 228.324C288.26 228.079 287.754 227.95 287.241 227.95C286.727 227.95 286.222 228.079 285.771 228.324Z" fill="#16110D"/>
<path d="M278.122 223.891C277.938 223.945 277.777 224.057 277.662 224.21C277.547 224.364 277.484 224.55 277.484 224.742C277.484 224.934 277.547 225.121 277.662 225.274C277.777 225.428 277.938 225.539 278.122 225.593C278.579 225.821 279.082 225.94 279.592 225.94C280.102 225.94 280.605 225.821 281.062 225.593C281.246 225.539 281.407 225.428 281.522 225.274C281.637 225.121 281.699 224.934 281.699 224.742C281.699 224.55 281.637 224.364 281.522 224.21C281.407 224.057 281.246 223.945 281.062 223.891C280.605 223.663 280.102 223.544 279.592 223.544C279.082 223.544 278.579 223.663 278.122 223.891Z" fill="#16110D"/>
<path d="M270.435 219.494C269.621 219.955 269.621 220.699 270.435 221.16C270.892 221.388 271.395 221.507 271.905 221.507C272.415 221.507 272.919 221.388 273.375 221.16C274.19 220.699 274.19 219.955 273.375 219.494C272.924 219.249 272.419 219.12 271.905 219.12C271.392 219.12 270.886 219.249 270.435 219.494Z" fill="#16110D"/>
<path d="M262.819 215.061C262.635 215.115 262.474 215.227 262.359 215.38C262.244 215.534 262.182 215.72 262.182 215.912C262.182 216.104 262.244 216.29 262.359 216.444C262.474 216.597 262.635 216.709 262.819 216.763C263.276 216.991 263.779 217.11 264.289 217.11C264.799 217.11 265.302 216.991 265.759 216.763C265.927 216.693 266.07 216.575 266.171 216.423C266.272 216.272 266.326 216.094 266.326 215.912C266.326 215.73 266.272 215.552 266.171 215.401C266.07 215.249 265.927 215.131 265.759 215.061C265.302 214.833 264.799 214.714 264.289 214.714C263.779 214.714 263.276 214.833 262.819 215.061Z" fill="#16110D"/>
<path d="M293.458 223.891C293.274 223.945 293.112 224.057 292.997 224.21C292.882 224.364 292.82 224.55 292.82 224.742C292.82 224.934 292.882 225.121 292.997 225.274C293.112 225.428 293.274 225.54 293.458 225.593C293.908 225.821 294.406 225.939 294.91 225.939C295.415 225.939 295.912 225.821 296.362 225.593C296.546 225.54 296.708 225.428 296.823 225.274C296.938 225.121 297 224.934 297 224.742C297 224.55 296.938 224.364 296.823 224.21C296.708 224.057 296.546 223.945 296.362 223.891C295.912 223.663 295.415 223.545 294.91 223.545C294.406 223.545 293.908 223.663 293.458 223.891Z" fill="#16110D"/>
<path d="M285.771 219.494C285.6 219.556 285.452 219.669 285.348 219.818C285.244 219.967 285.188 220.145 285.188 220.327C285.188 220.509 285.244 220.687 285.348 220.836C285.452 220.985 285.6 221.098 285.771 221.16C286.227 221.388 286.731 221.507 287.241 221.507C287.751 221.507 288.254 221.388 288.711 221.16C289.526 220.699 289.526 219.955 288.711 219.494C288.26 219.249 287.754 219.12 287.241 219.12C286.727 219.12 286.222 219.249 285.771 219.494Z" fill="#16110D"/>
<path d="M278.122 215.061C277.938 215.115 277.777 215.227 277.662 215.38C277.547 215.534 277.484 215.72 277.484 215.912C277.484 216.104 277.547 216.29 277.662 216.444C277.777 216.597 277.938 216.709 278.122 216.763C278.579 216.991 279.082 217.11 279.592 217.11C280.102 217.11 280.605 216.991 281.062 216.763C281.246 216.709 281.407 216.597 281.522 216.444C281.637 216.29 281.699 216.104 281.699 215.912C281.699 215.72 281.637 215.534 281.522 215.38C281.407 215.227 281.246 215.115 281.062 215.061C280.605 214.833 280.102 214.714 279.592 214.714C279.082 214.714 278.579 214.833 278.122 215.061Z" fill="#16110D"/>
<path d="M270.435 210.663C269.621 211.124 269.621 211.869 270.435 212.33C270.892 212.558 271.395 212.677 271.905 212.677C272.415 212.677 272.919 212.558 273.375 212.33C274.19 211.869 274.19 211.124 273.375 210.663C272.919 210.436 272.415 210.317 271.905 210.317C271.395 210.317 270.892 210.436 270.435 210.663Z" fill="#16110D"/>
<path d="M293.245 214.706C293.061 214.76 292.899 214.872 292.784 215.026C292.67 215.179 292.607 215.366 292.607 215.558C292.607 215.749 292.67 215.936 292.784 216.089C292.899 216.243 293.061 216.355 293.245 216.409C293.695 216.636 294.193 216.755 294.697 216.755C295.202 216.755 295.699 216.636 296.149 216.409C296.333 216.355 296.495 216.243 296.61 216.089C296.725 215.936 296.787 215.749 296.787 215.558C296.787 215.366 296.725 215.179 296.61 215.026C296.495 214.872 296.333 214.76 296.149 214.706C295.699 214.479 295.202 214.36 294.697 214.36C294.193 214.36 293.695 214.479 293.245 214.706Z" fill="#16110D"/>
<path d="M285.595 210.238C284.781 210.699 284.781 211.444 285.595 211.905C286.04 212.15 286.54 212.279 287.048 212.279C287.555 212.279 288.055 212.15 288.5 211.905C289.315 211.444 289.315 210.699 288.5 210.238C288.05 210.011 287.552 209.892 287.048 209.892C286.543 209.892 286.046 210.011 285.595 210.238Z" fill="#16110D"/>
<path d="M277.909 205.806C277.129 206.302 277.129 207.047 277.909 207.508C278.365 207.736 278.868 207.854 279.379 207.854C279.889 207.854 280.392 207.736 280.849 207.508C281.663 207.047 281.663 206.302 280.849 205.806C280.392 205.578 279.889 205.459 279.379 205.459C278.868 205.459 278.365 205.578 277.909 205.806C278.723 205.345 277.129 206.302 277.909 205.806Z" fill="#16110D"/>
<path d="M294.734 207.898C295.869 207.898 296.788 207.358 296.788 206.692C296.788 206.026 295.869 205.486 294.734 205.486C293.599 205.486 292.68 206.026 292.68 206.692C292.68 207.358 293.599 207.898 294.734 207.898Z" fill="#16110D"/>
<path d="M285.595 201.408C284.781 201.869 284.781 202.614 285.595 203.11C286.046 203.338 286.543 203.456 287.048 203.456C287.552 203.456 288.05 203.338 288.5 203.11C289.315 202.614 289.315 201.869 288.5 201.408C288.05 201.181 287.552 201.062 287.048 201.062C286.543 201.062 286.046 201.181 285.595 201.408Z" fill="#16110D"/>
<path d="M90.1092 200.202L90.5343 176.123H288.889L288.641 199.599C288.641 200.202 288.641 199.599 288.641 200.202C288.126 202.358 287.127 204.369 285.722 206.083C284.317 207.797 282.542 209.169 280.53 210.096L206.678 252.935C196.76 258.68 181.884 259.283 173.277 254.353L95.812 209.635C94.0094 208.839 92.4951 207.506 91.4749 205.819C90.4547 204.131 89.9779 202.17 90.1092 200.202Z" fill="#FFBE2E"/>
<path d="M90.1089 200.202L90.5339 176.123H288.889L288.641 199.599C288.641 200.202 288.641 199.599 288.641 200.202C288.128 202.364 287.131 204.381 285.726 206.101C284.321 207.821 282.544 209.199 280.53 210.132L206.678 252.97C196.76 258.68 181.883 259.283 173.276 254.353L95.8117 209.635C94.0059 208.843 92.4887 207.512 91.4679 205.823C90.447 204.134 89.9724 202.171 90.1089 200.202Z" fill="#FFBE2E"/>
<path d="M187.586 258.964C182.314 259.09 177.096 257.87 172.426 255.417L95.1738 210.734C93.1652 209.813 91.4836 208.302 90.3515 206.402C89.2193 204.502 88.69 202.303 88.8336 200.096L89.0461 176.69L290.27 174.775L290.022 199.599C290.086 199.879 290.086 200.17 290.022 200.45C289.44 202.8 288.33 204.986 286.777 206.842C285.224 208.698 283.269 210.174 281.061 211.16L207.138 254.07C201.141 257.335 194.412 259.019 187.586 258.964ZM91.9505 177.4L91.3839 200.521C91.3 202.235 91.7443 203.933 92.6566 205.386C93.5689 206.839 94.9053 207.975 96.4845 208.642L173.737 253.219C181.919 257.935 196.335 257.332 205.828 251.836L279.856 208.997C281.697 208.171 283.326 206.937 284.62 205.389C285.915 203.841 286.841 202.019 287.33 200.06V199.67L287.578 177.471L91.9505 177.4Z" fill="#16110D"/>
<path d="M96.1315 186.336L173.384 231.019C181.955 235.984 196.903 235.345 206.785 229.636L280.814 186.797C290.696 181.088 291.794 172.612 283.223 167.47L205.97 122.504C197.399 117.539 182.451 118.142 172.569 123.887L98.5046 166.832C88.6223 172.541 87.5597 181.194 96.1315 186.336Z" fill="#FFBE2E"/>
<path d="M95.3522 195.096L172.604 239.814C181.176 244.779 196.124 244.14 206.006 238.431L280.035 195.592C289.917 189.847 291.015 181.407 282.443 176.265L205.156 131.547C196.619 126.617 181.672 127.22 171.79 132.93L97.7253 175.697C87.843 181.513 86.7804 190.166 95.3522 195.096Z" fill="#FFEECC"/>
<path d="M187.87 235.452C182.609 235.584 177.401 234.363 172.746 231.906L95.458 187.258C93.6311 186.402 92.0702 185.067 90.9412 183.393C89.8123 181.719 89.1577 179.771 89.0469 177.754C89.0469 173.322 92.2701 168.96 97.8665 165.697L171.895 122.858C182.132 116.936 197.717 116.333 206.608 121.475L283.86 166.158C285.691 167.021 287.257 168.363 288.391 170.042C289.525 171.72 290.187 173.674 290.306 175.698C290.306 180.095 287.083 184.492 281.451 187.755L207.422 230.594C201.424 233.853 194.694 235.525 187.87 235.452ZM191.412 120.553C185.045 120.489 178.767 122.051 173.171 125.093L99.1417 167.931C94.36 170.697 91.5972 174.279 91.5972 177.754C91.756 179.284 92.3143 180.745 93.2159 181.99C94.1174 183.235 95.3305 184.22 96.7331 184.847L173.985 229.53C182.167 234.282 196.584 233.679 206.112 228.147L280.14 185.308C284.958 182.79 287.685 179.244 287.685 175.698C287.526 174.173 286.972 172.716 286.077 171.472C285.182 170.228 283.978 169.24 282.585 168.605L205.297 123.709C201.023 121.497 196.257 120.411 191.448 120.553H191.412Z" fill="#16110D"/>
<path d="M189.676 234.175V257.651L199.7 255.843L214.399 248.928L284.603 207.401L288.995 202.011V176.123L286.09 183.606L271.001 192.471L199.912 232.473L189.676 234.175Z" fill="#16110D"/>
<path d="M181.282 233.572V257.155L175.154 255.311V231.764L181.282 233.572Z" fill="#16110D"/>
<path d="M94.7484 185.769V208.11L91.348 205.592L88.9395 190.308L90.0729 177.435L94.7484 185.769Z" fill="#16110D"/>
<path d="M184.894 196.195L164.811 184.599L212.557 154.03L237.777 168.605L184.894 196.195Z" fill="#FEBD33"/>
<path d="M184.858 190.698L162.26 177.648L212.486 145.483L240.504 161.512L184.858 190.698ZM167.36 177.542L185.071 187.684L235.014 161.512L212.592 148.569L167.36 177.542Z" fill="#16110D"/>
<path d="M161.695 209.635L141.611 198.004L154.859 190.344L174.942 201.975L161.695 209.635Z" fill="#FEBD33"/>
<path d="M161.658 204.067L138.918 190.946L154.822 181.726L177.562 194.883L161.658 204.067ZM144.231 190.946L161.658 201.018L172.284 194.883L154.857 184.811L144.231 190.946Z" fill="#16110D"/>
</g>
<defs>
<clipPath id="clip0_522_44171">
<rect width="211" height="161" fill="white" transform="translate(86 118)"/>
</clipPath>
</defs>
</svg>
