<svg width="188" height="24" viewBox="0 0 188 24" fill="none" xmlns="http://www.w3.org/2000/svg">
<g clip-path="url(#clip0_11757_48640)">
<path d="M35.6173 8.46049L30.0713 21.5907H33.5251L34.3885 19.3389H39.9346L40.8146 21.5907H44.2518L38.656 8.46049H35.6173ZM35.4679 16.5738L37.1283 12.2522L38.7888 16.5738H35.4679ZM51.2425 21.1106V21.7067H54.3476V8.07967H51.2425V12.9311C50.4746 12.4579 49.588 12.211 48.6853 12.2191C48.0603 12.2276 47.4432 12.36 46.87 12.6085C46.2967 12.8569 45.7787 13.2165 45.3461 13.6664C44.9135 14.1163 44.5748 14.6475 44.3499 15.229C44.125 15.8105 44.0183 16.4309 44.036 17.0539C44.0161 17.6792 44.121 18.3021 44.3447 18.8865C44.5684 19.4709 44.9064 20.0051 45.3391 20.4581C45.7717 20.9111 46.2903 21.2738 46.8648 21.5251C47.4393 21.7764 48.0581 21.9113 48.6853 21.9219C49.5865 21.9359 50.4732 21.6947 51.2425 21.2265V21.1106ZM49.2997 14.7524C49.6705 14.7433 50.0385 14.8192 50.3754 14.9742C50.7122 15.1292 51.0088 15.3592 51.2425 15.6465V18.3951C51.0072 18.6783 50.7093 18.9034 50.3723 19.0528C50.0353 19.2021 49.6682 19.2717 49.2997 19.2561C49.001 19.2543 48.7058 19.1921 48.432 19.0732C48.1581 18.9544 47.9113 18.7814 47.7064 18.5647C47.5015 18.348 47.3428 18.0921 47.2399 17.8126C47.1371 17.533 47.0921 17.2354 47.1078 16.938C47.0968 16.6425 47.145 16.3478 47.2498 16.0712C47.3545 15.7946 47.5137 15.5416 47.7179 15.3272C47.9221 15.1128 48.1672 14.9412 48.4389 14.8226C48.7105 14.704 49.0032 14.6407 49.2997 14.6365V14.7524ZM66.1868 12.2853L62.1352 21.7067H59.1796L55.1446 12.4012H58.4656L60.6906 17.7659L62.9323 12.4012L66.1868 12.2853ZM72.9284 21.0609V21.7067H76.0501V12.4012H72.9284V12.8979C72.1639 12.4169 71.275 12.1695 70.3712 12.186C69.7462 12.1966 69.1295 12.3311 68.5571 12.5816C67.9846 12.832 67.4678 13.1935 67.0367 13.6449C66.6056 14.0964 66.2689 14.6288 66.046 15.2112C65.8231 15.7936 65.7186 16.4143 65.7385 17.0374C65.7186 17.6604 65.8231 18.2812 66.046 18.8636C66.2689 19.446 66.6056 19.9784 67.0367 20.4298C67.4678 20.8812 67.9846 21.2427 68.5571 21.4932C69.1295 21.7436 69.7462 21.8781 70.3712 21.8888C71.275 21.9053 72.1639 21.6578 72.9284 21.1768V21.0609ZM70.9856 14.7193C71.3549 14.7094 71.7217 14.7833 72.0582 14.9353C72.3947 15.0873 72.6923 15.3135 72.9284 15.5969V18.3951C72.6914 18.6764 72.3933 18.9001 72.0567 19.0493C71.7201 19.1985 71.3538 19.2692 70.9856 19.2561C70.6884 19.2542 70.3947 19.1925 70.122 19.0746C69.8493 18.9568 69.6032 18.7854 69.3986 18.5705C69.1939 18.3556 69.0348 18.1017 68.9309 17.824C68.827 17.5464 68.7804 17.2507 68.7938 16.9546C68.7804 16.6578 68.827 16.3612 68.9307 16.0827C69.0344 15.8041 69.1932 15.5491 69.3977 15.3329C69.6021 15.1167 69.848 14.9437 70.1208 14.8241C70.3935 14.7044 70.6876 14.6407 70.9856 14.6365V14.7193ZM83.3562 12.0204C83.9109 12.0057 84.4624 12.1092 84.9738 12.3239C85.4852 12.5386 85.9448 12.8595 86.322 13.2653C86.6992 13.6712 86.9852 14.1526 87.161 14.6775C87.3367 15.2023 87.3982 15.7584 87.3414 16.3088V21.7067H84.2031V16.8884C84.2031 15.5637 83.5223 14.9346 82.5426 14.9346C82.2164 14.9656 81.9003 15.064 81.6144 15.2237C81.3285 15.3833 81.0791 15.6007 80.8821 15.8618V21.7067H77.7604V12.4012H80.8821V13.0304C81.6034 12.4281 82.5151 12.0997 83.4559 12.1032L83.3562 12.0204ZM98.3172 17.8818C98.1832 19.0435 97.5998 20.1072 96.691 20.8464C95.7823 21.5855 94.6201 21.9417 93.452 21.8391C92.7906 21.8779 92.1284 21.7803 91.5066 21.5522C90.8849 21.3241 90.317 20.9705 89.8385 20.5136C89.3601 20.0567 88.9813 19.5063 88.7259 18.8968C88.4705 18.2872 88.344 17.6317 88.3543 16.9712C88.3487 16.3127 88.4786 15.6601 88.7359 15.0537C88.9931 14.4472 89.3723 13.8998 89.85 13.4451C90.3277 12.9905 90.8938 12.6383 91.5133 12.4104C92.1328 12.1824 92.7926 12.0835 93.452 12.1197C94.614 12.0452 95.7598 12.4228 96.6485 13.1731C97.5372 13.9235 98.0996 14.9881 98.2175 16.1433H95.2785C95.2127 15.7213 94.9859 15.341 94.6455 15.0819C94.3051 14.8227 93.8775 14.7046 93.452 14.7524C93.1608 14.7423 92.8708 14.7935 92.6008 14.9026C92.3308 15.0116 92.0868 15.1762 91.8848 15.3854C91.6827 15.5947 91.5271 15.8441 91.4281 16.1173C91.329 16.3905 91.2888 16.6814 91.3099 16.9712C91.2865 17.263 91.325 17.5564 91.4228 17.8324C91.5205 18.1084 91.6755 18.3608 91.8775 18.5732C92.0795 18.7856 92.3241 18.9533 92.5954 19.0652C92.8666 19.1771 93.1585 19.2309 93.452 19.223C93.88 19.2704 94.3098 19.1501 94.6506 18.8875C94.9914 18.6249 95.2165 18.2406 95.2785 17.8156H98.2175L98.3172 17.8818ZM108.762 18.7097H105.673C105.512 18.93 105.299 19.1072 105.053 19.2256C104.807 19.3441 104.535 19.4 104.262 19.3886C103.793 19.4232 103.327 19.2931 102.945 19.0209C102.563 18.7486 102.289 18.3515 102.17 17.8984H108.811C108.844 17.5514 108.844 17.2022 108.811 16.8553C108.831 16.2284 108.719 15.6044 108.484 15.0226C108.25 14.4408 107.896 13.9139 107.447 13.4752C106.998 13.0364 106.462 12.6953 105.874 12.4734C105.285 12.2515 104.657 12.1536 104.029 12.186C103.374 12.1436 102.717 12.2392 102.101 12.4664C101.485 12.6937 100.924 13.0476 100.455 13.5051C99.9849 13.9626 99.6169 14.5135 99.3745 15.122C99.1321 15.7306 99.0208 16.3831 99.0478 17.0374C99.0276 17.6992 99.1467 18.3579 99.3976 18.9709C99.6485 19.5839 100.026 20.1377 100.504 20.5964C100.983 21.0551 101.553 21.4086 102.177 21.6341C102.802 21.8596 103.467 21.952 104.129 21.9053C105.134 21.9934 106.138 21.729 106.969 21.1578C107.799 20.5865 108.404 19.7441 108.679 18.776L108.762 18.7097ZM103.996 14.5869C104.222 14.5593 104.451 14.5783 104.67 14.6429C104.888 14.7075 105.091 14.8161 105.265 14.9621C105.439 15.1081 105.582 15.2883 105.684 15.4915C105.785 15.6947 105.844 15.9165 105.856 16.1433H102.037C102.12 15.6919 102.365 15.2859 102.725 14.9999C103.085 14.7139 103.536 14.5673 103.996 14.5869ZM120.02 19.3886L120.9 21.6404H124.354L118.874 8.46049H115.785L110.223 21.7067H113.677L114.54 19.4548L120.02 19.3886ZM117.247 12.3019L118.907 16.6234H115.586L117.247 12.3019ZM136.89 12.037C137.437 12.0364 137.977 12.1503 138.476 12.3713C138.976 12.5922 139.423 12.9153 139.789 13.3195C140.156 13.7238 140.433 14.2002 140.603 14.718C140.773 15.2358 140.832 15.7834 140.776 16.3254V21.7067H137.637V16.8884C137.637 15.5637 137.006 14.9346 135.977 14.9346C135.696 14.9422 135.421 15.015 135.173 15.1472C134.925 15.2794 134.711 15.4674 134.549 15.6962C134.565 15.9277 134.565 16.1601 134.549 16.3916V21.7067H131.427V16.8884C131.427 15.5637 130.78 14.9346 129.767 14.9346C129.485 14.9508 129.211 15.0345 128.968 15.1786C128.725 15.3227 128.521 15.523 128.372 15.7624V21.7067H125.333V12.4012H128.455V12.9476C129.092 12.3781 129.925 12.0756 130.78 12.1032C131.322 12.0882 131.861 12.1932 132.358 12.4108C132.854 12.6284 133.297 12.9531 133.652 13.3616C134.093 12.9404 134.614 12.612 135.184 12.3958C135.755 12.1796 136.363 12.0801 136.973 12.1032L136.89 12.037ZM151.453 18.7263H148.381C148.218 18.949 148.002 19.1277 147.753 19.2462C147.504 19.3647 147.229 19.4193 146.953 19.4051C146.484 19.4398 146.019 19.3097 145.636 19.0375C145.254 18.7652 144.98 18.368 144.861 17.9149H151.502C151.535 17.568 151.535 17.2187 151.502 16.8718C151.522 16.2449 151.41 15.6209 151.175 15.0392C150.941 14.4574 150.587 13.9305 150.138 13.4917C149.689 13.053 149.153 12.7119 148.565 12.49C147.976 12.2681 147.348 12.1702 146.72 12.2025C146.065 12.1602 145.408 12.2557 144.792 12.483C144.176 12.7102 143.615 13.0641 143.146 13.5216C142.676 13.9791 142.308 14.5301 142.066 15.1386C141.823 15.7472 141.712 16.3997 141.739 17.0539C141.721 17.7165 141.842 18.3755 142.095 18.9886C142.348 19.6016 142.726 20.1551 143.207 20.6136C143.687 21.072 144.258 21.4253 144.883 21.6506C145.508 21.8759 146.173 21.9683 146.837 21.9219C147.839 22.0092 148.842 21.7442 149.669 21.1728C150.497 20.6013 151.099 19.7593 151.37 18.7925L151.453 18.7263ZM146.687 14.6034C146.913 14.5758 147.142 14.5949 147.361 14.6595C147.579 14.724 147.782 14.8327 147.956 14.9787C148.131 15.1246 148.273 15.3048 148.375 15.508C148.476 15.7112 148.535 15.9331 148.547 16.1598H144.728C144.811 15.7085 145.056 15.3025 145.416 15.0165C145.776 14.7305 146.227 14.5838 146.687 14.6034ZM155.737 21.7232H152.615V12.4178H155.737V13.4112C156.622 12.6402 157.767 12.232 158.941 12.2687V15.0836C158.355 15.0589 157.769 15.1517 157.218 15.3564C156.668 15.5612 156.164 15.8738 155.737 16.2757V21.7232ZM159.905 9.20558C159.904 8.96942 159.952 8.73565 160.045 8.51827C160.137 8.3009 160.273 8.10438 160.443 7.94051C160.614 7.77664 160.816 7.64877 161.037 7.56457C161.258 7.48036 161.494 7.44156 161.731 7.45047C161.967 7.44386 162.202 7.48426 162.422 7.56929C162.643 7.65432 162.844 7.78229 163.014 7.94571C163.184 8.10913 163.32 8.30472 163.413 8.52105C163.506 8.73738 163.555 8.97008 163.558 9.20558C163.555 9.44108 163.506 9.67381 163.413 9.89014C163.32 10.1065 163.184 10.3021 163.014 10.4655C162.844 10.6289 162.643 10.7568 162.422 10.8419C162.202 10.9269 161.967 10.9673 161.731 10.9607C161.494 10.9696 161.258 10.9308 161.037 10.8466C160.816 10.7624 160.614 10.6346 160.443 10.4707C160.273 10.3068 160.137 10.1103 160.045 9.89289C159.952 9.67552 159.904 9.44175 159.905 9.20558ZM160.187 12.4178H163.309V21.7067H160.187V12.4178ZM174.251 17.8984C174.133 19.0536 173.571 20.1182 172.682 20.8685C171.793 21.6188 170.648 21.9964 169.486 21.9219C168.824 21.9607 168.162 21.863 167.54 21.635C166.918 21.4069 166.351 21.0534 165.872 20.5965C165.394 20.1396 165.015 19.5891 164.759 18.9795C164.504 18.37 164.378 17.7145 164.388 17.0539C164.382 16.3955 164.512 15.7429 164.769 15.1364C165.027 14.53 165.406 13.9826 165.884 13.528C166.361 13.0733 166.927 12.7212 167.547 12.4932C168.166 12.2652 168.826 12.1663 169.486 12.2025C170.648 12.128 171.793 12.5056 172.682 13.2559C173.571 14.0062 174.133 15.0709 174.251 16.2261H171.312C171.246 15.8041 171.019 15.4238 170.679 15.1646C170.339 14.9054 169.911 14.7874 169.486 14.8352C169.194 14.8252 168.904 14.8763 168.634 14.9854C168.364 15.0945 168.12 15.259 167.918 15.4683C167.716 15.6775 167.561 15.9269 167.462 16.2001C167.363 16.4733 167.322 16.7642 167.343 17.0539C167.32 17.3457 167.359 17.6392 167.456 17.9152C167.554 18.1912 167.709 18.4436 167.911 18.656C168.113 18.8684 168.358 19.036 168.629 19.148C168.9 19.2599 169.192 19.3137 169.486 19.3058C169.914 19.3532 170.343 19.2329 170.684 18.9704C171.025 18.7078 171.25 18.3234 171.312 17.8984H174.251ZM182.288 21.2099V21.7067H185.41V12.4012H182.288V12.8979C181.525 12.4124 180.635 12.1645 179.731 12.186C179.106 12.1966 178.489 12.3311 177.917 12.5816C177.344 12.832 176.827 13.1935 176.396 13.6449C175.965 14.0964 175.628 14.6288 175.405 15.2112C175.183 15.7936 175.078 16.4143 175.098 17.0374C175.087 17.6604 175.2 18.2795 175.431 18.8585C175.662 19.4376 176.006 19.965 176.444 20.4102C176.881 20.8554 177.403 21.2096 177.978 21.4521C178.554 21.6945 179.172 21.8205 179.797 21.8226C180.702 21.844 181.592 21.5962 182.354 21.1106L182.288 21.2099ZM180.412 14.6531C180.781 14.6432 181.148 14.7171 181.484 14.8691C181.821 15.0211 182.118 15.2473 182.354 15.5306V18.3951C182.117 18.6764 181.819 18.9001 181.483 19.0493C181.146 19.1985 180.78 19.2692 180.412 19.2561C180.114 19.2542 179.821 19.1925 179.548 19.0746C179.275 18.9568 179.029 18.7854 178.824 18.5705C178.62 18.3556 178.461 18.1017 178.357 17.824C178.253 17.5464 178.206 17.2507 178.22 16.9546C178.206 16.6578 178.253 16.3612 178.357 16.0827C178.46 15.8041 178.619 15.5491 178.824 15.3329C179.028 15.1167 179.274 14.9437 179.547 14.8241C179.819 14.7044 180.114 14.6407 180.412 14.6365V14.6531ZM188 20.796C188.002 20.6837 187.982 20.5721 187.94 20.4678C187.899 20.3634 187.837 20.2683 187.758 20.1881C187.679 20.108 187.585 20.0443 187.481 20.0008C187.377 19.9573 187.266 19.9349 187.153 19.935C186.924 19.935 186.704 20.0257 186.543 20.1872C186.381 20.3486 186.29 20.5677 186.29 20.796C186.29 20.9083 186.312 21.0194 186.356 21.123C186.399 21.2265 186.463 21.3204 186.544 21.399C186.624 21.4777 186.719 21.5395 186.824 21.5809C186.929 21.6224 187.04 21.6426 187.153 21.6404C187.378 21.6404 187.593 21.5515 187.752 21.3931C187.911 21.2348 188 21.02 188 20.796ZM187.153 21.4417C187.067 21.444 186.982 21.4289 186.903 21.3972C186.823 21.3656 186.751 21.3181 186.69 21.2576C186.629 21.1972 186.582 21.1252 186.55 21.0458C186.518 20.9664 186.503 20.8814 186.505 20.796C186.501 20.7092 186.514 20.6224 186.545 20.5411C186.576 20.4597 186.623 20.3856 186.684 20.3234C186.745 20.2612 186.818 20.2122 186.899 20.1795C186.979 20.1469 187.066 20.1312 187.153 20.1337C187.24 20.1336 187.325 20.1509 187.405 20.1844C187.484 20.2179 187.557 20.2669 187.617 20.3287C187.677 20.3904 187.725 20.4635 187.756 20.5438C187.788 20.624 187.803 20.7098 187.801 20.796C187.803 20.8814 187.788 20.9664 187.756 21.0458C187.724 21.1252 187.677 21.1972 187.616 21.2576C187.555 21.3181 187.483 21.3656 187.404 21.3972C187.324 21.4289 187.239 21.444 187.153 21.4417ZM187.585 20.6138C187.585 20.3655 187.452 20.3324 187.236 20.3324H186.804V21.2265H187.004V20.8457H187.153L187.352 21.2265H187.552L187.352 20.8457C187.383 20.8482 187.415 20.8439 187.444 20.8331C187.474 20.8223 187.5 20.8054 187.522 20.7833C187.544 20.7613 187.561 20.7347 187.572 20.7055C187.583 20.6762 187.587 20.6449 187.585 20.6138ZM187.253 20.7132H187.004V20.4979H187.203L187.402 20.5807L187.253 20.7132Z" fill="#072238"/>
<path d="M14.2195 15.7164C13.5587 15.1005 13.1248 14.2817 12.9873 13.3911C9.53593 14.8676 5.60573 17.7277 1.30762 22.9653L0.752849 23.7965V23.9535L0.857961 24H0.910518H0.945555C2.0084 23.4768 6.67442 21.0935 10.7798 20.5121L11.1419 20.0006L13.6296 16.5128L14.2195 15.7164ZM13.2325 11.1705L13.8866 10.2811C15.1538 8.5372 17.5657 7.41527 19.1015 6.90372L17.7993 0.108226C17.7938 0.0834503 17.7817 0.0606153 17.7642 0.0421793C17.7468 0.0237432 17.7245 0.0104031 17.7 0.00359006C17.6741 -0.00251745 17.6469 -0.000803715 17.6219 0.00851294C17.597 0.0178296 17.5754 0.0343257 17.5598 0.0559057L11.3054 8.99643H0.127984C0.100422 8.99752 0.0738622 9.00704 0.051921 9.02368C0.0299798 9.04032 0.0137262 9.06328 0.00535287 9.08944C-0.00251139 9.11696 -0.00169607 9.14622 0.00770534 9.17325C0.0171067 9.20029 0.0346375 9.22379 0.0579091 9.24058L5.99699 13.8213C8.25124 12.5639 10.6945 11.6767 13.2325 11.1938V11.1705ZM14.7684 10.9438C16.0597 10.773 17.3609 10.6875 18.6636 10.688C19.2125 10.688 19.7673 10.688 20.3162 10.7345C22.2603 10.8099 24.1682 11.2808 25.9225 12.1181L28.2 8.69415C26.7225 7.75243 23.9136 7.53153 23.9136 7.53153L24.626 5.50858H20.982L20.398 7.67686C19.3994 7.83963 16.17 9.02549 14.7859 10.9147L14.7684 10.9438ZM24.0304 12.6238C23.1925 12.3344 22.3248 12.1394 21.4433 12.0425C18.9729 11.7871 16.4765 12.0952 14.1435 12.9435C14.2136 15.0885 16.7306 16.1756 18.6169 16.3442C20.7776 16.5302 22.0915 16.6697 21.8813 17.4254C21.7587 17.8788 21.4725 18.4136 19.2592 18.4136C17.6471 18.3154 16.0708 17.8984 14.6224 17.1871L12.1405 20.6749C14.1494 21.8375 17.2562 22.0526 17.2562 22.0526L16.7131 23.9826H20.3513L20.7659 22.0759C25.7239 21.4364 27.0554 18.7392 27.4467 17.5765C27.7211 16.7511 28.2 14.2805 24.0245 12.647" fill="#072238"/>
</g>
<defs>
<clipPath id="clip0_11757_48640">
<rect width="188" height="24" fill="white"/>
</clipPath>
</defs>
</svg>
