<svg width="947" height="810" viewBox="0 0 947 810" fill="none" xmlns="http://www.w3.org/2000/svg">
<path d="M477.512 530.427C455.323 509.643 440.751 482.007 436.132 451.95C320.231 501.783 188.249 598.309 43.912 775.078L25.2818 803.133C25.2818 805.202 25.2818 804.987 25.2818 807.055L27.1305 810H30.5766H31.7532C67.4453 792.343 224.137 711.904 362.003 692.285L374.162 675.02L457.705 557.305L477.512 530.427ZM444.369 377.005L466.334 346.988C508.89 288.13 589.883 250.266 641.46 233.001L597.728 3.65262C597.545 2.81645 597.138 2.04577 596.551 1.42355C595.964 0.801333 595.218 0.351105 594.394 0.121165C593.522 -0.084964 592.61 -0.0271254 591.772 0.287312C590.933 0.601749 590.208 1.15849 589.687 1.88682L379.653 303.63H4.29791C3.37232 303.666 2.48041 303.987 1.74359 304.549C1.00677 305.111 0.460947 305.886 0.179758 306.769C-0.0843364 307.697 -0.0569567 308.685 0.258757 309.597C0.574471 310.51 1.16318 311.303 1.94468 311.87L201.388 466.469C277.089 424.032 359.137 394.088 444.369 377.79V377.005ZM495.946 369.354C539.31 363.587 583.007 360.703 626.752 360.721C645.186 360.721 663.817 360.721 682.251 362.291C747.535 364.834 811.606 380.725 870.517 408.984L947 293.428C897.384 261.645 803.055 254.189 803.055 254.189L826.98 185.915H704.607L684.996 259.094C651.462 264.587 543.013 304.61 496.535 368.373L495.946 369.354ZM806.977 426.053C778.842 416.286 749.701 409.705 720.1 406.434C637.14 397.814 553.306 408.213 474.962 436.844C477.316 509.238 561.839 545.926 625.183 551.616C697.744 557.894 741.869 562.602 734.809 588.107C730.69 603.41 721.081 621.46 646.755 621.46C592.618 618.145 539.684 604.072 491.044 580.063L407.697 697.778C475.159 737.017 579.489 744.276 579.489 744.276L561.251 809.411H683.428L697.351 745.061C863.849 723.48 908.562 632.447 921.702 593.208C930.919 565.349 947 481.968 806.781 426.838" fill="#FFC429"/>
</svg>
