<svg width="192" height="24" viewBox="0 0 192 24" fill="none" xmlns="http://www.w3.org/2000/svg">
<g clip-path="url(#clip0_1609_30383)">
<path d="M36.3749 8.46049L30.7109 21.5907H34.2382L35.12 19.3389H40.7841L41.6829 21.5907H45.1932L39.4783 8.46049H36.3749ZM36.2223 16.5738L37.9181 12.2522L39.614 16.5738H36.2223ZM52.3326 21.1106V21.7067H55.5037V8.07967H52.3326V12.9311C51.5483 12.4579 50.6429 12.211 49.721 12.2191C49.0827 12.2276 48.4525 12.36 47.867 12.6085C47.2816 12.8569 46.7526 13.2165 46.3107 13.6664C45.8689 14.1163 45.5231 14.6475 45.2934 15.229C45.0637 15.8105 44.9547 16.4309 44.9727 17.0539C44.9524 17.6792 45.0596 18.3021 45.2881 18.8865C45.5165 19.4709 45.8617 20.0051 46.3036 20.4581C46.7454 20.9111 47.2751 21.2738 47.8617 21.5251C48.4484 21.7764 49.0804 21.9113 49.721 21.9219C50.6414 21.9359 51.5469 21.6947 52.3326 21.2265V21.1106ZM50.3485 14.7524C50.7272 14.7433 51.103 14.8192 51.447 14.9742C51.791 15.1292 52.0939 15.3592 52.3326 15.6465V18.3951C52.0923 18.6783 51.7881 18.9034 51.4439 19.0528C51.0997 19.2021 50.7248 19.2717 50.3485 19.2561C50.0434 19.2543 49.742 19.1921 49.4623 19.0732C49.1826 18.9544 48.9305 18.7814 48.7213 18.5647C48.512 18.348 48.3499 18.0921 48.2449 17.8126C48.1398 17.533 48.0939 17.2354 48.11 16.938C48.0986 16.6425 48.1479 16.3478 48.2549 16.0712C48.3619 15.7946 48.5245 15.5416 48.733 15.3272C48.9416 15.1128 49.1919 14.9412 49.4693 14.8226C49.7467 14.704 50.0456 14.6407 50.3485 14.6365V14.7524ZM67.5949 12.2853L63.4571 21.7067H60.4385L56.3177 12.4012H59.7093L61.9817 17.7659L64.2711 12.4012L67.5949 12.2853ZM74.4799 21.0609V21.7067H77.668V12.4012H74.4799V12.8979C73.6991 12.4169 72.7913 12.1695 71.8683 12.186C71.23 12.1966 70.6002 12.3311 70.0155 12.5816C69.4309 12.832 68.9031 13.1935 68.4629 13.6449C68.0226 14.0964 67.6787 14.6288 67.451 15.2112C67.2234 15.7936 67.1167 16.4143 67.137 17.0374C67.1167 17.6604 67.2234 18.2812 67.451 18.8636C67.6787 19.446 68.0226 19.9784 68.4629 20.4298C68.9031 20.8812 69.4309 21.2427 70.0155 21.4932C70.6002 21.7436 71.23 21.8781 71.8683 21.8888C72.7913 21.9053 73.6991 21.6578 74.4799 21.1768V21.0609ZM72.4958 14.7193C72.873 14.7094 73.2475 14.7833 73.5912 14.9353C73.9349 15.0873 74.2387 15.3135 74.4799 15.5969V18.3951C74.2379 18.6764 73.9334 18.9001 73.5896 19.0493C73.2459 19.1985 72.8718 19.2692 72.4958 19.2561C72.1923 19.2542 71.8923 19.1925 71.6138 19.0746C71.3353 18.9568 71.084 18.7854 70.875 18.5705C70.6659 18.3556 70.5035 18.1017 70.3974 17.824C70.2912 17.5464 70.2436 17.2507 70.2573 16.9546C70.2436 16.6578 70.2912 16.3612 70.3971 16.0827C70.5031 15.8041 70.6653 15.5491 70.874 15.3329C71.0828 15.1167 71.3339 14.9437 71.6125 14.8241C71.8911 14.7044 72.1915 14.6407 72.4958 14.6365V14.7193ZM85.1296 12.0204C85.6961 12.0057 86.2593 12.1092 86.7816 12.3239C87.3039 12.5386 87.7733 12.8595 88.1585 13.2653C88.5436 13.6712 88.8358 14.1526 89.0153 14.6775C89.1948 15.2023 89.2576 15.7584 89.1995 16.3088V21.7067H85.9945V16.8884C85.9945 15.5637 85.2992 14.9346 84.2986 14.9346C83.9655 14.9656 83.6427 15.064 83.3507 15.2237C83.0587 15.3833 82.804 15.6007 82.6028 15.8618V21.7067H79.4147V12.4012H82.6028V13.0304C83.3394 12.4281 84.2705 12.0997 85.2313 12.1032L85.1296 12.0204ZM100.409 17.8818C100.272 19.0435 99.6762 20.1072 98.7481 20.8464C97.8201 21.5855 96.6332 21.9417 95.4401 21.8391C94.7647 21.8779 94.0884 21.7803 93.4534 21.5522C92.8184 21.3241 92.2385 20.9705 91.7498 20.5136C91.2612 20.0567 90.8743 19.5063 90.6135 18.8968C90.3527 18.2872 90.2235 17.6317 90.234 16.9712C90.2283 16.3127 90.361 15.6601 90.6237 15.0537C90.8864 14.4472 91.2737 13.8998 91.7615 13.4451C92.2494 12.9905 92.8275 12.6383 93.4602 12.4104C94.0929 12.1824 94.7668 12.0835 95.4401 12.1197C96.6269 12.0452 97.7971 12.4228 98.7047 13.1731C99.6123 13.9235 100.187 14.9881 100.307 16.1433H97.3055C97.2383 15.7213 97.0067 15.341 96.6591 15.0819C96.3115 14.8227 95.8748 14.7046 95.4401 14.7524C95.1428 14.7423 94.8466 14.7935 94.5708 14.9026C94.2951 15.0116 94.0459 15.1762 93.8396 15.3854C93.6332 15.5947 93.4743 15.8441 93.3732 16.1173C93.272 16.3905 93.2309 16.6814 93.2525 16.9712C93.2286 17.263 93.2679 17.5564 93.3678 17.8324C93.4676 18.1084 93.6259 18.3608 93.8322 18.5732C94.0385 18.7856 94.2883 18.9533 94.5653 19.0652C94.8424 19.1771 95.1404 19.2309 95.4401 19.223C95.8773 19.2704 96.3162 19.1501 96.6643 18.8875C97.0123 18.6249 97.2422 18.2406 97.3055 17.8156H100.307L100.409 17.8818ZM111.076 18.7097H107.921C107.757 18.93 107.539 19.1072 107.288 19.2256C107.036 19.3441 106.759 19.4 106.48 19.3886C106.001 19.4232 105.526 19.2931 105.135 19.0209C104.745 18.7486 104.465 18.3515 104.343 17.8984H111.126C111.16 17.5514 111.16 17.2022 111.126 16.8553C111.146 16.2284 111.032 15.6044 110.792 15.0226C110.553 14.4408 110.192 13.9139 109.733 13.4752C109.274 13.0364 108.727 12.6953 108.126 12.4734C107.525 12.2515 106.884 12.1536 106.242 12.186C105.573 12.1436 104.902 12.2392 104.273 12.4664C103.645 12.6937 103.072 13.0476 102.592 13.5051C102.112 13.9626 101.736 14.5135 101.489 15.122C101.241 15.7306 101.127 16.3831 101.155 17.0374C101.134 17.6992 101.256 18.3579 101.512 18.9709C101.769 19.5839 102.154 20.1377 102.643 20.5964C103.132 21.0551 103.714 21.4086 104.351 21.6341C104.989 21.8596 105.668 21.952 106.344 21.9053C107.371 21.9934 108.396 21.729 109.245 21.1578C110.093 20.5865 110.71 19.7441 110.991 18.776L111.076 18.7097ZM106.209 14.5869C106.439 14.5593 106.674 14.5783 106.897 14.6429C107.119 14.7075 107.326 14.8161 107.505 14.9621C107.683 15.1081 107.828 15.2883 107.932 15.4915C108.036 15.6947 108.096 15.9165 108.108 16.1433H104.207C104.293 15.6919 104.542 15.2859 104.91 14.9999C105.278 14.7139 105.739 14.5673 106.209 14.5869ZM122.573 19.3886L123.472 21.6404H126.999L121.403 8.46049H118.249L112.568 21.7067H116.095L116.977 19.4548L122.573 19.3886ZM119.741 12.3019L121.437 16.6234H118.045L119.741 12.3019ZM139.803 12.037C140.361 12.0364 140.912 12.1503 141.423 12.3713C141.933 12.5922 142.389 12.9153 142.764 13.3195C143.138 13.7238 143.421 14.2002 143.594 14.718C143.768 15.2358 143.828 15.7834 143.771 16.3254V21.7067H140.566V16.8884C140.566 15.5637 139.921 14.9346 138.87 14.9346C138.583 14.9422 138.302 15.015 138.049 15.1472C137.795 15.2794 137.577 15.4674 137.412 15.6962C137.428 15.9277 137.428 16.1601 137.412 16.3916V21.7067H134.223V16.8884C134.223 15.5637 133.562 14.9346 132.528 14.9346C132.24 14.9508 131.96 15.0345 131.712 15.1786C131.464 15.3227 131.255 15.523 131.103 15.7624V21.7067H128V12.4012H131.188V12.9476C131.838 12.3781 132.689 12.0756 133.562 12.1032C134.116 12.0882 134.666 12.1932 135.174 12.4108C135.681 12.6284 136.132 12.9531 136.496 13.3616C136.946 12.9404 137.478 12.612 138.061 12.3958C138.643 12.1796 139.265 12.0801 139.887 12.1032L139.803 12.037ZM154.675 18.7263H151.538C151.372 18.949 151.151 19.1277 150.897 19.2462C150.642 19.3647 150.361 19.4193 150.079 19.4051C149.601 19.4398 149.125 19.3097 148.735 19.0375C148.344 18.7652 148.064 18.368 147.943 17.9149H154.726C154.759 17.568 154.759 17.2187 154.726 16.8718C154.745 16.2449 154.632 15.6209 154.392 15.0392C154.152 14.4574 153.791 13.9305 153.332 13.4917C152.873 13.053 152.326 12.7119 151.725 12.49C151.125 12.2681 150.483 12.1702 149.842 12.2025C149.173 12.1602 148.502 12.2557 147.873 12.483C147.244 12.7102 146.671 13.0641 146.191 13.5216C145.711 13.9791 145.336 14.5301 145.088 15.1386C144.84 15.7472 144.727 16.3997 144.754 17.0539C144.736 17.7165 144.86 18.3755 145.118 18.9886C145.376 19.6016 145.763 20.1551 146.253 20.6136C146.744 21.072 147.327 21.4253 147.965 21.6506C148.604 21.8759 149.283 21.9683 149.961 21.9219C150.985 22.0092 152.008 21.7442 152.854 21.1728C153.699 20.6013 154.313 19.7593 154.59 18.7925L154.675 18.7263ZM149.808 14.6034C150.039 14.5758 150.273 14.5949 150.496 14.6595C150.719 14.724 150.926 14.8327 151.104 14.9787C151.282 15.1246 151.428 15.3048 151.531 15.508C151.635 15.7112 151.695 15.9331 151.707 16.1598H147.807C147.892 15.7085 148.142 15.3025 148.509 15.0165C148.877 14.7305 149.338 14.5838 149.808 14.6034ZM159.05 21.7232H155.862V12.4178H159.05V13.4112C159.954 12.6402 161.123 12.232 162.323 12.2687V15.0836C161.724 15.0589 161.125 15.1517 160.563 15.3564C160.001 15.5612 159.487 15.8738 159.05 16.2757V21.7232ZM163.307 9.20558C163.306 8.96942 163.355 8.73565 163.45 8.51827C163.544 8.3009 163.683 8.10438 163.857 7.94051C164.031 7.77664 164.237 7.64877 164.463 7.56457C164.689 7.48036 164.93 7.44156 165.172 7.45047C165.413 7.44386 165.653 7.48426 165.878 7.56929C166.103 7.65432 166.308 7.78229 166.482 7.94571C166.656 8.10913 166.794 8.30472 166.89 8.52105C166.985 8.73738 167.035 8.97008 167.037 9.20558C167.035 9.44108 166.985 9.67381 166.89 9.89014C166.794 10.1065 166.656 10.3021 166.482 10.4655C166.308 10.6289 166.103 10.7568 165.878 10.8419C165.653 10.9269 165.413 10.9673 165.172 10.9607C164.93 10.9696 164.689 10.9308 164.463 10.8466C164.237 10.7624 164.031 10.6346 163.857 10.4707C163.683 10.3068 163.544 10.1103 163.45 9.89289C163.355 9.67552 163.306 9.44175 163.307 9.20558ZM163.595 12.4178H166.783V21.7067H163.595V12.4178ZM177.958 17.8984C177.838 19.0536 177.264 20.1182 176.356 20.8685C175.448 21.6188 174.278 21.9964 173.091 21.9219C172.416 21.9607 171.74 21.863 171.105 21.635C170.47 21.4069 169.89 21.0534 169.401 20.5965C168.912 20.1396 168.526 19.5891 168.265 18.9795C168.004 18.37 167.875 17.7145 167.885 17.0539C167.88 16.3955 168.012 15.7429 168.275 15.1364C168.538 14.53 168.925 13.9826 169.413 13.528C169.901 13.0733 170.479 12.7212 171.112 12.4932C171.744 12.2652 172.418 12.1663 173.091 12.2025C174.278 12.128 175.448 12.5056 176.356 13.2559C177.264 14.0062 177.838 15.0709 177.958 16.2261H174.957C174.89 15.8041 174.658 15.4238 174.31 15.1646C173.963 14.9054 173.526 14.7874 173.091 14.8352C172.794 14.8252 172.498 14.8763 172.222 14.9854C171.946 15.0945 171.697 15.259 171.491 15.4683C171.285 15.6775 171.126 15.9269 171.024 16.2001C170.923 16.4733 170.882 16.7642 170.904 17.0539C170.88 17.3457 170.919 17.6392 171.019 17.9152C171.119 18.1912 171.277 18.4436 171.483 18.656C171.69 18.8684 171.94 19.036 172.217 19.148C172.494 19.2599 172.792 19.3137 173.091 19.3058C173.529 19.3532 173.968 19.2329 174.316 18.9704C174.664 18.7078 174.894 18.3234 174.957 17.8984H177.958ZM186.166 21.2099V21.7067H189.354V12.4012H186.166V12.8979C185.387 12.4124 184.478 12.1645 183.555 12.186C182.916 12.1966 182.286 12.3311 181.702 12.5816C181.117 12.832 180.589 13.1935 180.149 13.6449C179.709 14.0964 179.365 14.6288 179.137 15.2112C178.91 15.7936 178.803 16.4143 178.823 17.0374C178.812 17.6604 178.928 18.2795 179.164 18.8585C179.4 19.4376 179.751 19.965 180.198 20.4102C180.644 20.8554 181.177 21.2096 181.765 21.4521C182.353 21.6945 182.984 21.8205 183.622 21.8226C184.546 21.844 185.455 21.5962 186.234 21.1106L186.166 21.2099ZM184.25 14.6531C184.627 14.6432 185.002 14.7171 185.345 14.8691C185.689 15.0211 185.993 15.2473 186.234 15.5306V18.3951C185.992 18.6764 185.688 18.9001 185.344 19.0493C185 19.1985 184.626 19.2692 184.25 19.2561C183.946 19.2542 183.646 19.1925 183.368 19.0746C183.089 18.9568 182.838 18.7854 182.629 18.5705C182.42 18.3556 182.258 18.1017 182.151 17.824C182.045 17.5464 181.998 17.2507 182.011 16.9546C181.998 16.6578 182.045 16.3612 182.151 16.0827C182.257 15.8041 182.419 15.5491 182.628 15.3329C182.837 15.1167 183.088 14.9437 183.367 14.8241C183.645 14.7044 183.946 14.6407 184.25 14.6365V14.6531ZM192 20.796C192.002 20.6837 191.981 20.5721 191.939 20.4678C191.896 20.3634 191.833 20.2683 191.753 20.1881C191.672 20.108 191.576 20.0443 191.47 20.0008C191.364 19.9573 191.25 19.9349 191.135 19.935C190.901 19.935 190.677 20.0257 190.511 20.1872C190.346 20.3486 190.253 20.5677 190.253 20.796C190.253 20.9083 190.276 21.0194 190.32 21.123C190.365 21.2265 190.43 21.3204 190.512 21.399C190.594 21.4777 190.692 21.5395 190.799 21.5809C190.906 21.6224 191.02 21.6426 191.135 21.6404C191.364 21.6404 191.584 21.5515 191.746 21.3931C191.909 21.2348 192 21.02 192 20.796ZM191.135 21.4417C191.047 21.444 190.96 21.4289 190.879 21.3972C190.798 21.3656 190.724 21.3181 190.662 21.2576C190.6 21.1972 190.552 21.1252 190.519 21.0458C190.487 20.9664 190.471 20.8814 190.474 20.796C190.469 20.7092 190.483 20.6224 190.514 20.5411C190.545 20.4597 190.593 20.3856 190.656 20.3234C190.718 20.2612 190.792 20.2122 190.875 20.1795C190.957 20.1469 191.046 20.1312 191.135 20.1337C191.223 20.1336 191.311 20.1509 191.392 20.1844C191.473 20.2179 191.547 20.2669 191.609 20.3287C191.67 20.3904 191.719 20.4635 191.751 20.5438C191.783 20.624 191.799 20.7098 191.796 20.796C191.799 20.8814 191.783 20.9664 191.751 21.0458C191.718 21.1252 191.67 21.1972 191.608 21.2576C191.546 21.3181 191.472 21.3656 191.391 21.3972C191.309 21.4289 191.222 21.444 191.135 21.4417ZM191.576 20.6138C191.576 20.3655 191.44 20.3324 191.22 20.3324H190.779V21.2265H190.982V20.8457H191.135L191.338 21.2265H191.542L191.338 20.8457C191.37 20.8482 191.402 20.8439 191.432 20.8331C191.462 20.8223 191.489 20.8054 191.512 20.7833C191.535 20.7613 191.552 20.7347 191.563 20.7055C191.574 20.6762 191.578 20.6449 191.576 20.6138ZM191.237 20.7132H190.982V20.4979H191.186L191.389 20.5807L191.237 20.7132Z" fill="#0E406A"/>
<path d="M14.522 15.7164C13.8472 15.1005 13.404 14.2817 13.2636 13.3911C9.73882 14.8676 5.725 17.7277 1.33544 22.9653L0.768867 23.7965V23.9535L0.876216 24H0.92989H0.965673C2.05113 23.4768 6.81642 21.0935 11.0092 20.5121L11.3789 20.0006L13.9196 16.5128L14.522 15.7164ZM13.5141 11.1705L14.1821 10.2811C15.4763 8.5372 17.9394 7.41527 19.508 6.90372L18.178 0.108226C18.1724 0.0834503 18.1601 0.0606153 18.1422 0.0421793C18.1243 0.0237432 18.1017 0.0104031 18.0766 0.00359006C18.0501 -0.00251745 18.0223 -0.000803715 17.9969 0.00851294C17.9714 0.0178296 17.9493 0.0343257 17.9335 0.0559057L11.5459 8.99643H0.130707C0.102559 8.99752 0.0754337 9.00704 0.0530257 9.02368C0.0306177 9.04032 0.0140182 9.06328 0.00546676 9.08944C-0.00256482 9.11696 -0.00173216 9.14622 0.00786928 9.17325C0.0174707 9.20029 0.0353745 9.22379 0.0591412 9.24058L6.12459 13.8213C8.42679 12.5639 10.922 11.6767 13.5141 11.1938V11.1705ZM15.0826 10.9438C16.4014 10.773 17.7303 10.6875 19.0607 10.688C19.6213 10.688 20.1879 10.688 20.7485 10.7345C22.7339 10.8099 24.6824 11.2808 26.474 12.1181L28.8 8.69415C27.2911 7.75243 24.4224 7.53153 24.4224 7.53153L25.15 5.50858H21.4284L20.832 7.67686C19.8121 7.83963 16.514 9.02549 15.1005 10.9147L15.0826 10.9438ZM24.5416 12.6238C23.686 12.3344 22.7998 12.1394 21.8996 12.0425C19.3766 11.7871 16.827 12.0952 14.4445 12.9435C14.516 15.0885 17.0866 16.1756 19.013 16.3442C21.2197 16.5302 22.5616 16.6697 22.3469 17.4254C22.2216 17.8788 21.9294 18.4136 19.669 18.4136C18.0226 18.3154 16.4128 17.8984 14.9335 17.1871L12.3988 20.6749C14.4504 21.8375 17.6233 22.0526 17.6233 22.0526L17.0687 23.9826H20.7843L21.2077 22.0759C26.2712 21.4364 27.631 18.7392 28.0306 17.5765C28.3109 16.7511 28.8 14.2805 24.5357 12.647" fill="#FFC429"/>
</g>
<defs>
<clipPath id="clip0_1609_30383">
<rect width="192" height="24" fill="white"/>
</clipPath>
</defs>
</svg>
