<svg width="167" height="21" viewBox="0 0 167 21" fill="none" xmlns="http://www.w3.org/2000/svg">
<g clip-path="url(#clip0_498_46148)">
<path d="M11.6968 9.60073L12.272 8.83039C13.5048 7.48052 15.1043 6.49209 16.8888 5.97735L15.7383 0.142836L15.6498 0.0429688H15.5318L10.0005 7.71772H0.118003H0V7.8461L5.25101 11.7833C7.23847 10.6999 9.39594 9.93857 11.6378 9.52942L11.6968 9.60073ZM12.9948 9.31545C14.1382 9.16042 15.2917 9.08414 16.4463 9.0872H17.9213C19.6382 9.15956 21.323 9.56205 22.8773 10.2712L24.8833 7.33255C23.6963 6.77563 22.409 6.44624 21.0926 6.36252L21.7268 4.62215H18.4966L17.9656 6.4909C16.0466 6.9195 14.314 7.91694 13.0095 9.34396L12.9948 9.31545ZM12.5228 13.4524C11.9384 12.9253 11.5584 12.2204 11.446 11.4552C7.36767 13.3524 3.82502 16.1766 1.12101 19.6863L0.634252 20.3853V20.528H0.722749C3.4533 19.1193 6.38672 18.1143 9.42528 17.5465L9.73503 17.1043L11.9328 14.1229L12.5228 13.4524ZM21.1811 10.8133C20.441 10.5635 19.674 10.396 18.8948 10.314C16.7136 10.0976 14.5101 10.3609 12.449 11.0843C12.449 12.9103 14.7353 13.8518 16.402 13.9374C18.3195 14.0943 19.4701 14.2227 19.3521 14.8646C19.2341 15.2641 18.9833 15.7206 17.0363 15.7206C15.6102 15.6375 14.2158 15.2786 12.9358 14.6649L10.738 17.6464C12.1564 18.3147 13.693 18.7165 15.2663 18.8304L14.7795 20.4852H17.995L18.3638 18.8447C22.7888 18.3026 23.9246 15.9916 24.2638 14.9788C24.5146 14.2798 24.9423 12.1257 21.3138 10.6992" fill="#FFC429"/>
<path d="M31.6384 7.28972L26.7119 18.6021H29.7799L30.5469 16.662H35.4734L36.2552 18.6021H39.3085L34.3377 7.28972H31.6384ZM31.5057 14.2797L32.9807 10.5565L34.4557 14.2797H31.5057ZM45.5182 18.1884V18.702H48.2765V6.96162H45.5182V11.1414C44.8361 10.7337 44.0486 10.521 43.2467 10.5279C42.6915 10.5353 42.1434 10.6493 41.6341 10.8634C41.1249 11.0775 40.6648 11.3873 40.2805 11.7749C39.8962 12.1625 39.5954 12.6201 39.3956 13.1211C39.1958 13.6222 39.101 14.1566 39.1167 14.6934C39.099 15.2321 39.1923 15.7687 39.391 16.2722C39.5897 16.7757 39.8899 17.236 40.2742 17.6263C40.6585 18.0165 41.1192 18.329 41.6295 18.5455C42.1398 18.762 42.6896 18.8782 43.2467 18.8874C44.0472 18.8995 44.8349 18.6917 45.5182 18.2883V18.1884ZM43.7925 12.7105C44.1219 12.7027 44.4488 12.768 44.748 12.9016C45.0472 13.0351 45.3107 13.2333 45.5182 13.4809V15.8489C45.3092 16.0929 45.0447 16.2868 44.7453 16.4155C44.4459 16.5442 44.1198 16.6041 43.7925 16.5907C43.5272 16.5891 43.2649 16.5355 43.0217 16.4331C42.7784 16.3308 42.5591 16.1817 42.3771 15.995C42.1951 15.8083 42.0542 15.5879 41.9628 15.347C41.8714 15.1061 41.8315 14.8498 41.8455 14.5936C41.8356 14.339 41.8785 14.0851 41.9715 13.8467C42.0646 13.6084 42.206 13.3905 42.3874 13.2057C42.5688 13.021 42.7865 12.8732 43.0278 12.771C43.2691 12.6688 43.5291 12.6143 43.7925 12.6107V12.7105ZM58.7933 10.585L55.1942 18.702H52.5687L48.9845 10.6849H51.9345L53.911 15.3068L55.9023 10.6849L58.7933 10.585ZM64.7818 18.1456V18.702H67.5548V10.6849H64.7818V11.1128C64.1027 10.6984 63.3131 10.4852 62.5103 10.4994C61.955 10.5086 61.4072 10.6245 60.8987 10.8402C60.3902 11.056 59.9312 11.3674 59.5482 11.7564C59.1653 12.1453 58.8661 12.604 58.6682 13.1058C58.4702 13.6075 58.3773 14.1424 58.395 14.6791C58.3773 15.2159 58.4702 15.7508 58.6682 16.2525C58.8661 16.7543 59.1653 17.213 59.5482 17.6019C59.9312 17.9908 60.3902 18.3023 60.8987 18.518C61.4072 18.7338 61.955 18.8497 62.5103 18.8589C63.3131 18.8731 64.1027 18.6599 64.7818 18.2455V18.1456ZM63.056 12.682C63.3841 12.6735 63.7099 12.7372 64.0088 12.8681C64.3077 12.9991 64.572 13.194 64.7818 13.4381V15.8489C64.5713 16.0912 64.3065 16.284 64.0075 16.4125C63.7084 16.541 63.383 16.602 63.056 16.5907C62.792 16.589 62.5311 16.5359 62.2888 16.4344C62.0466 16.3329 61.828 16.1851 61.6462 16C61.4644 15.8148 61.3232 15.5961 61.2308 15.3569C61.1385 15.1177 61.0971 14.8629 61.109 14.6078C61.0971 14.3521 61.1385 14.0966 61.2306 13.8566C61.3228 13.6166 61.4638 13.397 61.6454 13.2107C61.827 13.0244 62.0455 12.8753 62.2878 12.7723C62.5301 12.6692 62.7913 12.6143 63.056 12.6107V12.682ZM74.0448 10.3568C74.5375 10.3441 75.0274 10.4333 75.4817 10.6182C75.936 10.8032 76.3443 11.0797 76.6793 11.4294C77.0143 11.779 77.2684 12.1938 77.4245 12.646C77.5807 13.0981 77.6353 13.5773 77.5848 14.0515V18.702H74.7971V14.5508C74.7971 13.4095 74.1923 12.8675 73.3221 12.8675C73.0323 12.8942 72.7515 12.979 72.4975 13.1166C72.2436 13.2541 72.022 13.4413 71.847 13.6663V18.702H69.074V10.6849H71.847V11.227C72.4877 10.708 73.2976 10.4251 74.1333 10.4281L74.0448 10.3568ZM87.3346 15.4067C87.2156 16.4076 86.6973 17.324 85.8901 17.9608C85.0829 18.5976 84.0505 18.9045 83.0128 18.8161C82.4254 18.8495 81.8371 18.7654 81.2848 18.5689C80.7325 18.3724 80.228 18.0678 79.803 17.6741C79.378 17.2805 79.0415 16.8063 78.8147 16.2811C78.5878 15.756 78.4754 15.1912 78.4846 14.6221C78.4796 14.0548 78.595 13.4926 78.8235 12.9701C79.0521 12.4476 79.3889 11.9759 79.8132 11.5842C80.2376 11.1926 80.7404 10.8892 81.2907 10.6928C81.841 10.4964 82.4271 10.4111 83.0128 10.4423C84.0451 10.3781 85.0629 10.7035 85.8523 11.3499C86.6418 11.9963 87.1413 12.9136 87.2461 13.9088H84.6353C84.5769 13.5453 84.3754 13.2177 84.0731 12.9944C83.7707 12.7711 83.3909 12.6694 83.0128 12.7105C82.7542 12.7019 82.4966 12.7459 82.2567 12.8399C82.0169 12.9339 81.8002 13.0756 81.6207 13.2559C81.4412 13.4362 81.303 13.6511 81.215 13.8865C81.127 14.1218 81.0913 14.3725 81.1101 14.6221C81.0893 14.8735 81.1234 15.1263 81.2103 15.3641C81.2972 15.6019 81.4348 15.8194 81.6143 16.0024C81.7937 16.1854 82.011 16.3298 82.2519 16.4262C82.4929 16.5227 82.7521 16.569 83.0128 16.5622C83.3931 16.603 83.7748 16.4994 84.0776 16.2732C84.3803 16.0469 84.5803 15.7158 84.6353 15.3496H87.2461L87.3346 15.4067ZM96.6124 16.12H93.8689C93.7258 16.3097 93.5365 16.4624 93.3178 16.5644C93.0991 16.6665 92.8577 16.7147 92.6151 16.7048C92.199 16.7347 91.7852 16.6226 91.4457 16.388C91.1062 16.1535 90.8624 15.8113 90.7566 15.421H96.6566C96.6855 15.122 96.6855 14.8212 96.6566 14.5222C96.6737 13.9822 96.5748 13.4445 96.3661 12.9433C96.1575 12.4421 95.8437 11.9881 95.4445 11.6101C95.0454 11.2321 94.5695 10.9382 94.0469 10.747C93.5244 10.5559 92.9665 10.4716 92.4086 10.4994C91.8265 10.4629 91.243 10.5452 90.696 10.741C90.1489 10.9368 89.6506 11.2417 89.2333 11.6359C88.816 12.03 88.4891 12.5047 88.2738 13.029C88.0585 13.5533 87.9596 14.1155 87.9836 14.6791C87.9656 15.2493 88.0715 15.8168 88.2944 16.345C88.5172 16.8731 88.8521 17.3502 89.2775 17.7454C89.7028 18.1407 90.2091 18.4452 90.7636 18.6395C91.3182 18.8337 91.9087 18.9133 92.4971 18.8732C93.3899 18.949 94.2822 18.7212 95.0199 18.2291C95.7577 17.7369 96.2948 17.0112 96.5386 16.177L96.6124 16.12ZM92.3791 12.5679C92.5799 12.5442 92.7836 12.5606 92.9775 12.6162C93.1714 12.6718 93.3514 12.7654 93.5064 12.8912C93.6613 13.017 93.7879 13.1722 93.8781 13.3473C93.9684 13.5223 94.0205 13.7135 94.0311 13.9088H90.6386C90.7129 13.52 90.9299 13.1701 91.2497 12.9238C91.5695 12.6774 91.9706 12.551 92.3791 12.5679V12.5679ZM106.613 16.7048L107.395 18.6449H110.463L105.595 7.28972H102.852L97.9104 18.702H100.978L101.745 16.7619L106.613 16.7048ZM104.15 10.5993L105.625 14.3225H102.675L104.15 10.5993ZM121.599 10.371C122.084 10.3706 122.564 10.4687 123.008 10.6591C123.452 10.8494 123.849 11.1277 124.174 11.476C124.5 11.8243 124.746 12.2348 124.897 12.6809C125.048 13.127 125.1 13.5988 125.05 14.0657V18.702H122.263V14.5508C122.263 13.4095 121.702 12.8675 120.788 12.8675C120.538 12.8741 120.294 12.9368 120.073 13.0507C119.853 13.1646 119.663 13.3265 119.519 13.5237C119.534 13.7231 119.534 13.9234 119.519 14.1228V18.702H116.746V14.5508C116.746 13.4095 116.171 12.8675 115.271 12.8675C115.021 12.8815 114.777 12.9535 114.562 13.0777C114.346 13.2018 114.164 13.3744 114.032 13.5807V18.702H111.333V10.6849H114.106V11.1556C114.672 10.6649 115.411 10.4043 116.171 10.4281C116.653 10.4151 117.131 10.5056 117.573 10.6931C118.014 10.8806 118.407 11.1603 118.723 11.5122C119.114 11.1494 119.577 10.8664 120.084 10.6802C120.591 10.4939 121.131 10.4082 121.673 10.4281L121.599 10.371ZM134.535 16.1342H131.806C131.662 16.3261 131.47 16.48 131.248 16.5822C131.027 16.6843 130.783 16.7313 130.537 16.7191C130.121 16.7489 129.708 16.6369 129.368 16.4023C129.029 16.1678 128.785 15.8256 128.679 15.4352H134.579C134.608 15.1363 134.608 14.8354 134.579 14.5365C134.596 13.9964 134.497 13.4588 134.289 12.9576C134.08 12.4563 133.766 12.0024 133.367 11.6244C132.968 11.2464 132.492 10.9525 131.969 10.7613C131.447 10.5701 130.889 10.4858 130.331 10.5137C129.749 10.4772 129.165 10.5595 128.618 10.7553C128.071 10.9511 127.573 11.256 127.156 11.6502C126.738 12.0443 126.411 12.519 126.196 13.0433C125.981 13.5676 125.882 14.1298 125.906 14.6934C125.89 15.2643 125.998 15.8321 126.222 16.3602C126.447 16.8884 126.783 17.3653 127.21 17.7602C127.636 18.1552 128.143 18.4596 128.699 18.6537C129.254 18.8478 129.845 18.9274 130.434 18.8874C131.325 18.9626 132.215 18.7343 132.951 18.242C133.686 17.7497 134.22 17.0242 134.461 16.1913L134.535 16.1342ZM130.301 12.5821C130.502 12.5584 130.706 12.5748 130.9 12.6305C131.094 12.6861 131.274 12.7797 131.429 12.9055C131.584 13.0312 131.71 13.1865 131.8 13.3615C131.891 13.5366 131.943 13.7277 131.953 13.9231H128.561C128.635 13.5342 128.852 13.1844 129.172 12.938C129.492 12.6916 129.893 12.5652 130.301 12.5821ZM138.34 18.7163H135.567V10.6992H138.34V11.555C139.126 10.8908 140.144 10.5391 141.187 10.5707V12.9958C140.666 12.9746 140.145 13.0545 139.656 13.2309C139.167 13.4073 138.72 13.6766 138.34 14.023V18.7163ZM142.043 7.93165C142.042 7.72819 142.085 7.52678 142.167 7.3395C142.249 7.15222 142.37 6.98292 142.521 6.84173C142.673 6.70054 142.852 6.59038 143.049 6.51783C143.245 6.44529 143.455 6.41186 143.665 6.41953C143.875 6.41384 144.084 6.44864 144.279 6.52191C144.475 6.59517 144.653 6.70542 144.804 6.84621C144.956 6.98701 145.076 7.15552 145.159 7.3419C145.242 7.52827 145.286 7.72876 145.288 7.93165C145.286 8.13455 145.242 8.33506 145.159 8.52144C145.076 8.70781 144.956 8.87632 144.804 9.01712C144.653 9.15791 144.475 9.26814 144.279 9.3414C144.084 9.41466 143.875 9.44949 143.665 9.4438C143.455 9.45147 143.245 9.41804 143.049 9.3455C142.852 9.27295 142.673 9.16279 142.521 9.0216C142.37 8.88041 142.249 8.71109 142.167 8.52381C142.085 8.33653 142.042 8.13512 142.043 7.93165V7.93165ZM142.293 10.6992H145.066V18.702H142.293V10.6992ZM154.787 15.421C154.682 16.4162 154.182 17.3334 153.393 17.9799C152.603 18.6263 151.586 18.9516 150.553 18.8874C149.966 18.9209 149.378 18.8367 148.825 18.6402C148.273 18.4437 147.769 18.1391 147.343 17.7455C146.918 17.3518 146.582 16.8776 146.355 16.3524C146.128 15.8273 146.016 15.2625 146.025 14.6934C146.02 14.1261 146.135 13.5639 146.364 13.0414C146.592 12.5189 146.929 12.0473 147.354 11.6556C147.778 11.2639 148.281 10.9605 148.831 10.7641C149.381 10.5677 149.968 10.4825 150.553 10.5137C151.586 10.4495 152.603 10.7748 153.393 11.4212C154.182 12.0677 154.682 12.9849 154.787 13.9802H152.176C152.117 13.6166 151.916 13.289 151.614 13.0657C151.311 12.8424 150.931 12.7407 150.553 12.7819C150.295 12.7732 150.037 12.8173 149.797 12.9113C149.557 13.0052 149.341 13.147 149.161 13.3273C148.982 13.5076 148.843 13.7224 148.755 13.9578C148.667 14.1932 148.632 14.4438 148.651 14.6934C148.63 14.9448 148.664 15.1977 148.751 15.4355C148.838 15.6733 148.975 15.8907 149.155 16.0737C149.334 16.2567 149.551 16.4011 149.792 16.4975C150.033 16.594 150.293 16.6403 150.553 16.6335C150.934 16.6743 151.315 16.5707 151.618 16.3445C151.921 16.1183 152.121 15.7871 152.176 15.421H154.787ZM161.926 18.274V18.702H164.699V10.6849H161.926V11.1128C161.248 10.6945 160.457 10.4809 159.654 10.4994C159.099 10.5086 158.551 10.6245 158.043 10.8402C157.534 11.056 157.075 11.3674 156.692 11.7564C156.309 12.1453 156.01 12.604 155.812 13.1058C155.614 13.6075 155.521 14.1424 155.539 14.6791C155.529 15.2159 155.63 15.7493 155.835 16.2482C156.04 16.747 156.346 17.2014 156.734 17.585C157.123 17.9686 157.586 18.2738 158.097 18.4826C158.609 18.6915 159.158 18.8 159.713 18.8018C160.516 18.8203 161.307 18.6068 161.985 18.1884L161.926 18.274ZM160.259 12.6249C160.587 12.6164 160.913 12.6801 161.212 12.811C161.511 12.942 161.775 13.1369 161.985 13.381V15.8489C161.774 16.0912 161.509 16.284 161.21 16.4125C160.911 16.541 160.586 16.602 160.259 16.5907C159.995 16.589 159.734 16.5359 159.492 16.4344C159.249 16.3329 159.031 16.1851 158.849 16C158.667 15.8148 158.526 15.5961 158.434 15.3569C158.341 15.1177 158.3 14.8629 158.312 14.6078C158.3 14.3521 158.341 14.0966 158.433 13.8566C158.526 13.6166 158.667 13.397 158.848 13.2107C159.03 13.0244 159.248 12.8753 159.491 12.7723C159.733 12.6692 159.994 12.6143 160.259 12.6107V12.6249ZM167 17.9174C167.002 17.8207 166.984 17.7245 166.947 17.6346C166.91 17.5447 166.855 17.4628 166.785 17.3937C166.714 17.3246 166.631 17.2698 166.539 17.2323C166.446 17.1948 166.347 17.1756 166.247 17.1756C166.044 17.1756 165.849 17.2537 165.705 17.3929C165.561 17.532 165.48 17.7207 165.48 17.9174C165.48 18.0142 165.5 18.1099 165.539 18.1991C165.578 18.2883 165.634 18.3692 165.706 18.4369C165.777 18.5047 165.862 18.5579 165.955 18.5937C166.048 18.6294 166.147 18.6468 166.247 18.6449C166.447 18.6449 166.638 18.5683 166.779 18.4318C166.92 18.2954 167 18.1104 167 17.9174V17.9174ZM166.247 18.4737C166.171 18.4757 166.096 18.4626 166.025 18.4354C165.954 18.4081 165.89 18.3672 165.836 18.3151C165.782 18.2631 165.74 18.201 165.712 18.1326C165.684 18.0642 165.67 17.991 165.672 17.9174C165.668 17.8426 165.68 17.7678 165.707 17.6978C165.734 17.6277 165.776 17.5638 165.83 17.5102C165.885 17.4566 165.949 17.4144 166.021 17.3863C166.093 17.3581 166.17 17.3447 166.247 17.3468C166.324 17.3467 166.4 17.3616 166.471 17.3905C166.542 17.4193 166.606 17.4616 166.659 17.5148C166.713 17.5679 166.755 17.6309 166.783 17.7001C166.811 17.7692 166.825 17.8431 166.823 17.9174C166.825 17.991 166.811 18.0642 166.783 18.1326C166.755 18.201 166.712 18.2631 166.659 18.3151C166.605 18.3672 166.541 18.4081 166.47 18.4354C166.399 18.4626 166.323 18.4757 166.247 18.4737V18.4737ZM166.631 17.7605C166.631 17.5465 166.513 17.518 166.321 17.518H165.938V18.2883H166.115V17.9602H166.247L166.424 18.2883H166.601L166.424 17.9602C166.452 17.9623 166.48 17.9586 166.506 17.9494C166.532 17.9401 166.556 17.9255 166.575 17.9065C166.595 17.8875 166.61 17.8646 166.62 17.8394C166.629 17.8142 166.633 17.7872 166.631 17.7605V17.7605ZM166.336 17.846H166.115V17.6606H166.292L166.469 17.7319L166.336 17.846" fill="#EFEEEF"/>
</g>
<defs>
<clipPath id="clip0_498_46148">
<rect width="167" height="20.5991" fill="white"/>
</clipPath>
</defs>
</svg>
