<svg width="29" height="24" viewBox="0 0 29 24" fill="none" xmlns="http://www.w3.org/2000/svg">
<path d="M14.2195 15.7164C13.5587 15.1005 13.1248 14.2817 12.9873 13.3911C9.53593 14.8676 5.60573 17.7277 1.30762 22.9653L0.752849 23.7965V23.9535L0.857961 24H0.910518H0.945555C2.0084 23.4768 6.67442 21.0935 10.7798 20.5121L11.1419 20.0006L13.6296 16.5128L14.2195 15.7164ZM13.2325 11.1705L13.8866 10.2811C15.1538 8.5372 17.5657 7.41527 19.1015 6.90372L17.7993 0.108226C17.7938 0.0834503 17.7817 0.0606153 17.7642 0.0421793C17.7468 0.0237432 17.7245 0.0104031 17.7 0.00359006C17.6741 -0.00251745 17.6469 -0.000803715 17.6219 0.00851294C17.597 0.0178296 17.5754 0.0343257 17.5598 0.0559057L11.3054 8.99643H0.127984C0.100422 8.99752 0.0738622 9.00704 0.051921 9.02368C0.0299798 9.04032 0.0137262 9.06328 0.00535287 9.08944C-0.00251139 9.11696 -0.00169607 9.14622 0.00770534 9.17325C0.0171067 9.20029 0.0346375 9.22379 0.0579091 9.24058L5.99699 13.8213C8.25124 12.5639 10.6945 11.6767 13.2325 11.1938V11.1705ZM14.7684 10.9438C16.0597 10.773 17.3609 10.6875 18.6636 10.688C19.2125 10.688 19.7673 10.688 20.3162 10.7345C22.2603 10.8099 24.1682 11.2808 25.9225 12.1181L28.2 8.69415C26.7225 7.75243 23.9136 7.53153 23.9136 7.53153L24.626 5.50858H20.982L20.398 7.67686C19.3994 7.83963 16.17 9.02549 14.7859 10.9147L14.7684 10.9438ZM24.0304 12.6238C23.1925 12.3344 22.3248 12.1394 21.4433 12.0425C18.9729 11.7871 16.4765 12.0952 14.1435 12.9435C14.2136 15.0885 16.7306 16.1756 18.6169 16.3442C20.7776 16.5302 22.0915 16.6697 21.8813 17.4254C21.7587 17.8788 21.4725 18.4136 19.2592 18.4136C17.6471 18.3154 16.0708 17.8984 14.6224 17.1871L12.1405 20.6749C14.1494 21.8375 17.2562 22.0526 17.2562 22.0526L16.7131 23.9826H20.3513L20.7659 22.0759C25.7239 21.4364 27.0554 18.7392 27.4467 17.5765C27.7211 16.7511 28.2 14.2805 24.0245 12.647" fill="#0E406A"/>
</svg>
