<svg width="32" height="32" viewBox="0 0 32 32" fill="none" xmlns="http://www.w3.org/2000/svg">
<circle cx="16" cy="16" r="16" fill="url(#paint0_linear_16014_315)"/>
<path d="M16.0847 18.1653C15.6161 17.7355 15.3084 17.1639 15.2108 16.5423C12.7631 17.5729 9.97569 19.5692 6.92739 23.2251L6.53394 23.8053V23.9148L6.60848 23.9473H6.64576H6.67061C7.4244 23.5821 10.7336 21.9185 13.6453 21.5128L13.902 21.1557L15.6664 18.7212L16.0847 18.1653ZM15.3848 14.9923L15.8487 14.3715C16.7474 13.1543 18.4579 12.3712 19.5472 12.0141L18.6236 7.27085C18.6198 7.25356 18.6112 7.23762 18.5988 7.22475C18.5864 7.21189 18.5706 7.20257 18.5532 7.19782C18.5348 7.19356 18.5155 7.19475 18.4978 7.20125C18.4801 7.20776 18.4648 7.21927 18.4538 7.23433L14.018 13.4748H6.09077C6.07122 13.4756 6.05238 13.4822 6.03682 13.4938C6.02126 13.5054 6.00973 13.5215 6.0038 13.5397C5.99822 13.5589 5.9988 13.5794 6.00546 13.5982C6.01213 13.6171 6.02457 13.6335 6.04107 13.6452L10.2532 16.8426C11.8519 15.9649 13.5847 15.3456 15.3848 15.0086V14.9923ZM16.4741 14.8341C17.3899 14.7148 18.3127 14.6552 19.2366 14.6556C19.6259 14.6556 20.0194 14.6556 20.4087 14.688C21.7874 14.7406 23.1406 15.0693 24.3847 15.6537L26 13.2638C24.9521 12.6065 22.96 12.4523 22.96 12.4523L23.4653 11.0403H20.8808L20.4667 12.5538C19.7584 12.6674 17.4681 13.4951 16.4865 14.8138L16.4741 14.8341ZM23.0428 16.0067C22.4486 15.8047 21.8332 15.6686 21.208 15.601C19.456 15.4227 17.6855 15.6378 16.0309 16.2299C16.0806 17.7271 17.8657 18.4859 19.2034 18.6035C20.7359 18.7334 21.6678 18.8308 21.5187 19.3582C21.4317 19.6747 21.2287 20.048 19.659 20.048C18.5157 19.9794 17.3978 19.6884 16.3705 19.1919L14.6103 21.6264C16.035 22.4379 18.2384 22.588 18.2384 22.588L17.8532 23.9351H20.4335L20.7276 22.6043C24.2439 22.1579 25.1882 20.2752 25.4657 19.4637C25.6604 18.8876 26 17.1631 23.0387 16.0229" fill="#072238"/>
<defs>
<linearGradient id="paint0_linear_16014_315" x1="32" y1="0" x2="0" y2="32" gradientUnits="userSpaceOnUse">
<stop stop-color="#FFE700"/>
<stop offset="1" stop-color="#FFC429"/>
</linearGradient>
</defs>
</svg>
